<svg id="Layer_1" data-name="Layer 1" xmlns="http://www.w3.org/2000/svg" width="16" height="16" viewBox="0 0 16 16"><defs><style>.cls-1{fill:none;}</style></defs><title>PDFDocumentCheckedOut</title><rect class="cls-1" width="16" height="16"/><path d="M10,7h2.5V8H11V9h1.5v1H10Zm5-2v5.75H14V6H1v6H9.53l1,1H2v2h8.75v1H1V13H0V5H1V0h9.71L14,3.29V5ZM11,3h1.29L11,1.71Zm2,1H10V1H2V5H13Zm2,8v2.29l-3.15-3.15-.71.71L14.29,15H12v1h4V12ZM5,8.5A1.5,1.5,0,0,1,3.5,10H3v1H2V7H3.5A1.5,1.5,0,0,1,5,8.5Zm-1,0A.5.5,0,0,0,3.5,8H3V9h.5A.5.5,0,0,0,4,8.5ZM9,9a2,2,0,0,1-2,2H6V7H7A2,2,0,0,1,9,9ZM8,9A1,1,0,0,0,7,8v2A1,1,0,0,0,8,9Z"/></svg>