<svg id="Layer_1" data-name="Layer 1" xmlns="http://www.w3.org/2000/svg" width="16" height="16" viewBox="0 0 16 16"><defs><style>.cls-1{fill:none;}</style></defs><title>FolderCheckedOut</title><rect class="cls-1" width="16" height="16" transform="translate(0 16) rotate(-90)"/><path d="M11.64,6.35a1.29,1.29,0,0,1,.36.9V9.5l1,1V7.25a1.29,1.29,0,0,1,.36-.9A2.29,2.29,0,0,0,14,4.75V1a1,1,0,0,0-1-1H1V16H11V15H2V1h9V4.75A2.29,2.29,0,0,0,11.64,6.35ZM13,4.75a1.29,1.29,0,0,1-.36.9c-.05.05-.09.12-.14.18s-.09-.12-.14-.18a1.29,1.29,0,0,1-.36-.9V1h1Z"/><polygon points="15 12 15 14.29 11.85 11.15 11.15 11.85 14.29 15 12 15 12 16 16 16 16 12 15 12"/></svg>