<svg id="Layer_1" data-name="Layer 1" xmlns="http://www.w3.org/2000/svg" width="16" height="16" viewBox="0 0 16 16"><defs><style>.cls-1{fill:none;}</style></defs><title>PDFDocumentShared</title><rect class="cls-1" width="16" height="16"/><path d="M3.5,7H2v4H3V10h.5a1.5,1.5,0,0,0,0-3Zm0,2H3V8h.5a.5.5,0,0,1,0,1ZM7,7H6v4H7A2,2,0,0,0,7,7Zm0,3V8a1,1,0,0,1,0,2Zm2,6a5.22,5.22,0,0,1,.09-1H2V13h8a3.07,3.07,0,0,1-.22-1H1V6H14V8.9a3.21,3.21,0,0,1,1,.52V5H14V3.29L10.71,0H1V5H0v8H1v3ZM11,1.71,12.29,3H11ZM2,1h8V4h3V5H2Zm8,6h2.5V8H11V9h.79A3.23,3.23,0,0,0,10,10.9Z"/><path d="M13,14a2,2,0,1,1,2-2A2,2,0,0,1,13,14Zm0-3a1,1,0,1,0,1,1A1,1,0,0,0,13,11Z"/><path d="M16,16H15a2,2,0,0,0-4,0H10a3,3,0,0,1,6,0Z"/></svg>