<svg xmlns="http://www.w3.org/2000/svg" width="16" height="16" viewBox="0 0 16 16"><polygon points="3.5 0.5 3.5 4.005 0.5 4.434 0.5 12.473 3.5 12.944 3.5 15.5 13.5 15.5 13.5 6.5 15.5 6.5 15.5 0.5 3.5 0.5" fill="#fff"/><path d="M8,12h4V11H8Zm0-2h4V9H8Zm0,4h4V13H8ZM8,6h4V5H8ZM8,3V4h4V3ZM8,8h4V7H8Z" fill="#999"/><polygon points="3 0 3 4.077 4 3.934 4 1 15 1 15 6 13 6 13 15 4 15 4 13.023 3 12.866 3 16 14 16 14 7 16 7 16 0 3 0" fill="#999"/><path d="M0,4v8.9L7,14V3Z" fill="#80397b"/><polygon points="5 11 3.989 11 2 7.875 2 11 1 11 1 6 2.079 6 4 9.125 4 6 5 6 5 11" fill="#fff"/></svg>