<svg xmlns="http://www.w3.org/2000/svg" width="16" height="16" viewBox="0 0 16 16"><rect width="16" height="16" fill="none"/><path d="M16,16H15a2,2,0,0,0-4,0H10a3,3,0,0,1,6,0Z" fill="#444"/><path d="M13,14a2,2,0,1,1,2-2A2,2,0,0,1,13,14Zm0-3a1,1,0,1,0,1,1A1,1,0,0,0,13,11Z" fill="#444"/><path d="M9.943,13.061A3.209,3.209,0,0,1,9.75,12,3.236,3.236,0,0,1,15.5,9.949V4.807L11.193.5H3.457l.01,3.51L.5,4.434v8.039l2.992.47L3.5,15.5H8.8A4.235,4.235,0,0,1,9.943,13.061Z" fill="#fff"/><path d="M4,1h6V6h5V9.458a3.255,3.255,0,0,1,1,1.3V4.6L11.4,0H3V4.571l1-.143Zm7,0,4,4H11ZM8.75,16H3V12.372l1,.157V15H8.884A4.17,4.17,0,0,0,8.75,16ZM10,10H8V9H9V8H8V7h2V8h3v.75A3.229,3.229,0,0,0,11.755,9H10Z" fill="#999"/><path d="M0,4v8.9L7,14V3Z" fill="#3955a3"/><polygon points="2.864 10.974 1.198 6 2.386 6 3.506 9.801 3.527 9.801 4.647 6 5.802 6 4.114 10.974 2.864 10.974" fill="#fff"/></svg>