<svg xmlns="http://www.w3.org/2000/svg" width="16" height="16" viewBox="0 0 16 16"><rect width="16" height="16" transform="translate(0 16) rotate(-90)" fill="none"/><polygon points="11.193 0.5 3.457 0.5 3.467 4.01 0.5 4.434 0.5 12.473 3.492 12.943 3.499 15.5 15.5 15.5 15.5 4.807 11.193 0.5" fill="#fff"/><path d="M11.4,0H3V4.571l1-.143V1h6V5H8V6h5v7H8v1h6V6h1v9H4V12.529l-1-.157V16H16V4.6ZM11,5V1l4,4Z" fill="#999"/><rect x="8" y="7" width="4" height="2" fill="#8bbf8a"/><rect x="9" y="10" width="4" height="2" fill="#8bbf8a"/><path d="M0,12.9V4L7,3V14Z" fill="#31752f" fill-rule="evenodd"/><path d="M3.764,6H2v5H3.127V9.278h.537A2.461,2.461,0,0,0,4.7,9.067a1.63,1.63,0,0,0,.7-.595,1.589,1.589,0,0,0,.247-.879Q5.654,6,3.764,6Zm-.2,2.423H3.127V6.865h.442q.9,0,.9.771Q4.469,8.423,3.569,8.423Z" fill="#fff" fill-rule="evenodd"/></svg>