<svg xmlns="http://www.w3.org/2000/svg" width="16" height="16" viewBox="0 0 16 16"><rect width="16" height="16" fill="none"/><polygon points="11.193 0.5 3.457 0.5 3.467 4.01 0.5 4.434 0.5 12.473 3.492 12.943 3.499 15.5 15.5 15.5 15.5 4.807 11.193 0.5" fill="#fff"/><rect x="9" y="9" width="2" height="1" fill="#86bfa0"/><rect x="12" y="9" width="2" height="1" fill="#86bfa0"/><rect x="9" y="5" width="1" height="1" fill="#86bfa0"/><rect x="12" y="7" width="2" height="1" fill="#86bfa0"/><rect x="9" y="7" width="2" height="1" fill="#86bfa0"/><rect x="9" y="11" width="2" height="1" fill="#86bfa0"/><rect x="12" y="11" width="2" height="1" fill="#86bfa0"/><rect x="9" y="13" width="2" height="1" fill="#86bfa0"/><rect x="12" y="13" width="2" height="1" fill="#86bfa0"/><path d="M11.4,0H3V4.571l1-.143V1h6V3H9V4h1V6h5v9H4V12.529l-1-.157V16H16V4.6ZM11,5V1l4,4Z" fill="#999"/><path d="M0,4v8.9L7,14V3Z" fill="#217346"/><polygon points="3.502 9.176 2.541 11 1.219 11 2.788 8.5 1.353 6 2.702 6 3.543 7.796 3.557 7.796 4.504 6 5.74 6 4.264 8.479 5.781 11 4.467 11 3.515 9.176 3.502 9.176" fill="#fff"/></svg>