<svg id="Layer_1" data-name="Layer 1" xmlns="http://www.w3.org/2000/svg" width="16" height="16" viewBox="0 0 16 16"><defs><style>.cls-1{fill:none;}</style></defs><title>Folder</title><rect class="cls-1" width="16" height="16"/><path d="M14.36,9.65a1.29,1.29,0,0,1-.36-.9V1a1,1,0,0,0-1-1H2V16H14a1,1,0,0,0,1-1V11.25A2.29,2.29,0,0,0,14.36,9.65ZM3,1H13V8.75a1.29,1.29,0,0,1-.36.9,2.29,2.29,0,0,0-.64,1.6V15H3ZM14,15H13V11.25a1.29,1.29,0,0,1,.36-.9c.05-.05.09-.12.14-.18s.09.12.14.18a1.29,1.29,0,0,1,.36.9Z"/></svg>