<svg xmlns="http://www.w3.org/2000/svg" width="16" height="16" viewBox="0 0 16 16"><rect width="16" height="16" fill="none"/><path d="M16,16H15a2,2,0,0,0-4,0H10a3,3,0,0,1,6,0Z" fill="#444"/><path d="M13,14a2,2,0,1,1,2-2A2,2,0,0,1,13,14Zm0-3a1,1,0,1,0,1,1A1,1,0,0,0,13,11Z" fill="#444"/><path d="M9.943,13.061A3.209,3.209,0,0,1,9.75,12,3.236,3.236,0,0,1,15.5,9.949V4.807L11.193.5H3.457l.01,3.51L.5,4.434v8.039l2.992.47L3.5,15.5H8.8A4.236,4.236,0,0,1,9.943,13.061Z" fill="#fff"/><path d="M9.75,12H8V11H9.924A3.2,3.2,0,0,0,9.75,12Zm.193,1.061c-.007-.02-.01-.041-.016-.061H8v1H9.277A4.313,4.313,0,0,1,9.943,13.061Z" fill="#f5ba9d"/><path d="M9,7V4a2.994,2.994,0,0,0-1,.171V9.829A3,3,0,0,0,12,7Z" fill="#999"/><path d="M4,1h6V6h5V9.458a3.255,3.255,0,0,1,1,1.3V4.6L11.4,0H3V4.571l1-.143Zm7,0,4,4H11ZM8.75,16H3V12.372l1,.157V15H8.884A4.164,4.164,0,0,0,8.75,16Z" fill="#999"/><path d="M7,14V3L0,4v8.9Z" fill="#f04e23"/><path d="M3.764,6H2v5H3.127V9.278h.537A2.461,2.461,0,0,0,4.7,9.067a1.63,1.63,0,0,0,.7-.595,1.589,1.589,0,0,0,.247-.879Q5.654,6,3.764,6Zm-.2,2.423H3.127V6.865h.442q.9,0,.9.771Q4.469,8.423,3.569,8.423Z" fill="#f04e23"/><path d="M7,14V3L0,4v8.9Z" fill="#d24726"/><path d="M3.764,6H2v5H3.127V9.278h.537A2.461,2.461,0,0,0,4.7,9.067a1.63,1.63,0,0,0,.7-.595,1.589,1.589,0,0,0,.247-.879Q5.654,6,3.764,6Zm-.2,2.423H3.127V6.865h.442q.9,0,.9.771Q4.469,8.423,3.569,8.423Z" fill="#fff"/></svg>