<svg xmlns="http://www.w3.org/2000/svg" width="16" height="16" viewBox="0 0 16 16"><rect width="16" height="16" transform="translate(0 16) rotate(-90)" fill="none"/><polygon points="15 12 15 14.293 11.854 11.146 11.146 11.854 14.293 15 12 15 12 16 16 16 16 12 15 12" fill="#444"/><path d="M3.5,15.5V12.944l-3-.471V4.434L3.5,4V.5h12v6h-2v4.525L11.854,9.379,9.379,11.854l1.9,1.9H11V15.5Z" fill="#fff"/><path d="M8,5h4V6H8ZM8,4h4V3H8ZM4,15V13.023l-1-.157V16h8V15ZM8,8h4V7H8Zm0,2h3.232l.621-.621L12,9.525V9H8Zm0,4h3v-.25h.275l-.75-.75H8ZM3,0V4.077l1-.143V1H15V6H13v4.525l.75.75V11H14V7h2V0ZM8,12H9.525l-.146-.146L10.232,11H8Z" fill="#999"/><path d="M0,4v8.9L7,14V3Z" fill="#80397b"/><polygon points="5 11 3.989 11 2 7.875 2 11 1 11 1 6 2.079 6 4 9.125 4 6 5 6 5 11" fill="#fff"/></svg>