<svg id="Layer_1" data-name="Layer 1" xmlns="http://www.w3.org/2000/svg" width="16" height="16" viewBox="0 0 16 16"><defs><style>.cls-1{fill:none;}</style></defs><title>TextDocumentShared</title><rect class="cls-1" width="16" height="16"/><path d="M11,8H4V7h7ZM4,10h6.44A3.28,3.28,0,0,1,11,9.44V9H4Zm0,1H9.91a3.23,3.23,0,0,0-.16,1H4ZM9.71,0H1V16H8.75a4.17,4.17,0,0,1,.12-1H2V1H9V5h4V8.75a3.24,3.24,0,0,1,1,.16V4.29ZM10,1.71,12.29,4H10Z"/><path d="M13,14a2,2,0,1,1,2-2A2,2,0,0,1,13,14Zm0-3a1,1,0,1,0,1,1A1,1,0,0,0,13,11Z"/><path d="M16,16H15a2,2,0,0,0-4,0H10a3,3,0,0,1,6,0Z"/></svg>