<svg id="Layer_1" data-name="Layer 1" xmlns="http://www.w3.org/2000/svg" width="16" height="16" viewBox="0 0 16 16"><title>ZipFolder</title><path d="M14,0H2V16H13a1,1,0,0,0,1-1V7.25a1.29,1.29,0,0,1,.36-.9A2.29,2.29,0,0,0,15,4.75V1A1,1,0,0,0,14,0ZM7,1V4H5V1ZM7,15V14H6v1H3V1H4V5H5V6H6V5H8V1h4V4.75a2.29,2.29,0,0,0,.64,1.6,1.29,1.29,0,0,1,.36.9V15ZM14,4.75a1.29,1.29,0,0,1-.36.9c-.05.05-.09.12-.14.18s-.09-.12-.14-.18a1.29,1.29,0,0,1-.36-.9V1h1ZM5,7H6V8H5ZM5,9H6v1H5Zm0,2H6v1H5Zm1,2v1H5V13ZM6,7V6H7V7ZM6,9V8H7V9Zm0,2V10H7v1Zm0,2V12H7v1Z"/></svg>