<svg xmlns="http://www.w3.org/2000/svg" width="16" height="16" viewBox="0 0 16 16"><rect width="16" height="16" fill="none"/><polygon points="11.193 0.5 3.457 0.5 3.467 4.01 0.5 4.434 0.5 12.473 3.492 12.943 3.499 15.5 15.5 15.5 15.5 4.807 11.193 0.5" fill="#fff"/><rect x="8" y="7" width="6" height="1" fill="#999"/><rect x="8" y="9" width="6" height="1" fill="#999"/><rect x="8" y="11" width="6" height="1" fill="#999"/><rect x="8" y="13" width="6" height="1" fill="#999"/><path d="M11.4,0H3l.011,4.081L4,3.933V1h6V3H8V4h2V5H8V6h7v9H4V13.022l-1-.158L3.009,16H16V4.6ZM11,5V1l4,4Z" fill="#999"/><path d="M7,14V3L0,4v8.9Z" fill="#2b579a"/><polygon points="3.52 7.7 2.855 10.523 1.932 10.523 1 6.523 1.873 6.523 2.422 9.457 2.437 9.457 3.149 6.523 4.004 6.523 4.642 9.474 4.652 9.474 5.194 6.523 6 6.523 5.063 10.523 4.177 10.523 3.53 7.7 3.52 7.7" fill="#fff"/></svg>