<svg xmlns="http://www.w3.org/2000/svg" width="16" height="16" viewBox="0 0 16 16"><rect width="16" height="16" transform="translate(0 16) rotate(-90)" fill="none"/><polygon points="15 12 15 14.293 11.854 11.146 11.146 11.854 14.293 15 12 15 12 16 16 16 16 12 15 12" fill="#444"/><path d="M11,15.5H3.5l-.007-2.557L.5,12.473V4.434L3.467,4.01,3.457.5h7.736L15.5,4.807V11H13.75v.275l-1.9-1.9L9.379,11.854l1.9,1.9H11Z" fill="#fff"/><path d="M11,15v1H3V12.372l1,.157V15ZM16,4.6V11H15V6H10V1H4V4.429L3,4.571V0h8.4ZM15,5,11,1V5ZM8,9v1h2V9h2v.525l.975.975H13V8H10V7H8V8H9V9Z" fill="#999"/><path d="M0,4v8.9L7,14V3Z" fill="#3955a3"/><polygon points="2.864 10.974 1.198 6 2.386 6 3.506 9.801 3.527 9.801 4.647 6 5.802 6 4.114 10.974 2.864 10.974" fill="#fff"/></svg>