<svg xmlns="http://www.w3.org/2000/svg" width="16" height="16" viewBox="0 0 16 16"><rect width="16" height="16" fill="none"/><path d="M16,16H15a2,2,0,0,0-4,0H10a3,3,0,0,1,6,0Z" fill="#444" fill-rule="evenodd"/><path d="M13,14a2,2,0,1,1,2-2A2,2,0,0,1,13,14Zm0-3a1,1,0,1,0,1,1A1,1,0,0,0,13,11Z" fill="#444" fill-rule="evenodd"/><path d="M8.8,15.5H3.5l-.007-2.557L.5,12.473V4.434L3.467,4.01,3.457.5h7.736L15.5,4.807V9.949a3.227,3.227,0,0,0-5.557,3.112A4.235,4.235,0,0,0,8.8,15.5Z" fill="#fff"/><path d="M9.277,14H8V10H9v3h.926c.006.02.01.041.016.061A4.317,4.317,0,0,0,9.277,14ZM11,7H10V8h1Z" fill="#999"/><path d="M11,7H8V5h3Zm2,1.75a3.2,3.2,0,0,1,1,.174V8H8v2h2.458A3.233,3.233,0,0,1,13,8.75Z" fill="#f7a8ab"/><path d="M4,1h6V6h5V9.458a3.255,3.255,0,0,1,1,1.3V4.6L11.4,0H3V4.571l1-.143Zm7,0,4,4H11ZM8.75,16H3V12.372l1,.157V15H8.884A4.17,4.17,0,0,0,8.75,16Z" fill="#999"/><path d="M0,12.9V4L7,3V14Z" fill="#a4373a" fill-rule="evenodd"/><path d="M4.173,6H2.837l-1.82,5h1.22L2.59,9.888H4.368L4.724,11H5.951ZM2.83,9.023l.628-1.956h.028L4.11,9.023Z" fill="#fff" fill-rule="evenodd"/></svg>