<svg id="Layer_1" data-name="Layer 1" xmlns="http://www.w3.org/2000/svg" width="16" height="16" viewBox="0 0 16 16"><title>OnlineCampaign</title><path d="M7.5,5A4.5,4.5,0,1,0,12,9.5,4.5,4.5,0,0,0,7.5,5Zm3.29,3H9.39a6.21,6.21,0,0,0-.53-1.86A3.64,3.64,0,0,1,10.79,8Zm.33,1.5a3.59,3.59,0,0,1-.05.5H9.48c0-.17,0-.34,0-.5s0-.33,0-.5h1.6A3.59,3.59,0,0,1,11.13,9.5ZM7.5,13.13c-.23,0-.79-.57-1-2.12h2C8.28,12.27,7.83,13.13,7.5,13.13ZM6.39,10c0-.17,0-.32,0-.5s0-.33,0-.5H8.6c0,.17,0,.32,0,.5s0,.34,0,.5ZM3.88,9.5A3.59,3.59,0,0,1,3.93,9h1.6c0,.17,0,.32,0,.5s0,.33,0,.5H3.93A3.59,3.59,0,0,1,3.88,9.5ZM7.5,5.88c.16,0,.75.59,1,2.13h-2C6.73,6.43,7.3,5.88,7.5,5.88Zm-1.38.28A6.2,6.2,0,0,0,5.61,8H4.21A3.64,3.64,0,0,1,6.12,6.15ZM4.21,11H5.6a6.19,6.19,0,0,0,.5,1.84A3.64,3.64,0,0,1,4.21,11Zm4.64,1.86A6.64,6.64,0,0,0,9.38,11h1.41A3.64,3.64,0,0,1,8.84,12.86Z"/><path d="M9.71,0H1V16H14V4.29ZM10,1.71,12.29,4H10ZM2,15V1H9V5h4V15Z"/></svg>