<svg id="Layer_1" data-name="Layer 1" xmlns="http://www.w3.org/2000/svg" width="16" height="16" viewBox="0 0 16 16"><defs><style>.cls-1{fill:none;}</style></defs><title>PhotoShared</title><rect class="cls-1" width="16" height="16"/><path d="M11.5,3a.5.5,0,1,1-.5.5A.5.5,0,0,1,11.5,3ZM9.75,12H0V1H14V8.91a3.24,3.24,0,0,0-1-.16V2H1V5.29l1.5-1.5,4,4,2-2L11.72,9a3.26,3.26,0,0,0-.87.55L8.5,7.21,7.21,8.5l2.65,2.65A3.24,3.24,0,0,0,9.75,12ZM8.29,11,2.5,5.21,1,6.71V11Z"/><path d="M16,16H15a2,2,0,0,0-4,0H10a3,3,0,0,1,6,0Z"/><path d="M13,14a2,2,0,1,1,2-2A2,2,0,0,1,13,14Zm0-3a1,1,0,1,0,1,1A1,1,0,0,0,13,11Z"/></svg>