<svg xmlns="http://www.w3.org/2000/svg" width="16" height="16" viewBox="0 0 16 16"><rect width="16" height="16" fill="none"/><path d="M16,16H15a2,2,0,0,0-4,0H10a3,3,0,0,1,6,0Z" fill="#444"/><path d="M13,14a2,2,0,1,1,2-2A2,2,0,0,1,13,14Zm0-3a1,1,0,1,0,1,1A1,1,0,0,0,13,11Z" fill="#444"/><path d="M9.943,13.061A3.209,3.209,0,0,1,9.75,12,3.236,3.236,0,0,1,15.5,9.949V4.807L11.193.5H3.457l.01,3.51L.5,4.434v8.039l2.992.47L3.5,15.5H8.8A4.236,4.236,0,0,1,9.943,13.061Z" fill="#fff"/><path d="M8,9h3.755a3.255,3.255,0,0,0-1.3,1H8Zm0,3H9.75a3.2,3.2,0,0,1,.174-1H8ZM8,8h6V7H8Zm.884,7H4V13.022l-1-.158L3.009,16H8.75A4.164,4.164,0,0,1,8.884,15ZM3.011,4.081,3,0h8.4L16,4.6v6.155a3.255,3.255,0,0,0-1-1.3V6H8V5h2V4H8V3h2V1H4V3.933ZM11,5h4L11,1ZM8,14H9.277a4.313,4.313,0,0,1,.665-.939c-.007-.02-.01-.041-.016-.061H8Z" fill="#999"/><path d="M7,14V3L0,4v8.9Z" fill="#2b579a"/><polygon points="3.52 7.7 2.855 10.523 1.932 10.523 1 6.523 1.873 6.523 2.422 9.457 2.437 9.457 3.149 6.523 4.004 6.523 4.642 9.474 4.652 9.474 5.194 6.523 6 6.523 5.063 10.523 4.177 10.523 3.53 7.7 3.52 7.7" fill="#fff"/></svg>