<svg xmlns="http://www.w3.org/2000/svg" width="16" height="16" viewBox="0 0 16 16"><rect width="16" height="16" transform="translate(0 16) rotate(-90)" fill="none"/><polygon points="15 12 15 14.293 11.854 11.146 11.146 11.854 14.293 15 12 15 12 16 16 16 16 12 15 12" fill="#444"/><path d="M11,15.5H3.5l-.007-2.557L.5,12.473V4.434L3.467,4.01,3.457.5h7.736L15.5,4.807V11H13.75v.275l-1.9-1.9L9.379,11.854l1.9,1.9H11Z" fill="#fff"/><polygon points="9.379 11.854 10.232 11 8 11 8 12 9.525 12 9.379 11.854" fill="#f5ba9d"/><polygon points="11 13.75 11.275 13.75 10.525 13 8 13 8 14 11 14 11 13.75" fill="#f5ba9d"/><path d="M9,7V4a2.994,2.994,0,0,0-1,.171V9.829A3,3,0,0,0,12,7Z" fill="#999"/><path d="M11,15v1H3V12.372l1,.157V15ZM16,4.6V11H15V6H10V1H4V4.429L3,4.571V0h8.4ZM15,5,11,1V5Z" fill="#999"/><path d="M7,14V3L0,4v8.9Z" fill="#f04e23"/><path d="M3.764,6H2v5H3.127V9.278h.537A2.461,2.461,0,0,0,4.7,9.067a1.63,1.63,0,0,0,.7-.595,1.589,1.589,0,0,0,.247-.879Q5.654,6,3.764,6Zm-.2,2.423H3.127V6.865h.442q.9,0,.9.771Q4.469,8.423,3.569,8.423Z" fill="#f04e23"/><path d="M7,14V3L0,4v8.9Z" fill="#d24726"/><path d="M3.764,6H2v5H3.127V9.278h.537A2.461,2.461,0,0,0,4.7,9.067a1.63,1.63,0,0,0,.7-.595,1.589,1.589,0,0,0,.247-.879Q5.654,6,3.764,6Zm-.2,2.423H3.127V6.865h.442q.9,0,.9.771Q4.469,8.423,3.569,8.423Z" fill="#fff"/></svg>