<svg xmlns="http://www.w3.org/2000/svg" width="16" height="16" viewBox="0 0 16 16"><rect width="16" height="16" transform="translate(0 16) rotate(-90)" fill="none"/><polygon points="15 12 15 14.293 11.854 11.146 11.146 11.854 14.293 15 12 15 12 16 16 16 16 12 15 12" fill="#444"/><polygon points="11 14 11.544 14 11.275 13.75 9.379 11.854 11.854 9.379 13.75 11.275 13.75 11 15.5 11 15.5 4.807 11.193 0.5 3.457 0.5 3.467 4.01 0.5 4.434 0.5 12.473 3.492 12.943 3.499 15.5 11 15.5 11 14" fill="#fff"/><path d="M8,9h6v1H12.475l-.621-.621L11.232,10H8ZM8,8h6V7H8ZM4,15V13.022l-1-.158L3.009,16H11V15Zm4-3H9.525l-.146-.146L10.232,11H8Zm0,2h3.544l-.268-.25-.75-.75H8Zm8-9.4V11H15V6H8V5h2V4H8V3h2V1H4V3.933l-.989.148L3,0h8.4ZM15,5,11,1V5Z" fill="#999"/><path d="M7,14V3L0,4v8.9Z" fill="#2b579a"/><polygon points="3.52 7.7 2.855 10.523 1.932 10.523 1 6.523 1.873 6.523 2.422 9.457 2.437 9.457 3.149 6.523 4.004 6.523 4.642 9.474 4.652 9.474 5.194 6.523 6 6.523 5.063 10.523 4.177 10.523 3.53 7.7 3.52 7.7" fill="#fff"/></svg>