<svg xmlns="http://www.w3.org/2000/svg" width="16" height="16" viewBox="0 0 16 16"><rect width="16" height="16" transform="translate(0 16) rotate(-90)" fill="none"/><polygon points="15 12 15 14.293 11.854 11.146 11.146 11.854 14.293 15 12 15 12 16 16 16 16 12 15 12" fill="#217346"/><path d="M11,15.5H3.5l-.007-2.557L.5,12.473V4.434L3.467,4.01,3.457.5h7.736L15.5,4.807V11H13.75v.275l-1.9-1.9L9.379,11.854l1.9,1.9H11Z" fill="#fff"/><path d="M12,9.525V9h2v1H12.475ZM10,5H9V6h1Zm4,2H12V8h2ZM9.379,11.854,10.232,11H9v1h.525ZM11,7H9V8h2Zm0,6.75v-.275L10.525,13H9v1h2ZM11,9H9v1h2Z" fill="#86bfa0"/><path d="M11.4,0H3V4.571l1-.143V1h6V3H9V4h1V6h5v5h1V4.6ZM11,5V1l4,4Zm0,10v1H3V12.372l1,.157V15Z" fill="#999"/><path d="M0,4v8.9L7,14V3Z" fill="#217346"/><polygon points="3.502 9.176 2.541 11 1.219 11 2.788 8.5 1.353 6 2.702 6 3.543 7.796 3.557 7.796 4.504 6 5.74 6 4.264 8.479 5.781 11 4.467 11 3.515 9.176 3.502 9.176" fill="#fff"/></svg>