<svg id="Layer_1" data-name="Layer 1" xmlns="http://www.w3.org/2000/svg" width="16" height="16" viewBox="0 0 16 16"><defs><style>.cls-1{fill:none;}</style></defs><title>SurveyQuestionsCheckedOut</title><rect class="cls-1" width="16" height="16"/><path d="M16,12v4H12V15h2.29l-3.15-3.15.71-.71L15,14.29V12ZM8,13H7v1H8Zm0-1.5a1.29,1.29,0,0,1,.35-.9l1-1A2.29,2.29,0,0,0,10,8,2.5,2.5,0,0,0,5,8H6A1.5,1.5,0,0,1,9,8a1.29,1.29,0,0,1-.35.9l-1,1A2.29,2.29,0,0,0,7,11.5V12H8Zm6-7.2v7.27l-1-1V5H9V1H2V15h8.75v1H1V0H9.75ZM10,4H12.3L10,1.71Z"/></svg>