<svg id="Layer_1" data-name="Layer 1" xmlns="http://www.w3.org/2000/svg" width="16" height="16" viewBox="0 0 16 16"><defs><style>.cls-1{fill:none;}</style></defs><title>FolderShared</title><rect class="cls-1" width="16" height="16" transform="translate(0 16) rotate(-90)"/><path d="M13,0H1V16H9a5.3,5.3,0,0,1,.09-1H2V1h9V4.75a2.29,2.29,0,0,0,.64,1.6,1.29,1.29,0,0,1,.36.9V8.91a3.24,3.24,0,0,1,1-.16V7.25a1.29,1.29,0,0,1,.36-.9A2.29,2.29,0,0,0,14,4.75V1A1,1,0,0,0,13,0Zm0,4.75a1.29,1.29,0,0,1-.36.9c-.05.05-.09.12-.14.18s-.09-.12-.14-.18a1.29,1.29,0,0,1-.36-.9V1h1Z"/><path d="M13,14a2,2,0,1,1,2-2A2,2,0,0,1,13,14Zm0-3a1,1,0,1,0,1,1A1,1,0,0,0,13,11Z"/><path d="M16,16H15a2,2,0,0,0-4,0H10a3,3,0,0,1,6,0Z"/></svg>