<svg xmlns="http://www.w3.org/2000/svg" width="16" height="16" viewBox="0 0 16 16"><rect width="16" height="16" fill="none"/><polygon points="11.193 0.5 3.457 0.5 3.467 4.01 0.5 4.434 0.5 12.473 3.492 12.943 3.499 15.5 15.5 15.5 15.5 4.807 11.193 0.5" fill="#fff"/><path d="M11.4,0H3V4.571l1-.143V1h6V6h5v9H4V12.529l-1-.157V16H16V4.6ZM11,5V1l4,4Z" fill="#999"/><polygon points="10 8 10 7 8 7 8 8 9 8 9 9 8 9 8 10 10 10 10 9 12 9 12 10.5 13 10.5 13 8 10 8" fill="#999"/><path d="M12,14a2,2,0,1,1,2-2A2,2,0,0,1,12,14Zm0-3a1,1,0,1,0,1,1A1,1,0,0,0,12,11Z" fill="#999"/><path d="M0,4v8.9L7,14V3Z" fill="#3955a3"/><polygon points="2.864 10.974 1.198 6 2.386 6 3.506 9.801 3.527 9.801 4.647 6 5.802 6 4.114 10.974 2.864 10.974" fill="#fff"/></svg>