<svg xmlns="http://www.w3.org/2000/svg" width="16" height="16" viewBox="0 0 16 16"><rect width="16" height="16" transform="translate(0 16) rotate(-90)" fill="none"/><polygon points="15 12 15 14.293 11.854 11.146 11.146 11.854 14.293 15 12 15 12 16 16 16 16 12 15 12" fill="#444" fill-rule="evenodd"/><polygon points="11 13.75 11.275 13.75 9.379 11.854 11.854 9.379 13.75 11.275 13.75 11 15.5 11 15.5 4.807 11.193 0.5 3.457 0.5 3.467 4.01 0.5 4.434 0.5 12.473 3.492 12.943 3.499 15.5 11 15.5 11 13.75" fill="#fff"/><path d="M13,10.525V10h1v1h-.25v.275ZM11,13.75h.275l-.75-.75H9V10H8v4h3ZM11,7H10V8h1Z" fill="#999"/><path d="M11,7H8V5h3Zm.854,2.379.621.621H14V8H8v2h3.232Z" fill="#f7a8ab"/><path d="M11,15v1H3V12.372l1,.157V15ZM16,4.6V11H15V6H10V1H4V4.429L3,4.571V0h8.4ZM15,5,11,1V5Z" fill="#999"/><path d="M0,12.9V4L7,3V14Z" fill="#a4373a" fill-rule="evenodd"/><path d="M4.173,6H2.837l-1.82,5h1.22L2.59,9.888H4.368L4.724,11H5.951ZM2.83,9.023l.628-1.956h.028L4.11,9.023Z" fill="#fff" fill-rule="evenodd"/></svg>