<svg xmlns="http://www.w3.org/2000/svg" width="16" height="16" viewBox="0 0 16 16"><rect width="16" height="16" fill="none"/><polygon points="11.193 0.5 3.457 0.5 3.467 4.01 0.5 4.434 0.5 12.473 3.492 12.943 3.499 15.5 15.5 15.5 15.5 4.807 11.193 0.5" fill="#fff"/><polygon points="13 10 13 13 9 13 9 10 8 10 8 14 14 14 14 10 13 10" fill="#999"/><rect x="10" y="7" width="1" height="1" fill="#999"/><rect x="8" y="8" width="6" height="2" fill="#f7a8ab"/><rect x="8" y="5" width="3" height="2" fill="#f7a8ab"/><path d="M11.4,0H3V4.571l1-.143V1h6V6h5v9H4V12.529l-1-.157V16H16V4.6ZM11,5V1l4,4Z" fill="#999"/><path d="M0,12.9V4L7,3V14Z" fill="#a4373a" fill-rule="evenodd"/><path d="M4.173,6H2.837l-1.82,5h1.22L2.59,9.888H4.368L4.724,11H5.951ZM2.83,9.023l.628-1.956h.028L4.11,9.023Z" fill="#fff" fill-rule="evenodd"/></svg>