<svg xmlns="http://www.w3.org/2000/svg" width="16" height="16" viewBox="0 0 16 16"><rect width="16" height="16" fill="none"/><path d="M16,16H15a2,2,0,0,0-4,0H10a3,3,0,0,1,6,0Z" fill="#444" fill-rule="evenodd"/><path d="M13,14a2,2,0,1,1,2-2A2,2,0,0,1,13,14Zm0-3a1,1,0,1,0,1,1A1,1,0,0,0,13,11Z" fill="#444" fill-rule="evenodd"/><path d="M9.943,13.061A3.209,3.209,0,0,1,9.75,12,3.236,3.236,0,0,1,15.5,9.949V4.807L11.193.5H3.457l.01,3.51L.5,4.434v8.039l2.992.47L3.5,15.5H8.8A4.235,4.235,0,0,1,9.943,13.061Z" fill="#fff"/><path d="M8,13H9.926c.006.02.01.041.016.061A4.317,4.317,0,0,0,9.277,14H8Zm.884,2H4V12.529l-1-.157V16H8.75A4.17,4.17,0,0,1,8.884,15ZM4,4.429,3,4.571V0h8.4L16,4.6v6.155a3.255,3.255,0,0,0-1-1.3V6H14V8.924a3.2,3.2,0,0,0-1-.174V6H8V5h2V1H4ZM11,5h4L11,1Z" fill="#999"/><path d="M9,10h1.458a3.217,3.217,0,0,0-.708,2H9Zm3-1.076V7H8V9h3.755C11.833,8.967,11.919,8.95,12,8.924Z" fill="#8bbf8a"/><path d="M0,12.9V4L7,3V14Z" fill="#31752f" fill-rule="evenodd"/><path d="M3.764,6H2v5H3.127V9.278h.537A2.461,2.461,0,0,0,4.7,9.067a1.63,1.63,0,0,0,.7-.595,1.589,1.589,0,0,0,.247-.879Q5.654,6,3.764,6Zm-.2,2.423H3.127V6.865h.442q.9,0,.9.771Q4.469,8.423,3.569,8.423Z" fill="#fff" fill-rule="evenodd"/></svg>