<svg id="Layer_1" data-name="Layer 1" xmlns="http://www.w3.org/2000/svg" width="16" height="16" viewBox="0 0 16 16"><defs><style>.cls-1{fill:none;}</style></defs><title>VideoDocumentCheckedOut</title><rect class="cls-1" width="16" height="16"/><path d="M10.75,15H2V1H9V5h4v5h1V4.29L9.71,0H1V16h9.75ZM10,1.71,12.23,4H10Z"/><path d="M9,6.94V6H3v5H9v-.94l1.45.72.55-.55V5.94ZM8,10H4V7H8Zm2-.56-1-.5V8.06l1-.5Z"/><polygon points="15 12 15 14.29 11.85 11.15 11.15 11.85 14.29 15 12 15 12 16 16 16 16 12 15 12"/></svg>