<svg xmlns="http://www.w3.org/2000/svg" width="16" height="16" viewBox="0 0 16 16"><rect width="16" height="16" fill="none"/><path d="M16,16H15a2,2,0,0,0-4,0H10a3,3,0,0,1,6,0Z" fill="#444"/><path d="M13,14a2,2,0,1,1,2-2A2,2,0,0,1,13,14Zm0-3a1,1,0,1,0,1,1A1,1,0,0,0,13,11Z" fill="#444"/><path d="M8.8,15.5H3.5l-.007-2.557L.5,12.473V4.434L3.467,4.01,3.457.5h7.736L15.5,4.807V9.949a3.227,3.227,0,0,0-5.557,3.112A4.236,4.236,0,0,0,8.8,15.5Z" fill="#fff"/><path d="M10,6H9V5h1Zm1,1H9V8h2Zm3,0H12V8h2ZM9.924,11H9v1h.75A3.2,3.2,0,0,1,9.924,11ZM11,9.458V9H9v1h1.458A3.263,3.263,0,0,1,11,9.458Zm-1.057,3.6c-.007-.02-.01-.041-.016-.061H9v1h.277A4.313,4.313,0,0,1,9.943,13.061Z" fill="#86bfa0"/><path d="M4,1h6V3H9V4h1V6h5V9.458a3.255,3.255,0,0,1,1,1.3V4.6L11.4,0H3V4.571l1-.143Zm7,0,4,4H11ZM8.75,16H3V12.372l1,.157V15H8.884A4.164,4.164,0,0,0,8.75,16Z" fill="#999"/><path d="M0,4v8.9L7,14V3Z" fill="#217346"/><polygon points="3.502 9.176 2.541 11 1.219 11 2.788 8.5 1.353 6 2.702 6 3.543 7.796 3.557 7.796 4.504 6 5.74 6 4.264 8.479 5.781 11 4.467 11 3.515 9.176 3.502 9.176" fill="#fff"/></svg>