<svg id="Layer_1" data-name="Layer 1" xmlns="http://www.w3.org/2000/svg" width="16" height="16" viewBox="0 0 16 16"><defs><style>.cls-1{fill:none;}</style></defs><title>SoundDocumentShared</title><rect class="cls-1" width="16" height="16"/><path d="M6.29,6l-2,2H3v3H4.29l2,2H7V6ZM6,11.29,4.71,10H4V9h.71L6,7.71ZM9.54,6A5,5,0,0,1,11,9.39a3.15,3.15,0,0,0-1,1.11H9.87a4,4,0,0,0,.13-1A4,4,0,0,0,8.83,6.67ZM7.41,10.91a2,2,0,0,0,0-2.83l.71-.71a3,3,0,0,1,0,4.24ZM9.71,0H1V16H8.75a4,4,0,0,1,.13-1H2V1H9V5h4V8.75a3.24,3.24,0,0,1,1,.16V4.29ZM10,1.71,12.29,4H10Z"/><path d="M13,14a2,2,0,1,1,2-2A2,2,0,0,1,13,14Zm0-3a1,1,0,1,0,1,1A1,1,0,0,0,13,11Z"/><path d="M16,16H15a2,2,0,0,0-4,0H10a3,3,0,0,1,6,0Z"/></svg>