<svg id="Layer_1" data-name="Layer 1" xmlns="http://www.w3.org/2000/svg" width="16" height="16" viewBox="0 0 16 16"><defs><style>.cls-1{fill:none;}</style></defs><title>OnlineCampaignShared</title><rect class="cls-1" width="16" height="16"/><path d="M7.5,5a4.5,4.5,0,1,0,2.32,8.36,3.47,3.47,0,0,1,.24-.28,4.28,4.28,0,0,1-.23-.81,3.61,3.61,0,0,1-1,.6A6.63,6.63,0,0,0,9.38,11H10a3.25,3.25,0,0,1,.52-1h-1c0-.17,0-.34,0-.5s0-.33,0-.5h1.61a3.29,3.29,0,0,1,0,.38A3.19,3.19,0,0,1,12,8.93,4.51,4.51,0,0,0,7.5,5Zm0,.88c.16,0,.75.59,1,2.13h-2C6.73,6.43,7.3,5.88,7.5,5.88ZM3.88,9.5a3.14,3.14,0,0,1,0-.5h1.6c0,.17,0,.32,0,.5s0,.33,0,.5H3.92A3.14,3.14,0,0,1,3.88,9.5ZM4.21,11H5.6a6.19,6.19,0,0,0,.5,1.84A3.64,3.64,0,0,1,4.21,11Zm1.4-3H4.21A3.64,3.64,0,0,1,6.12,6.15,6.2,6.2,0,0,0,5.61,8ZM7.5,13.13c-.23,0-.79-.57-1-2.12h2C8.28,12.27,7.83,13.13,7.5,13.13ZM8.6,10H6.39c0-.17,0-.32,0-.5s0-.33,0-.5H8.6c0,.17,0,.32,0,.5S8.61,9.84,8.6,10Zm.78-2a6.2,6.2,0,0,0-.53-1.86A3.64,3.64,0,0,1,10.79,8Zm-.29,7H2V1H9V5h4V8.75h0a3.23,3.23,0,0,1,1,.15V4.29L9.71,0H1V16H9A5.22,5.22,0,0,1,9.09,15ZM10,1.71,12.29,4H10Z"/><path d="M13,14a2,2,0,1,1,2-2A2,2,0,0,1,13,14Zm0-3a1,1,0,1,0,1,1A1,1,0,0,0,13,11Z"/><path d="M16,16H15a2,2,0,0,0-4,0H10a3,3,0,0,1,6,0Z"/></svg>