<svg id="Layer_1" data-name="Layer 1" xmlns="http://www.w3.org/2000/svg" width="16" height="16" viewBox="0 0 16 16"><defs><style>.cls-1{fill:none;}</style></defs><title>SoundDocumentCheckedOut</title><rect class="cls-1" width="16" height="16"/><path d="M6.29,6l-2,2H3v3H4.29l2,2H7V6ZM6,11.29,4.71,10H4V9h.71L6,7.71Zm1.41-.38a2,2,0,0,0,0-2.83l.71-.71a3,3,0,0,1,0,4.24ZM9.71,0H1V16h9.75V15H2V1H9V5h4v5.49l1,1V4.29ZM10,1.71,12.29,4H10ZM9.54,6A5,5,0,0,1,11,9.5a5,5,0,0,1-.06.8L8.87,12.37l0,0a4,4,0,0,0,0-5.66ZM16,12v4H12V15h2.29l-3.15-3.15.71-.71L15,14.29V12Z"/></svg>