<svg xmlns="http://www.w3.org/2000/svg" width="16" height="16" viewBox="0 0 16 16"><path d="M16,16H15a2,2,0,0,0-4,0H10a3,3,0,0,1,6,0Z" fill="#444"/><path d="M13,14a2,2,0,1,1,2-2A2,2,0,0,1,13,14Zm0-3a1,1,0,1,0,1,1A1,1,0,0,0,13,11Z" fill="#444"/><path d="M3.5,15.5V12.944l-3-.471V4.434L3.5,4V.5h12v6h-2V8.8A3.216,3.216,0,0,0,13,8.75,3.254,3.254,0,0,0,9.75,12a3.209,3.209,0,0,0,.193,1.061A4.236,4.236,0,0,0,8.8,15.5Z" fill="#fff"/><path d="M8,5h4V6H8ZM8,8h4V7H8ZM8,4h4V3H8Zm0,6h2.458a3.255,3.255,0,0,1,1.3-1H8ZM4,1H15V6H13V8.75a3.2,3.2,0,0,1,1,.174V7h2V0H3V4.077l1-.143ZM8,12H9.75a3.2,3.2,0,0,1,.174-1H8Zm.884,3H4V13.023l-1-.157V16H8.75A4.164,4.164,0,0,1,8.884,15ZM8,14H9.277a4.313,4.313,0,0,1,.665-.939c-.007-.02-.01-.041-.016-.061H8Z" fill="#999"/><path d="M0,4v8.9L7,14V3Z" fill="#80397b"/><polygon points="5 11 3.989 11 2 7.875 2 11 1 11 1 6 2.079 6 4 9.125 4 6 5 6 5 11" fill="#fff"/></svg>