<svg id="Layer_1" data-name="Layer 1" xmlns="http://www.w3.org/2000/svg" width="16" height="16" viewBox="0 0 16 16"><title>ZipFolderShared</title><rect x="5" y="7" width="1" height="1"/><rect x="5" y="9" width="1" height="1"/><rect x="5" y="11" width="1" height="1"/><rect x="5" y="13" width="1" height="1"/><rect x="6" y="6" width="1" height="1"/><rect x="6" y="8" width="1" height="1"/><rect x="6" y="10" width="1" height="1"/><rect x="6" y="12" width="1" height="1"/><path d="M7,14H6v1H3V1H4V5H5V6H6V5H8V1h4V4.75a2.29,2.29,0,0,0,.64,1.6,1.29,1.29,0,0,1,.36.9V9a3,3,0,0,1,1,.17V7.25a1.29,1.29,0,0,1,.36-.9A2.29,2.29,0,0,0,15,4.75V1a1,1,0,0,0-1-1H2V16H9a3.93,3.93,0,0,1,.13-1H7Zm7-9.25a1.29,1.29,0,0,1-.36.9c-.05.05-.09.12-.14.18s-.09-.12-.14-.18a1.29,1.29,0,0,1-.36-.9V1h1ZM7,1V4H5V1Z"/><path d="M13,14a2,2,0,1,1,2-2A2,2,0,0,1,13,14Zm0-3a1,1,0,1,0,1,1A1,1,0,0,0,13,11Z"/><path d="M16,16H15a2,2,0,0,0-4,0H10a3,3,0,0,1,6,0Z"/></svg>