<svg id="Layer_1" data-name="Layer 1" xmlns="http://www.w3.org/2000/svg" width="16" height="16" viewBox="0 0 16 16"><defs><style>.cls-1{fill:none;}</style></defs><title>PDFDocument</title><rect class="cls-1" width="16" height="16"/><path d="M14,6h0v6H1V6H14M10.71,0H1V5H0v8H1v3H14V13h1V5H14V3.29L10.71,0ZM2,5V1h8V4h3V5Zm9-2V1.71L12.29,3ZM2,15V13H13v2ZM12.5,8V7H10v4h1V10h1.5V9H11V8Zm-9-1H2v4H3V10h.5a1.5,1.5,0,0,0,0-3Zm0,2H3V8h.5a.5.5,0,0,1,0,1ZM7,7H6v4H7A2,2,0,0,0,7,7Zm0,3V8a1,1,0,0,1,0,2Z"/></svg>