<svg id="Layer_1" data-name="Layer 1" xmlns="http://www.w3.org/2000/svg" width="16" height="16" viewBox="0 0 16 16"><defs><style>.cls-1{fill:none;}</style></defs><title>SurveyQuestionsShared</title><rect class="cls-1" width="16" height="16"/><path d="M8,14H7V13H8Zm0-2.5a1.29,1.29,0,0,1,.35-.9l1-1A2.29,2.29,0,0,0,10,8,2.5,2.5,0,0,0,5,8H6A1.5,1.5,0,0,1,9,8a1.29,1.29,0,0,1-.35.9l-1,1A2.29,2.29,0,0,0,7,11.5V12H8ZM8.75,16H1V0H9.71L14,4.29V8.91a3.24,3.24,0,0,0-1-.16V5H9V1H2V15H8.87A4.18,4.18,0,0,0,8.75,16ZM10,4h2.29L10,1.71Z"/><path d="M13,14a2,2,0,1,1,2-2A2,2,0,0,1,13,14Zm0-3a1,1,0,1,0,1,1A1,1,0,0,0,13,11Z"/><path d="M16,16H15a2,2,0,0,0-4,0H10a3,3,0,0,1,6,0Z"/></svg>