<?xml version="1.0" encoding="utf-8"?>
<!-- Generator: Adobe Illustrator 20.1.0, SVG Export Plug-In . SVG Version: 6.00 Build 0)  -->
<svg version="1.1" id="Layer_1" xmlns="http://www.w3.org/2000/svg" xmlns:xlink="http://www.w3.org/1999/xlink" x="0px" y="0px"
	 viewBox="0 0 64 64" style="enable-background:new 0 0 64 64;" xml:space="preserve">
<g>
	<path d="M10.7,42.7c-1.5,0-2.9-0.3-4.2-0.8c-1.3-0.6-2.4-1.3-3.4-2.3c-1-1-1.7-2.1-2.3-3.4C0.3,34.9,0,33.5,0,32
		c0-1.5,0.3-2.9,0.9-4.2c0.6-1.3,1.3-2.4,2.3-3.4c1-1,2.1-1.7,3.4-2.3c1.3-0.6,2.7-0.8,4.2-0.8v-16h16V12c0,0.7,0.1,1.4,0.4,2.1
		c0.3,0.7,0.7,1.2,1.1,1.7c0.5,0.5,1.1,0.9,1.7,1.1c0.7,0.3,1.3,0.4,2.1,0.4c0.8,0,1.4-0.1,2.1-0.4c0.6-0.3,1.2-0.7,1.7-1.1
		c0.5-0.5,0.9-1,1.1-1.7c0.3-0.6,0.4-1.3,0.4-2.1V5.3h15.9v16c1.5,0,2.9,0.3,4.3,0.8c1.3,0.5,2.4,1.3,3.4,2.2
		c0.9,0.9,1.7,2.1,2.2,3.4c0.5,1.3,0.8,2.7,0.8,4.3c0,1.5-0.3,2.9-0.8,4.3c-0.5,1.3-1.3,2.4-2.2,3.4c-0.9,0.9-2.1,1.7-3.4,2.2
		c-1.3,0.5-2.7,0.8-4.3,0.8v16H37.4V52c0-0.8-0.1-1.4-0.4-2.1c-0.3-0.6-0.7-1.2-1.1-1.7c-0.5-0.5-1.1-0.9-1.7-1.1
		c-0.6-0.3-1.3-0.4-2.1-0.4c-0.7,0-1.4,0.1-2.1,0.4c-0.7,0.3-1.2,0.7-1.7,1.1c-0.5,0.5-0.9,1.1-1.1,1.7c-0.3,0.7-0.4,1.3-0.4,2.1
		v6.7h-16V42.7z M10.7,26.7c-0.7,0-1.4,0.1-2.1,0.4c-0.7,0.3-1.2,0.7-1.7,1.1c-0.5,0.5-0.9,1.1-1.1,1.7c-0.3,0.7-0.4,1.3-0.4,2.1
		c0,0.7,0.1,1.4,0.4,2.1c0.3,0.7,0.7,1.2,1.1,1.7c0.5,0.5,1.1,0.9,1.7,1.1c0.7,0.3,1.3,0.4,2.1,0.4h5.4v16h5.3V52
		c0-1.5,0.3-2.9,0.8-4.2c0.6-1.3,1.3-2.4,2.3-3.4c1-1,2.1-1.7,3.4-2.3c1.3-0.6,2.7-0.8,4.2-0.8c1.5,0,2.9,0.3,4.2,0.8
		c1.3,0.6,2.4,1.3,3.4,2.3c1,1,1.7,2.1,2.3,3.4c0.6,1.3,0.8,2.7,0.8,4.2v1.3H48v-16h5.6c0.8,0,1.4-0.1,2.1-0.4
		c0.6-0.3,1.2-0.7,1.6-1.1c0.4-0.5,0.8-1.1,1-1.7c0.3-0.7,0.4-1.3,0.4-2.1c0-0.7-0.1-1.4-0.4-2.1c-0.3-0.7-0.6-1.2-1-1.7
		c-0.4-0.5-1-0.9-1.6-1.1c-0.6-0.3-1.3-0.4-2.1-0.4H48v-16h-5.3V12c0,1.5-0.3,2.9-0.8,4.2c-0.6,1.3-1.3,2.4-2.3,3.4
		c-1,1-2.1,1.7-3.4,2.3c-1.3,0.6-2.7,0.8-4.2,0.8c-1.5,0-2.9-0.3-4.2-0.8c-1.3-0.6-2.4-1.3-3.4-2.3c-1-1-1.7-2.1-2.3-3.4
		c-0.6-1.3-0.8-2.7-0.8-4.2v-1.3h-5.3v16H10.7z"/>
</g>
</svg>
