<svg id="Layer_1" data-name="Layer 1" xmlns="http://www.w3.org/2000/svg" width="16" height="16" viewBox="0 0 16 16"><defs><style>.cls-1{fill:none;}</style></defs><title>Feedback_ED15</title><rect class="cls-1" width="16" height="16"/><polygon points="4 0 4 3 5 3 5 1 15 1 15 7 13.59 7 12 8.59 12 7 10 7 10 8 11 8 11 11 14 8 16 8 16 0 4 0"/><path d="M5.5,11A3.5,3.5,0,1,1,9,7.5,3.5,3.5,0,0,1,5.5,11Zm0-6A2.5,2.5,0,1,0,8,7.5,2.5,2.5,0,0,0,5.5,5Z"/><path d="M11,16H10v-.5a4.5,4.5,0,0,0-9,0V16H0v-.5a5.5,5.5,0,0,1,11,0Z"/></svg>