<?xml version="1.0" encoding="utf-8"?>
<!-- Generator: Adobe Illustrator 22.1.0, SVG Export Plug-In . SVG Version: 6.00 Build 0)  -->
<svg version="1.1" id="Layer_1" xmlns="http://www.w3.org/2000/svg" xmlns:xlink="http://www.w3.org/1999/xlink" x="0px" y="0px"
	 width="16px" height="16px" viewBox="0 0 16 16" enable-background="new 0 0 16 16" xml:space="preserve">
<path d="M0,9.445l3.5-1.758L7,9.445v4.617l-3.5,1.75L0,14.062V9.445z M1,10.555v2.891l2,1v-2.891L1,10.555z M5.383,9.75L3.5,8.812
	L1.617,9.75L3.5,10.688L5.383,9.75z M4,14.445l2-1v-2.891l-2,1V14.445z M11.5,1.938l3.5,1.75v10.375l-3.5,1.75L8,14.062V3.688
	L11.5,1.938z M9,4.812v8.633l2,1V5.812L9,4.812z M13.383,4L11.5,3.062L9.617,4L11.5,4.938L13.383,4z M12,14.445l2-1V4.812l-2,1
	V14.445z"/>
</svg>
