<svg id="Layer_1" data-name="Layer 1" xmlns="http://www.w3.org/2000/svg" width="16" height="16" viewBox="0 0 16 16"><defs><style>.cls-1{fill:none;}</style></defs><title>Entitlement_EB95</title><rect class="cls-1" width="16" height="16"/><polygon points="6 15.81 4 14.81 2 15.81 2 12 3 12 3 14.19 4 13.69 5 14.19 5 12 6 12 6 15.81"/><path d="M4,13a3,3,0,1,1,3-3A3,3,0,0,1,4,13ZM4,8a2,2,0,1,0,2,2A2,2,0,0,0,4,8Z"/><path d="M10.71,0H2V6.25a4.22,4.22,0,0,1,1-.38V1h7V5h4V15H7v1h8V4.29ZM11,4V1.71L13.29,4Z"/></svg>