<svg id="Layer_1" data-name="Layer 1" xmlns="http://www.w3.org/2000/svg" width="16" height="16" viewBox="0 0 16 16"><defs><style>.cls-1{fill:none;}</style></defs><title>PhoneCall_E717</title><rect class="cls-1" width="16" height="16"/><path d="M11.89,16C9.58,16,6.61,14.56,4,12S0,6.41,0,4A3.62,3.62,0,0,1,1,1.37L1.87.5A1.71,1.71,0,0,1,3.08,0h0A1.71,1.71,0,0,1,4.3.5L6,2.23A1.72,1.72,0,0,1,6,4.66l-.86.86a.72.72,0,0,0,0,1l4.31,4.31a.72.72,0,0,0,1,0l.86-.86a1.71,1.71,0,0,1,1.21-.5h0a1.71,1.71,0,0,1,1.21.5L15.5,11.7a1.72,1.72,0,0,1,0,2.43l-.86.86A3.72,3.72,0,0,1,11.89,16ZM3.08,1a.71.71,0,0,0-.51.21l-.86.86C0,3.75,1.42,8,4.73,11.27s7.52,4.69,9.2,3l.86-.86a.72.72,0,0,0,0-1l-1.72-1.72a.71.71,0,0,0-.51-.21h0a.71.71,0,0,0-.51.21l-.86.86a1.72,1.72,0,0,1-2.43,0L4.45,7.24a1.72,1.72,0,0,1,0-2.43l.86-.86a.72.72,0,0,0,0-1L3.59,1.21A.71.71,0,0,0,3.09,1Z"/></svg>