<?xml version="1.0" encoding="utf-8"?>
<!-- Generator: Adobe Illustrator 23.0.3, SVG Export Plug-In . SVG Version: 6.00 Build 0)  -->
<svg version="1.1" id="Layer_1" xmlns="http://www.w3.org/2000/svg" xmlns:xlink="http://www.w3.org/1999/xlink" x="0px" y="0px"
	 width="16px" height="16px" viewBox="0 0 16 16" enable-background="new 0 0 16 16" xml:space="preserve">
<path d="M12.75,11.422c0.344,0.172,0.654,0.383,0.93,0.633c0.277,0.25,0.512,0.529,0.707,0.836c0.195,0.308,0.348,0.641,0.453,1
	C14.947,14.25,15,14.62,15,15h-1c0-0.411-0.078-0.799-0.234-1.164c-0.156-0.364-0.371-0.684-0.645-0.957s-0.592-0.488-0.957-0.645
	C11.801,12.078,11.412,12,11,12c-0.416,0-0.805,0.078-1.168,0.234c-0.361,0.156-0.68,0.371-0.954,0.645
	c-0.273,0.273-0.488,0.593-0.645,0.957C8.078,14.201,8,14.589,8,15H7c0-0.38,0.055-0.75,0.16-1.109c0.107-0.359,0.258-0.692,0.453-1
	c0.195-0.307,0.432-0.586,0.707-0.836c0.277-0.25,0.586-0.461,0.93-0.633c-0.391-0.281-0.696-0.633-0.918-1.055
	C8.111,9.945,8,9.49,8,9c0-0.411-0.078-0.799-0.234-1.164C7.609,7.472,7.394,7.152,7.121,6.879S6.529,6.391,6.164,6.234
	C5.8,6.078,5.412,6,5,6C4.583,6,4.194,6.078,3.832,6.234C3.47,6.391,3.152,6.605,2.879,6.879S2.391,7.472,2.234,7.836
	C2.078,8.201,2,8.589,2,9H1c0-0.38,0.053-0.75,0.16-1.109c0.106-0.359,0.258-0.692,0.453-1C1.809,6.583,2.044,6.305,2.32,6.055
	c0.276-0.25,0.586-0.461,0.93-0.633C2.859,5.141,2.553,4.789,2.332,4.367C2.11,3.945,2,3.49,2,3c0-0.411,0.078-0.799,0.234-1.164
	c0.156-0.364,0.371-0.684,0.645-0.957S3.47,0.391,3.832,0.234C4.194,0.078,4.583,0,5,0C5.412,0,5.8,0.078,6.164,0.234
	c0.365,0.156,0.684,0.371,0.957,0.645s0.488,0.593,0.645,0.957C7.921,2.201,8,2.589,8,3C8,3.49,7.89,3.945,7.667,4.367
	C7.447,4.789,7.14,5.141,6.75,5.422C7.146,5.62,7.5,5.875,7.812,6.188S8.38,6.854,8.578,7.25c0.281-0.391,0.633-0.696,1.055-0.918
	C10.055,6.111,10.512,6,11,6c0.412,0,0.801,0.078,1.164,0.234c0.365,0.156,0.684,0.371,0.957,0.645s0.488,0.593,0.645,0.957
	C13.922,8.201,14,8.589,14,9c0,0.49-0.109,0.945-0.332,1.367C13.447,10.789,13.141,11.141,12.75,11.422z M5,5
	c0.277,0,0.535-0.052,0.777-0.156c0.242-0.104,0.455-0.247,0.637-0.43C6.597,4.232,6.74,4.02,6.843,3.777C6.949,3.535,7,3.276,7,3
	c0-0.276-0.051-0.535-0.156-0.777C6.74,1.98,6.597,1.769,6.414,1.586c-0.182-0.182-0.395-0.325-0.637-0.43C5.535,1.052,5.277,1,5,1
	C4.724,1,4.465,1.052,4.223,1.156C3.98,1.261,3.768,1.404,3.586,1.586C3.403,1.769,3.26,1.98,3.156,2.223C3.052,2.465,3,2.724,3,3
	c0,0.276,0.052,0.535,0.156,0.777C3.26,4.02,3.403,4.232,3.586,4.414C3.768,4.597,3.98,4.74,4.223,4.844C4.465,4.948,4.724,5,5,5z
	 M12,2H9V1h4v4h-1V2z M11,11c0.277,0,0.535-0.052,0.777-0.156c0.242-0.104,0.455-0.247,0.637-0.43
	c0.184-0.182,0.326-0.395,0.43-0.637C12.949,9.535,13,9.276,13,9c0-0.276-0.051-0.535-0.156-0.777
	c-0.104-0.242-0.246-0.454-0.43-0.637c-0.182-0.182-0.395-0.325-0.637-0.43C11.535,7.052,11.277,7,11,7
	c-0.275,0-0.535,0.052-0.777,0.156C9.98,7.261,9.77,7.404,9.586,7.586C9.404,7.769,9.262,7.98,9.156,8.223C9.053,8.465,9,8.724,9,9
	c0,0.276,0.053,0.535,0.157,0.777c0.105,0.242,0.248,0.455,0.43,0.637c0.184,0.183,0.395,0.326,0.637,0.43
	C10.465,10.948,10.725,11,11,11z"/>
</svg>
