<svg id="Layer_1" data-name="Layer 1" xmlns="http://www.w3.org/2000/svg" width="16" height="16" viewBox="0 0 16 16"><defs><style>.cls-1{fill:none;}.cls-2{fill:#101010;}</style></defs><title>BookableResourceBooking_E716</title><rect class="cls-1" width="16" height="16"/><path class="cls-2" d="M11,6a3,3,0,1,1,3-3A3,3,0,0,1,11,6Zm0-5a2,2,0,1,0,2,2A2,2,0,0,0,11,1Z"/><path class="cls-2" d="M15,9H14A3,3,0,0,0,8,9H7a4,4,0,0,1,8,0Z"/><path class="cls-2" d="M5,12A3,3,0,1,1,8,9,3,3,0,0,1,5,12ZM5,7A2,2,0,1,0,7,9,2,2,0,0,0,5,7Z"/><path class="cls-2" d="M9,15H8a3,3,0,0,0-6,0H1a4,4,0,0,1,8,0Z"/></svg>