<?xml version="1.0" encoding="utf-8"?>
<!-- Generator: Adobe Illustrator 21.1.0, SVG Export Plug-In . SVG Version: 6.00 Build 0)  -->
<svg version="1.1" id="Layer_1" xmlns="http://www.w3.org/2000/svg" xmlns:xlink="http://www.w3.org/1999/xlink" x="0px" y="0px"
	 width="16px" height="16px" viewBox="0 0 16 16" style="enable-background:new 0 0 16 16;" xml:space="preserve">
<style type="text/css">
	.st0{fill:none;}
</style>
<rect class="st0" width="16" height="16"/>
<path d="M16,8.3V16H9v-2H4v-4H0V0h4.7L7,2.3V10H5v3h4V6h4.7L16,8.3z M6,9V3H4V1H1v8H6z M2,4h3v1H2V4z M2,6h3v1H2V6z M5,2h0.3L5,1.7
	V2z M15,15V9h-2V7h-3v8H15z M11,10h3v1h-3V10z M11,12h3v1h-3V12z M14,8h0.3L14,7.7V8z"/>
</svg>
