<svg xmlns:dc="http://purl.org/dc/elements/1.1/" xmlns:cc="http://creativecommons.org/ns#" xmlns:rdf="http://www.w3.org/1999/02/22-rdf-syntax-ns#" xmlns:svg="http://www.w3.org/2000/svg" xmlns="http://www.w3.org/2000/svg" xmlns:sodipodi="http://sodipodi.sourceforge.net/DTD/sodipodi-0.dtd" xmlns:inkscape="http://www.inkscape.org/namespaces/inkscape" width="4.2333331mm" height="3.5708413mm" viewBox="0 0 4.2333332 3.5708412" version="1.1" id="svg3719" inkscape:version="0.92.3 (2405546, 2018-03-11)" sodipodi:docname="EFCF.svg"><defs><style>.cls-1{fill:none;}</style></defs><title>CampaignResponse_EFCF</title><g inkscape:label="Layer 1" inkscape:groupmode="layer" id="layer1" transform="translate(-4.1176195,-139.64318)"><g aria-label="î¿" style="font-style:normal;font-variant:normal;font-weight:normal;font-stretch:normal;font-size:4.23333311px;line-height:1.25;font-family:'Full MDL2 Assets';-inkscape-font-specification:'Full MDL2 Assets';letter-spacing:0px;word-spacing:0px;fill:#000000;fill-opacity:1;stroke:none;stroke-width:0.06614583" id="text3727"><path d="m 8.0863693,139.64628 q 0.018604,-0.002 0.053744,-0.002 0.03514,-0.002 0.074414,0 0.041341,0 0.076481,0.002 0.037207,0 0.059945,0 v 1.06453 q -0.059945,-0.0434 -0.1260905,-0.0723 -0.066146,-0.0289 -0.1384928,-0.0455 v -0.68006 l -3.7041665,0.65939 v 0.52917 q 0.014469,0 0.022738,0.002 l 2.3047687,0.41134 -0.7668782,0.76895 q -0.026872,0.004 -0.053744,0.006 -0.024805,0.002 -0.051676,0.002 -0.1364258,0 -0.2583822,-0.0517 -0.1198893,-0.0517 -0.2108398,-0.14056 -0.088883,-0.091 -0.1405599,-0.21084 -0.051676,-0.12196 -0.051676,-0.25839 0,-0.0579 0.012402,-0.11782 l -0.5457031,-0.0971 q -0.039274,-0.008 -0.072347,-0.0145 -0.033073,-0.006 -0.064079,-0.0124 -0.031006,-0.006 -0.064079,-0.0103 -0.033073,-0.006 -0.072347,-0.0124 -0.024805,-0.002 -0.057878,-0.002 -0.031006,-0.002 -0.066146,0 -0.03514,0 -0.07028,0.002 -0.033073,0 -0.057878,0 v -1.05833 q 0.020671,0 0.055811,0.002 0.03514,0 0.072347,0.002 0.039274,0 0.072347,0 0.033073,0 0.051676,-0.004 z m -2.639632,1.91203 q -0.0062,0.0372 -0.0062,0.0723 0,0.0827 0.031006,0.15503 0.031006,0.0724 0.084749,0.12609 0.053744,0.0538 0.1260905,0.0848 0.072347,0.031 0.1550293,0.031 0.072347,0 0.1384928,-0.0248 0.066146,-0.0248 0.1178223,-0.0682 0.051676,-0.0455 0.086816,-0.10542 0.03514,-0.0599 0.047542,-0.13229 z m 2.1993488,-0.60358 q 0.057878,-0.0579 0.1343587,-0.0848 0.076481,-0.0269 0.1570964,-0.0269 0.086816,0 0.1612304,0.031 0.076481,0.0289 0.1322917,0.0827 0.055811,0.0537 0.086816,0.12816 0.033073,0.0724 0.033073,0.16123 0,0.0827 -0.033073,0.15917 -0.031006,0.0744 -0.088883,0.13229 l -1.480013,1.48208 -0.7792805,0.1943 0.1943033,-0.77928 z m 0.396875,0.39687 q 0.020671,-0.0207 0.031006,-0.0475 0.012402,-0.0289 0.012402,-0.0579 0,-0.0661 -0.043408,-0.10335 -0.041341,-0.0393 -0.1054199,-0.0393 -0.026872,0 -0.055811,0.008 -0.026872,0.008 -0.047542,0.0289 l -1.4304035,1.43041 -0.07028,0.27905 0.2790527,-0.0703 z" style="stroke-width:0.06614583" id="path3944" /></g></g></svg>