<svg id="Layer_1" data-name="Layer 1" xmlns="http://www.w3.org/2000/svg" width="16" height="16" viewBox="0 0 16 16"><defs><style>.cls-1{fill:none;}</style></defs><title>Template_E295</title><rect class="cls-1" width="16" height="16"/><path d="M9,1.71,11.29,4H9ZM8,0V5h5V4.29L8.71,0Z"/><rect x="12" y="6" width="1" height="1"/><rect x="12" y="8" width="1" height="1"/><rect x="12" y="10" width="1" height="1"/><rect x="12" y="12" width="1" height="1"/><rect x="12" y="14" width="1" height="1"/><rect x="10" y="14" width="1" height="1"/><rect x="8" y="14" width="1" height="1"/><rect x="6" y="14" width="1" height="1"/><rect x="4" y="14" width="1" height="1"/><rect x="2" y="14" width="1" height="1"/><rect x="2" y="6" width="1" height="1"/><rect x="2" y="4" width="1" height="1"/><rect x="2" y="2" width="1" height="1"/><rect x="2" width="1" height="1"/><rect x="4" width="1" height="1"/><rect x="6" width="1" height="1"/><rect x="2" y="8" width="1" height="1"/><rect x="2" y="10" width="1" height="1"/><rect x="2" y="12" width="1" height="1"/></svg>