<svg xmlns="http://www.w3.org/2000/svg" viewBox="0 0 2048 2048"><path d="M1536 896H640V768h896v128zm-512-384v128H640V512h384zm-512 640H384v-128h128v128zm0-512H384V512h128v128zm0 256H384V768h128v128zm-128 384h128v128H384v-128zm1344-128q66 0 124 25t101 69 69 102 26 124q0 66-25 124t-69 102-102 69-124 25q-47 0-92-13t-84-40l-291 290q-19 19-45 19t-45-19-19-45q0-26 19-45l290-291q-26-39-39-84t-14-92q0-66 25-124t68-101 102-69 125-26zm0 512q40 0 75-15t61-41 41-61 15-75q0-40-15-75t-41-61-61-41-75-15q-40 0-75 15t-61 41-41 61-15 75q0 40 15 75t41 61 61 41 75 15zM640 1280h648q-26 63-35 128H640v-128zm896-248q-95 42-165 120H640v-128h896v8zM256 1920h768v128H128V0h1115l549 549v475h-128V640h-512V128H256v1792zM1280 512h293l-293-293v293z"/></svg>