<svg id="Layer_1" data-name="Layer 1" xmlns="http://www.w3.org/2000/svg" width="16" height="16" viewBox="0 0 2048 2048" transform="scale(1,-1)"><title>CustomerAddress_EEBD</title><path d="M1792 1152H1152V1280H1792V1152ZM1536 768H1152V896H1536V768ZM2048 1792V256H0V1792H2048ZM1920 1664H128V384H1920V1664ZM640 896Q587 896 541 876T459 821T404 740T384 640H256Q256 692 270 741T309 834T371 914T454 976Q421 1011 403 1057T384 1152Q384 1205 404 1251T459 1333T540 1388T640 1408Q693 1408 739 1388T821 1333T876 1252T896 1152Q896 1103 878 1057T826 976Q872 950 908 914T970 835T1010 742T1024 640H896Q896 693 876 739T821 821T740 876T640 896ZM512 1152Q512 1125 522 1102T549 1062T590 1034T640 1024Q667 1024 690 1034T730 1061T758 1102T768 1152Q768 1179 758 1202T731 1242T690 1270T640 1280Q613 1280 590 1270T550 1243T522 1202T512 1152Z"/></svg>