<svg width="32" height="32" viewBox="0 0 32 32" xmlns="http://www.w3.org/2000/svg">
<g clip-path="url(#clip0)">
<path d="M15 0.125C16.3724 0.125 17.6895 0.302083 18.9512 0.65625C20.224 1.01042 21.4082 1.514 22.5039 2.16699C23.6107 2.80892 24.6123 3.58366 25.5088 4.49121C26.4163 5.3877 27.1911 6.38932 27.833 7.49609C28.486 8.5918 28.9896 9.77604 29.3438 11.0488C29.6979 12.3105 29.875 13.6276 29.875 15C29.875 16.3724 29.6979 17.695 29.3438 18.9678C28.9896 20.2295 28.486 21.4137 27.833 22.5205C27.1911 23.6162 26.4163 24.6178 25.5088 25.5254C24.6123 26.4219 23.6107 27.1966 22.5039 27.8496C21.4082 28.4915 20.224 28.9896 18.9512 29.3438C17.6895 29.6979 16.3724 29.875 15 29.875C13.6276 29.875 12.305 29.6979 11.0322 29.3438C9.77051 28.9896 8.58626 28.4915 7.47949 27.8496C6.38379 27.1966 5.38216 26.4219 4.47461 25.5254C3.57812 24.6178 2.80339 23.6162 2.15039 22.5205C1.50846 21.4137 1.01042 20.2295 0.65625 18.9678C0.302083 17.695 0.125 16.3724 0.125 15C0.125 13.6276 0.302083 12.3105 0.65625 11.0488C1.01042 9.77604 1.50846 8.5918 2.15039 7.49609C2.80339 6.38932 3.57812 5.3877 4.47461 4.49121C5.38216 3.58366 6.38379 2.80892 7.47949 2.16699C8.58626 1.514 9.77051 1.01042 11.0322 0.65625C12.305 0.302083 13.6276 0.125 15 0.125ZM15 27.75C16.1732 27.75 17.3021 27.6006 18.3867 27.3018C19.4714 26.9919 20.484 26.5602 21.4248 26.0068C22.3766 25.4535 23.2399 24.7894 24.0146 24.0146C24.7894 23.2399 25.4535 22.3822 26.0068 21.4414C26.5602 20.4896 26.9863 19.4714 27.2852 18.3867C27.5951 17.3021 27.75 16.1732 27.75 15C27.75 13.8268 27.5951 12.6979 27.2852 11.6133C26.9863 10.5286 26.5602 9.51595 26.0068 8.5752C25.4535 7.62337 24.7894 6.76009 24.0146 5.98535C23.2399 5.21061 22.3766 4.54655 21.4248 3.99316C20.484 3.43978 19.4714 3.01367 18.3867 2.71484C17.3021 2.40495 16.1732 2.25 15 2.25C13.8268 2.25 12.6979 2.40495 11.6133 2.71484C10.5286 3.01367 9.51042 3.43978 8.55859 3.99316C7.61784 4.54655 6.76009 5.21061 5.98535 5.98535C5.21061 6.76009 4.54655 7.62337 3.99316 8.5752C3.43978 9.51595 3.00814 10.5286 2.69824 11.6133C2.39941 12.6979 2.25 13.8268 2.25 15C2.25 16.1732 2.39941 17.3021 2.69824 18.3867C3.00814 19.4714 3.43978 20.4896 3.99316 21.4414C4.54655 22.3822 5.21061 23.2399 5.98535 24.0146C6.76009 24.7894 7.61784 25.4535 8.55859 26.0068C9.51042 26.5602 10.5286 26.9919 11.6133 27.3018C12.6979 27.6006 13.8268 27.75 15 27.75ZM15 6.5C16.1732 6.5 17.2744 6.72135 18.3037 7.16406C19.3441 7.60677 20.2461 8.21549 21.0098 8.99023C21.7845 9.75391 22.3932 10.6559 22.8359 11.6963C23.2786 12.7256 23.5 13.8268 23.5 15C23.5 16.1732 23.2786 17.2799 22.8359 18.3203C22.3932 19.3496 21.7845 20.2516 21.0098 21.0264C20.2461 21.79 19.3441 22.3932 18.3037 22.8359C17.2744 23.2786 16.1732 23.5 15 23.5C13.8268 23.5 12.7201 23.2786 11.6797 22.8359C10.6504 22.3932 9.74837 21.79 8.97363 21.0264C8.20996 20.2516 7.60677 19.3496 7.16406 18.3203C6.72135 17.2799 6.5 16.1732 6.5 15C6.5 13.8268 6.72135 12.7256 7.16406 11.6963C7.60677 10.6559 8.20996 9.75391 8.97363 8.99023C9.74837 8.21549 10.6504 7.60677 11.6797 7.16406C12.7201 6.72135 13.8268 6.5 15 6.5ZM15 21.375C15.8743 21.375 16.6989 21.209 17.4736 20.877C18.2484 20.5449 18.9235 20.0911 19.499 19.5156C20.0856 18.929 20.5449 18.2539 20.877 17.4902C21.209 16.7155 21.375 15.8854 21.375 15C21.375 14.1257 21.209 13.3011 20.877 12.5264C20.5449 11.7516 20.0856 11.0765 19.499 10.501C18.9235 9.91439 18.2484 9.45508 17.4736 9.12305C16.6989 8.79102 15.8743 8.625 15 8.625C14.1146 8.625 13.2845 8.79102 12.5098 9.12305C11.7461 9.45508 11.071 9.91439 10.4844 10.501C9.90885 11.0765 9.45508 11.7516 9.12305 12.5264C8.79102 13.3011 8.625 14.1257 8.625 15C8.625 15.8854 8.79102 16.7155 9.12305 17.4902C9.45508 18.2539 9.90885 18.929 10.4844 19.5156C11.071 20.0911 11.7461 20.5449 12.5098 20.877C13.2845 21.209 14.1146 21.375 15 21.375ZM15 12.875C15.2988 12.875 15.5755 12.9303 15.8301 13.041C16.0846 13.1517 16.306 13.3066 16.4941 13.5059C16.6934 13.694 16.8483 13.9154 16.959 14.1699C17.0697 14.4245 17.125 14.7012 17.125 15C17.125 15.2988 17.0697 15.5755 16.959 15.8301C16.8483 16.0846 16.6934 16.3115 16.4941 16.5107C16.306 16.6989 16.0846 16.8483 15.8301 16.959C15.5755 17.0697 15.2988 17.125 15 17.125C14.7012 17.125 14.4245 17.0697 14.1699 16.959C13.9154 16.8483 13.6885 16.6989 13.4893 16.5107C13.3011 16.3115 13.1517 16.0846 13.041 15.8301C12.9303 15.5755 12.875 15.2988 12.875 15C12.875 14.7012 12.9303 14.4245 13.041 14.1699C13.1517 13.9154 13.3011 13.694 13.4893 13.5059C13.6885 13.3066 13.9154 13.1517 14.1699 13.041C14.4245 12.9303 14.7012 12.875 15 12.875Z"/>
</g>
<defs>
<clipPath id="clip0">
<rect width="32" height="32"/>
</clipPath>
</defs>
</svg>
