<svg id="Layer_1" data-name="Layer 1" xmlns="http://www.w3.org/2000/svg" width="16" height="16" viewBox="0 0 16 16"><defs><style>.cls-1{fill:none;}.cls-2{fill:#101010;}</style></defs><title>Characteristic_F03E</title><rect class="cls-1" width="16" height="16" transform="translate(16 16) rotate(-180)"/><path class="cls-2" d="M5,7A3,3,0,0,1,5,1,3,3,0,0,1,8,4,3,3,0,0,1,5,7ZM5,2A2,2,0,1,0,7,4,2,2,0,0,0,5,2Z"/><path class="cls-2" d="M9,10H8a3,3,0,0,0-6,0H1a4,4,0,0,1,8,0Z"/><path d="M15,12v2H3V12H15m1-1H2v4H16V11Z"/></svg>