<svg id="Layer_1" data-name="Layer 1" xmlns="http://www.w3.org/2000/svg" width="16" height="16" viewBox="0 0 16 16"><defs><style>.cls-1{fill:none;}</style></defs><title>Quotes</title><rect class="cls-1" width="16" height="16"/><path d="M11.5,16A4.5,4.5,0,1,1,16,11.5,4.5,4.5,0,0,1,11.5,16Zm0-8A3.5,3.5,0,1,0,15,11.5,3.5,3.5,0,0,0,11.5,8Z"/><path d="M8,5H5V4H8ZM4,8H3V9H4ZM4,4H3V5H4ZM4,6H3V7H4Zm0,4H3v1H4Zm2,0H5v1h.78A5.7,5.7,0,0,1,6,10Zm1-2H5V9H6.33A5.75,5.75,0,0,1,6.95,8ZM9.83,6H5V7H7.93A5.74,5.74,0,0,1,9.83,6Zm3.67,5H12V9H11v3h2.5Zm-2,5H1V0H9.71L14,4.29V8.38a4,4,0,0,0-1-.59V5H9V1H2V15H9.57a4,4,0,0,0,1.93.5ZM10,4h2.29L10,1.71Z"/></svg>