<svg id="Layer_1" data-name="Layer 1" xmlns="http://www.w3.org/2000/svg" width="16" height="16" viewBox="0 0 2048 2048" transform="scale(1,-1)"><title>Currency_EAE4</title><path d="M959 1022Q911 1024 860 1034T766 1065Q749 1073 739 1088T729 1123Q729 1149 748 1168T793 1187Q806 1187 820 1181Q886 1152 958 1151V1370Q921 1383 887 1402T826 1447T783 1508T767 1585Q767 1626 783 1659T826 1716T887 1757T958 1782Q958 1811 974 1832T1022 1854Q1049 1854 1067 1836T1086 1790Q1121 1788 1152 1781T1217 1764L1173 1644Q1152 1652 1130 1656T1086 1662V1462Q1120 1450 1154 1430T1216 1383T1261 1322T1278 1248Q1278 1204 1263 1168T1223 1105T1162 1060T1086 1032Q1086 1004 1069 984T1022 964Q997 964 979 981T959 1022ZM1086 1165Q1114 1176 1132 1195T1150 1247Q1150 1259 1144 1270T1128 1290T1107 1307T1086 1321V1165ZM895 1585Q895 1557 915 1539T958 1509V1648Q955 1647 945 1643T933 1636Q919 1631 907 1616T895 1585ZM1640 1234Q1732 1198 1807 1138T1935 1001T2018 832T2048 641Q2048 553 2025 471T1961 318T1861 189T1731 88T1578 23T1408 0Q1304 0 1206 33T1025 129Q941 66 843 33T640 0Q551 0 470 23T317 87T188 187T88 317T23 470T0 641Q0 740 29 831T112 1000T241 1138T408 1234Q384 1318 384 1407Q384 1495 407 1577T471 1730T571 1859T701 1960T854 2025T1024 2048Q1112 2048 1194 2025T1347 1960T1476 1860T1576 1730T1641 1577T1664 1407Q1664 1318 1640 1234ZM1024 1920Q918 1920 825 1880T662 1769T552 1606T512 1407Q512 1301 552 1208T661 1045T824 935T1024 894Q1130 894 1223 934T1386 1044T1496 1207T1536 1407Q1536 1513 1496 1606T1387 1769T1224 1879T1024 1920ZM640 128Q746 128 839 168T1002 278T1112 441T1152 641Q1152 709 1132 775Q1078 766 1024 766Q919 766 821 799T638 896Q631 892 625 891Q537 865 492 800T446 643V641H572Q598 641 617 622T636 577Q636 546 619 533T578 515T527 511T481 513Q516 454 574 421T702 387Q731 387 756 393T808 410Q821 415 834 415Q860 415 879 397T898 352Q898 323 876 305T822 277T757 263T702 259Q641 259 585 277T481 329T397 409T340 513Q324 513 309 516T283 526T264 545T257 577Q257 603 274 621T318 641Q318 697 332 750T373 850T440 934T534 994Q511 1023 491 1054T453 1118Q379 1089 320 1041T217 930T151 794T128 641Q128 535 168 442T277 279T440 169T640 128ZM1408 128Q1514 128 1607 168T1770 278T1880 441T1920 641Q1920 720 1897 793T1831 929T1728 1039T1595 1117Q1557 1043 1502 981T1378 873L1471 747L1611 934Q1630 960 1662 960Q1689 960 1708 941T1727 895Q1727 875 1714 857L1534 618V513Q1553 513 1575 513T1617 509T1650 491T1664 449Q1664 421 1651 408T1618 389T1576 384T1534 385Q1534 366 1534 344T1530 302T1512 269T1470 255Q1442 255 1429 268T1410 301T1405 343T1406 385Q1387 385 1365 385T1324 389T1291 407T1278 449Q1278 477 1291 490T1323 509T1365 514T1406 513V618L1264 812L1258 810Q1270 769 1275 726T1280 641Q1280 523 1240 415T1121 218Q1185 174 1257 151T1408 128Z"/></svg>