<svg id="Layer_1" data-name="Layer 1" xmlns="http://www.w3.org/2000/svg" width="16" height="16" viewBox="0 0 16 16"><defs><style>.cls-1{fill:none;}</style></defs><title>BookableResource _EFDF</title><rect class="cls-1" width="16" height="16"/><path d="M12,13a3,3,0,1,1,3-3A3,3,0,0,1,12,13Zm0-5a2,2,0,1,0,2,2A2,2,0,0,0,12,8Z"/><path d="M16,16H15a3,3,0,0,0-6,0H8a4,4,0,0,1,8,0Z"/><rect x="5" y="4" width="3" height="1"/><rect x="5" y="6" width="3" height="1"/><rect x="5" y="8" width="3" height="1"/><rect x="3" y="4" width="1" height="1"/><rect x="3" y="6" width="1" height="1"/><rect x="3" y="8" width="1" height="1"/><path d="M7,15H2V1H9V5h4V6h1V4.29L9.71,0H1V16H7ZM10,1.71,12.29,4H10Z"/></svg>