<svg id="Layer_1" data-name="Layer 1" xmlns="http://www.w3.org/2000/svg" width="16" height="16" viewBox="0 0 16 16"><defs><style>.cls-1{fill:none;opacity:0.2;}</style></defs><title>CompetitorAddress_EFFC</title><rect class="cls-1" width="16" height="16"/><path d="M15,12l1-.4-.38-.92-1,.4a2.48,2.48,0,0,0-.67-.67l.4-1-.92-.38L13,10a2.49,2.49,0,0,0-1,0l-.4-1-.92.38.4,1a2.49,2.49,0,0,0-.67.67l-1-.4-.38.92,1,.4a2.49,2.49,0,0,0,0,1l-1,.4.38.92,1-.41a2.48,2.48,0,0,0,.65.68l-.4,1,.92.38.41-1a2.47,2.47,0,0,0,.47.07A2.49,2.49,0,0,0,13,15l.4,1,.92-.38-.4-1a2.49,2.49,0,0,0,.67-.67l1,.4.38-.92L15,13A2.49,2.49,0,0,0,15,12Zm-1.88,1.86a1.5,1.5,0,1,1,.81-2A1.5,1.5,0,0,1,13.07,13.89Z"/><path d="M9,15H2V1H9V5h4V8h1V4.29L9.71,0H1V16H9ZM10,1.71,12.29,4H10Z"/></svg>