<svg xmlns:dc="http://purl.org/dc/elements/1.1/" xmlns:cc="http://creativecommons.org/ns#" xmlns:rdf="http://www.w3.org/1999/02/22-rdf-syntax-ns#" xmlns:svg="http://www.w3.org/2000/svg" xmlns="http://www.w3.org/2000/svg" id="svg3719" version="1.1" viewBox="0 0 4.2333332 2.6499672" height="2.6499672mm" width="4.2333331mm"><defs><style>.cls-1{fill:none;}</style></defs><title>Campaign_E789</title><g transform="translate(-4.1176195,-138.68912)" id="layer1"><g id="text3727" style="font-style:normal;font-variant:normal;font-weight:normal;font-stretch:normal;font-size:4.23333311px;line-height:1.25;font-family:'Full MDL2 Assets';-inkscape-font-specification:'Full MDL2 Assets';letter-spacing:0px;word-spacing:0px;fill:#000000;fill-opacity:1;stroke:none;stroke-width:0.06614583" aria-label=""><path id="path3941" style="stroke-width:0.06614583" d="m 4.1176195,139.35472 q 0.028939,0 0.078548,0.002 0.051676,0.002 0.099219,0.002 0.022738,0 0.041341,0 0.020671,-0.002 0.033073,-0.004 l 3.7165688,-0.66146 q 0.012402,-0.002 0.033073,-0.002 0.020671,-0.002 0.045475,-0.002 0.049609,0 0.1033528,0.002 0.053744,0.002 0.082682,0.002 v 2.38125 q -0.028939,0 -0.080615,0.002 -0.051676,0 -0.1012858,0 -0.03514,0 -0.062012,0 -0.026872,0 -0.043408,-0.004 L 6.486467,140.79132 q -0.020671,0.11782 -0.080615,0.21911 -0.057878,0.10128 -0.144694,0.17363 -0.086816,0.0724 -0.1963704,0.11369 -0.107487,0.0413 -0.2273763,0.0413 -0.1364258,0 -0.2583822,-0.0517 -0.1198893,-0.0517 -0.2108398,-0.14056 -0.088883,-0.0909 -0.1405599,-0.21084 -0.051676,-0.12195 -0.051676,-0.25838 0,-0.0579 0.012402,-0.11782 l -0.8185546,-0.14676 q -0.016536,-0.002 -0.037207,-0.002 -0.018604,-0.002 -0.041341,-0.002 -0.045475,0 -0.093018,0.002 -0.045475,0.002 -0.080615,0.002 z m 1.7197916,1.71979 q 0.072347,0 0.1384928,-0.0248 0.066146,-0.0248 0.1178223,-0.0682 0.051676,-0.0455 0.086816,-0.10542 0.03514,-0.0599 0.047542,-0.13229 l -0.7813476,-0.13849 q -0.0062,0.0372 -0.0062,0.0723 0,0.0827 0.031006,0.15503 0.031006,0.0724 0.084749,0.12609 0.053744,0.0537 0.1260905,0.0847 0.072347,0.031 0.1550293,0.031 z m 2.2489582,-2.1146 -3.7041665,0.65939 v 0.52917 q 0.014469,0 0.022738,0.002 l 3.6814288,0.65733 z" /></g></g></svg>