<svg id="Layer_1" data-name="Layer 1" xmlns="http://www.w3.org/2000/svg" width="16" height="16" viewBox="0 0 16 16"><defs><style>.cls-1{fill:none;}</style></defs><title>EmailSignature_EFB6</title><rect class="cls-1" width="16" height="16"/><rect class="cls-1" width="16" height="16"/><rect class="cls-1" width="16" height="16"/><path d="M7,16l.74-2.94,5.6-5.62a1.65,1.65,0,0,1,2.21,0,1.56,1.56,0,0,1,0,2.21l-5.6,5.61Zm1.64-2.43-.26,1.06,1.06-.26,5.41-5.42a.56.56,0,0,0,0-.79.63.63,0,0,0-.79,0Z"/><path d="M6,15H2V1H9V5h4V6.15a2.87,2.87,0,0,1,1-.34V4.29L9.71,0H1V16H5.71ZM10,1.71,12.29,4H10Z"/></svg>