<?xml version="1.0" encoding="utf-8"?>
<!-- Generator: Adobe Illustrator 23.0.0, SVG Export Plug-In . SVG Version: 6.00 Build 0)  -->
<svg version="1.1" id="Layer_1" xmlns="http://www.w3.org/2000/svg" xmlns:xlink="http://www.w3.org/1999/xlink" x="0px" y="0px"
	 width="16px" height="16px" viewBox="0 0 16 16" enable-background="new 0 0 16 16" xml:space="preserve">
<path d="M6,1v9H0V1c0-0.141,0.026-0.271,0.078-0.391C0.13,0.49,0.202,0.384,0.293,0.293C0.384,0.202,0.489,0.13,0.609,0.078
	C0.729,0.026,0.859,0,1,0h4c0.141,0,0.271,0.026,0.391,0.078c0.12,0.052,0.226,0.124,0.316,0.215C5.798,0.384,5.87,0.49,5.922,0.609
	C5.974,0.729,6,0.859,6,1z M5,9V1H1v8H5z M5.047,11.625l0.578-0.578L8.086,13.5l-2.492,2.484l-0.578-0.578L6.414,14H4
	c-0.417,0-0.806-0.078-1.168-0.234c-0.362-0.156-0.68-0.371-0.953-0.645s-0.488-0.591-0.645-0.953C1.078,11.807,1,11.417,1,11h1
	c0,0.276,0.052,0.535,0.156,0.777c0.104,0.242,0.247,0.455,0.43,0.637c0.182,0.183,0.395,0.326,0.637,0.43
	C3.465,12.948,3.724,13,4,13h2.414L5.047,11.625z M4,2v1H2V2H4z M4,5v1H2V5H4z M4,7v1H2V7H4z M14,6c0.141,0,0.271,0.026,0.391,0.078
	c0.12,0.052,0.226,0.124,0.316,0.215c0.091,0.091,0.163,0.197,0.215,0.316C14.974,6.729,15,6.859,15,7v9H9V7
	c0-0.141,0.026-0.271,0.078-0.391C9.13,6.49,9.202,6.384,9.293,6.293C9.384,6.202,9.489,6.13,9.609,6.078C9.729,6.026,9.859,6,10,6
	H14z M14,15V7h-4v8H14z M13,8v1h-2V8H13z M13,11v1h-2v-1H13z M13,13v1h-2v-1H13z"/>
</svg>
