<svg id="Layer_1" data-name="Layer 1" xmlns="http://www.w3.org/2000/svg" width="16" height="16" viewBox="0 0 16 16"><defs><style>.cls-1{fill:none;}</style></defs><title>SyncError_EA6A</title><rect class="cls-1" width="16" height="16"/><path d="M11.5,7A4.5,4.5,0,1,0,16,11.5,4.5,4.5,0,0,0,11.5,7Zm0,8A3.5,3.5,0,1,1,15,11.5,3.5,3.5,0,0,1,11.5,15Z"/><path d="M15,2V3.93A8.28,8.28,0,0,0,8,0,8.2,8.2,0,0,0,.11,5.85l1,.29A7.23,7.23,0,0,1,14.45,5H12V6h4V2Z"/><path d="M6.88,14.9A7.3,7.3,0,0,1,1.55,11H4V10H0v4H1V12.07A8.28,8.28,0,0,0,7.92,16,5.79,5.79,0,0,1,6.88,14.9Z"/><rect x="11" y="9" width="1" height="3"/><rect x="11" y="13" width="1" height="1"/></svg>