<svg xmlns:dc="http://purl.org/dc/elements/1.1/" xmlns:cc="http://creativecommons.org/ns#" xmlns:rdf="http://www.w3.org/1999/02/22-rdf-syntax-ns#" xmlns:svg="http://www.w3.org/2000/svg" xmlns="http://www.w3.org/2000/svg" xmlns:sodipodi="http://sodipodi.sourceforge.net/DTD/sodipodi-0.dtd" xmlns:inkscape="http://www.inkscape.org/namespaces/inkscape" width="3.9687498mm" height="4.2333331mm" viewBox="0 0 3.9687513 4.2333332" version="1.1" id="svg3719" inkscape:version="0.92.3 (2405546, 2018-03-11)" sodipodi:docname="EFE3.svg"><defs id="defs3713" /><title>List_EFE3</title><g inkscape:label="Layer 1" inkscape:groupmode="layer" id="layer1" transform="translate(-4.872307,-138.99248)"><g aria-label="" style="font-style:normal;font-variant:normal;font-weight:normal;font-stretch:normal;font-size:4.23333311px;line-height:1.25;font-family:'Full MDL2 Assets';-inkscape-font-specification:'Full MDL2 Assets';letter-spacing:0px;word-spacing:0px;fill:#000000;fill-opacity:1;stroke:none;stroke-width:0.06614583" id="text3727"><path d="m 5.666057,141.35306 q 0.03514,0 0.084749,0.002 0.051677,0.002 0.099219,0.002 0.022738,0 0.043408,0 0.020671,-0.002 0.037207,-0.004 l 2.9104165,-0.41754 v 1.89342 l -1.0686685,-0.15296 q -0.020671,0.11782 -0.080615,0.21911 -0.057878,0.10128 -0.144694,0.1757 -0.086816,0.0723 -0.1963704,0.11368 -0.109554,0.0413 -0.2294434,0.0413 -0.1364257,0 -0.2583821,-0.0517 -0.1198893,-0.0517 -0.2108398,-0.14056 -0.088883,-0.0909 -0.1405599,-0.21084 -0.051677,-0.12196 -0.051677,-0.25838 0,-0.0186 0,-0.0372 0.00207,-0.0186 0.00413,-0.0372 -0.1364258,-0.0207 -0.2749186,-0.0413 -0.1384929,-0.0227 -0.2769857,-0.0372 -0.020671,-0.002 -0.041341,-0.002 -0.018604,-0.002 -0.039274,-0.002 -0.041341,0 -0.084749,0.002 -0.041341,0.002 -0.080615,0.002 z m 1.4552082,1.60817 q 0.07028,0 0.1343588,-0.0227 0.066146,-0.0248 0.1178222,-0.0682 0.053743,-0.0434 0.088883,-0.10128 0.037207,-0.06 0.049609,-0.13023 l -0.7854818,-0.11162 q -0.00207,0.0103 -0.00207,0.0186 0,0.008 0,0.0186 0,0.0827 0.031006,0.15503 0.031006,0.0723 0.084749,0.12609 0.053743,0.0537 0.1260905,0.0847 0.072347,0.031 0.1550292,0.031 z m 1.4552083,-1.71979 -2.6458332,0.3762 v 0.52917 l 2.6458332,0.37621 z M 6.7243903,140.3154 h -0.79375 v -0.26459 h 0.79375 z m -0.79375,0.26458 h 0.79375 v 0.26458 h -0.79375 z M 5.666057,140.3154 H 5.4014737 v -0.26459 H 5.666057 Z m -0.2645833,0.26458 H 5.666057 v 0.26458 H 5.4014737 Z m 0.8102864,2.38125 q 0.064079,0.1447 0.1715657,0.26458 H 4.872307 v -4.23333 h 2.3047688 l 1.1348144,1.13482 v 0.5519 l -0.2645833,0.0372 V 140.3154 H 6.9889736 v -1.05833 H 5.1368904 v 3.70416 z m 1.0417968,-2.91042 h 0.6056478 l -0.6056478,-0.60564 z" style="stroke-width:0.06614583" id="path3944" /></g></g></svg>