<svg id="Layer_1" data-name="Layer 1" xmlns="http://www.w3.org/2000/svg" width="16" height="16" viewBox="0 0 16 16"><defs><style>.cls-1{fill:none;}.cls-2{fill:#101010;}</style></defs><title>Connection_EFD4</title><rect class="cls-1" width="16" height="16"/><polygon points="9 1 9 2 12 2 12 5 13 5 13 1 9 1"/><path class="cls-2" d="M5,6A3,3,0,1,1,8,3,3,3,0,0,1,5,6ZM5,1A2,2,0,1,0,7,3,2,2,0,0,0,5,1Z"/><path class="cls-2" d="M9,9H8A3,3,0,0,0,2,9H1A4,4,0,0,1,9,9Z"/><path class="cls-2" d="M11,12a3,3,0,1,1,3-3A3,3,0,0,1,11,12Zm0-5a2,2,0,1,0,2,2A2,2,0,0,0,11,7Z"/><path class="cls-2" d="M15,15H14a3,3,0,0,0-6,0H7a4,4,0,0,1,8,0Z"/></svg>