<svg id="Layer_1" data-name="Layer 1" xmlns="http://www.w3.org/2000/svg" width="16" height="16" viewBox="0 0 16 16"><defs><style>.cls-1{fill:none;}</style></defs><title>Lead_EFD6</title><rect class="cls-1" width="16" height="16"/><path d="M8.93,16a9.08,9.08,0,0,1-5.87-3C.21,10.11-.77,6.6.85,5l.63-.63a1.39,1.39,0,0,1,2,0L4.71,5.62a1.39,1.39,0,0,1,0,2l-.63.63A.39.39,0,0,0,4,8.5a.38.38,0,0,0,.12.28l3.16,3.16a.4.4,0,0,0,.55,0l.63-.63a1.43,1.43,0,0,1,2,0l1.26,1.26a1.39,1.39,0,0,1,0,2l-.63.63A2.87,2.87,0,0,1,8.93,16ZM2.47,5a.39.39,0,0,0-.28.12l-.63.63C.38,6.87,1.39,9.88,3.77,12.25s5.38,3.39,6.56,2.21l.63-.63a.39.39,0,0,0,0-.56L9.69,12a.39.39,0,0,0-.56,0l-.63.63a1.42,1.42,0,0,1-2,0L3.38,9.49a1.39,1.39,0,0,1,0-2L4,6.88a.39.39,0,0,0,0-.56L2.74,5.07A.39.39,0,0,0,2.47,5Z"/><path d="M11,1.8,11.79,3l1.53-.31L13,4.21,14.2,5,13,5.79l.31,1.53L11.79,7,11,8.2,10.21,7l-1.53.31L9,5.79,7.8,5,9,4.21,8.68,2.68,10.21,3,11,1.8M11,0,9.75,1.88,7.41,1.41l.47,2.34L6,5,7.88,6.25,7.41,8.59l2.34-.47L11,10l1.25-1.87,2.34.47-.47-2.34L16,5,14.13,3.75l.47-2.34-2.34.47L11,0Z"/></svg>