<svg id="Layer_1" data-name="Layer 1" xmlns="http://www.w3.org/2000/svg" width="16" height="16" viewBox="0 0 16 16"><defs><style>.cls-1{fill:none;}</style></defs><title>ActivityPointer_EFF4</title><rect class="cls-1" width="16" height="16"/><path d="M10,2A2,2,0,0,0,6,2H2V16H14V2ZM7,3V2A1,1,0,0,1,9,2V3h2V4H5V3Zm6,12H3V3H4V5h8V3h1Z"/><path d="M8.73,6.06,4.63,10.2,4,12.95l2.79-.54,4.11-4.14a1.56,1.56,0,0,0,0-2.21A1.65,1.65,0,0,0,8.73,6.06Zm1.5,1.5L6.34,11.49l-1,.19.21-1,3.9-3.93a.63.63,0,0,1,.79,0,.56.56,0,0,1,0,.79Z"/></svg>