<?xml version="1.0" encoding="utf-8"?>
<!-- Generator: Adobe Illustrator 22.1.0, SVG Export Plug-In . SVG Version: 6.00 Build 0)  -->
<svg version="1.1" id="Layer_1" xmlns="http://www.w3.org/2000/svg" xmlns:xlink="http://www.w3.org/1999/xlink" x="0px" y="0px"
	 width="16px" height="16px" viewBox="0 0 16 16" enable-background="new 0 0 16 16" xml:space="preserve">
<path d="M5.969,15c0.088,0.198,0.201,0.38,0.34,0.547C6.446,15.714,6.602,15.864,6.774,16H1V0h8.711L14,4.289V7h-1V5H9V1H2v14H5.969
	z M15.469,13c0.15,0.125,0.277,0.272,0.379,0.441C15.949,13.611,16,13.797,16,14c0,0.281-0.084,0.525-0.25,0.73
	c-0.168,0.206-0.385,0.383-0.652,0.531c-0.27,0.148-0.57,0.271-0.906,0.367s-0.672,0.172-1.004,0.227
	c-0.334,0.055-0.648,0.093-0.945,0.113S11.697,16,11.5,16c-0.199,0-0.445-0.011-0.742-0.031s-0.613-0.059-0.945-0.113
	c-0.334-0.055-0.668-0.13-1.003-0.227c-0.336-0.097-0.639-0.219-0.906-0.367c-0.27-0.148-0.486-0.325-0.652-0.531
	C7.083,14.525,7,14.281,7,14c0-0.197,0.051-0.383,0.156-0.555c0.104-0.172,0.23-0.317,0.383-0.438
	c-0.078-0.052-0.15-0.115-0.215-0.191c-0.066-0.075-0.121-0.158-0.168-0.25c-0.047-0.091-0.086-0.185-0.113-0.281
	C7.014,12.189,7,12.094,7,12c0-0.219,0.057-0.422,0.172-0.609c-0.141-0.062-0.281-0.138-0.422-0.227
	c-0.141-0.088-0.266-0.191-0.375-0.309s-0.199-0.247-0.27-0.391C6.036,10.322,6,10.167,6,10c0-0.281,0.082-0.524,0.25-0.73
	c0.166-0.205,0.383-0.383,0.652-0.531C7.17,8.59,7.473,8.468,7.809,8.371c0.336-0.096,0.67-0.172,1.004-0.227
	C9.145,8.09,9.461,8.052,9.758,8.031C10.055,8.011,10.301,8,10.5,8c0.197,0,0.445,0.011,0.742,0.031
	c0.297,0.021,0.611,0.059,0.945,0.113c0.332,0.055,0.668,0.13,1.004,0.227c0.336,0.097,0.637,0.219,0.906,0.367
	c0.268,0.148,0.484,0.326,0.652,0.531C14.916,9.476,15,9.719,15,10c0,0.104-0.016,0.209-0.047,0.312
	c-0.031,0.104-0.076,0.201-0.133,0.289c0.141,0.068,0.281,0.146,0.422,0.234c0.141,0.089,0.266,0.191,0.379,0.309
	c0.111,0.117,0.203,0.246,0.273,0.387S16,11.828,16,12c0,0.219-0.051,0.405-0.152,0.559C15.746,12.713,15.619,12.859,15.469,13z
	 M7,10c0,0.058,0.035,0.119,0.109,0.184c0.072,0.065,0.156,0.125,0.254,0.18c0.096,0.055,0.189,0.104,0.281,0.145
	c0.09,0.042,0.156,0.07,0.199,0.086c0.191,0.078,0.4,0.144,0.625,0.195c0.223,0.053,0.451,0.094,0.683,0.125
	c0.23,0.031,0.461,0.054,0.691,0.066C10.072,10.994,10.291,11,10.5,11c0.207,0,0.426-0.006,0.656-0.02
	c0.229-0.013,0.459-0.035,0.691-0.066c0.23-0.031,0.457-0.072,0.68-0.125c0.221-0.052,0.43-0.117,0.629-0.195
	c0.035-0.016,0.102-0.044,0.195-0.086c0.094-0.041,0.188-0.09,0.285-0.145c0.096-0.055,0.18-0.114,0.254-0.18
	C13.963,10.119,14,10.058,14,10c0-0.057-0.037-0.118-0.109-0.184c-0.074-0.064-0.158-0.125-0.254-0.18
	c-0.098-0.055-0.191-0.103-0.285-0.145c-0.094-0.041-0.16-0.07-0.195-0.086c-0.199-0.078-0.408-0.143-0.629-0.195
	c-0.223-0.052-0.449-0.094-0.68-0.125c-0.232-0.031-0.463-0.053-0.691-0.066C10.926,9.007,10.707,9,10.5,9
	c-0.209,0-0.428,0.007-0.656,0.02c-0.23,0.014-0.461,0.035-0.691,0.066C8.92,9.117,8.692,9.159,8.469,9.211
	C8.245,9.264,8.036,9.328,7.844,9.406C7.801,9.422,7.735,9.451,7.645,9.492c-0.092,0.042-0.186,0.09-0.281,0.145
	C7.266,9.691,7.182,9.752,7.11,9.816C7.036,9.882,7,9.943,7,10z M15,12c0-0.067-0.047-0.138-0.137-0.211
	c-0.092-0.072-0.199-0.141-0.32-0.203c-0.123-0.062-0.242-0.115-0.355-0.16c-0.115-0.044-0.195-0.074-0.242-0.09
	c-0.234,0.125-0.498,0.229-0.789,0.312c-0.293,0.084-0.59,0.151-0.895,0.203c-0.305,0.053-0.609,0.09-0.91,0.113
	C11.049,11.988,10.766,12,10.5,12c-0.391,0-0.781-0.02-1.168-0.059c-0.388-0.039-0.769-0.105-1.144-0.199
	c-0.043,0.026-0.084,0.062-0.125,0.105C8.02,11.893,8,11.943,8,12c0,0.058,0.035,0.119,0.109,0.184
	c0.072,0.065,0.156,0.125,0.254,0.18c0.096,0.055,0.189,0.104,0.281,0.145c0.09,0.042,0.156,0.07,0.199,0.086
	c0.191,0.078,0.4,0.144,0.625,0.195c0.223,0.053,0.451,0.094,0.684,0.125c0.23,0.031,0.461,0.054,0.691,0.066
	C11.072,12.994,11.291,13,11.5,13c0.207,0,0.426-0.006,0.656-0.02c0.229-0.013,0.459-0.035,0.691-0.066
	c0.23-0.031,0.457-0.072,0.68-0.125c0.221-0.052,0.43-0.117,0.629-0.195c0.035-0.016,0.102-0.044,0.195-0.086
	c0.094-0.041,0.188-0.09,0.285-0.145c0.096-0.055,0.18-0.114,0.254-0.18C14.963,12.119,15,12.058,15,12z M11.5,15
	c0.207,0,0.426-0.006,0.656-0.02c0.229-0.013,0.459-0.035,0.691-0.066c0.23-0.031,0.457-0.072,0.68-0.125
	c0.221-0.052,0.43-0.117,0.629-0.195c0.035-0.016,0.102-0.044,0.195-0.086c0.094-0.041,0.188-0.09,0.285-0.145
	c0.096-0.055,0.18-0.114,0.254-0.18C14.963,14.119,15,14.058,15,14c0-0.041-0.023-0.086-0.066-0.133
	c-0.045-0.047-0.098-0.092-0.156-0.137c-0.061-0.044-0.119-0.083-0.176-0.117c-0.059-0.033-0.102-0.059-0.133-0.074
	c-0.459,0.167-0.945,0.285-1.461,0.355S11.988,14,11.5,14c-0.484,0-0.984-0.033-1.496-0.102c-0.514-0.067-1-0.185-1.457-0.352
	c-0.027,0.011-0.07,0.034-0.129,0.07c-0.061,0.037-0.121,0.077-0.184,0.121c-0.062,0.045-0.117,0.092-0.164,0.141
	C8.024,13.929,8,13.972,8,14.008c0,0.058,0.035,0.117,0.109,0.18c0.072,0.062,0.156,0.121,0.254,0.176
	c0.096,0.055,0.191,0.104,0.285,0.145c0.094,0.042,0.158,0.07,0.195,0.086c0.191,0.078,0.4,0.144,0.625,0.195
	c0.223,0.053,0.451,0.094,0.684,0.125c0.23,0.031,0.461,0.054,0.691,0.066C11.072,14.994,11.291,15,11.5,15z M10,4h2.289L10,1.711V4
	z"/>
</svg>
