<svg id="Layer_1" data-name="Layer 1" xmlns="http://www.w3.org/2000/svg" width="16" height="16" viewBox="0 0 16 16"><defs><style>.cls-1{fill:none;}</style></defs><title>Theme_E790</title><rect class="cls-1" width="16" height="16"/><path d="M8,16a2,2,0,0,1-2-2,2.89,2.89,0,0,1,.61-1.81A1.89,1.89,0,0,0,7,11,2,2,0,0,0,5,9a1.89,1.89,0,0,0-1.19.39A2.89,2.89,0,0,1,2,10,2,2,0,0,1,0,8a8,8,0,1,1,8,8ZM5,8a3,3,0,0,1,3,3,2.89,2.89,0,0,1-.61,1.81A1.89,1.89,0,0,0,7,14a1,1,0,0,0,1,1A7,7,0,1,0,1,8,1,1,0,0,0,2,9a1.89,1.89,0,0,0,1.19-.39A2.89,2.89,0,0,1,5,8Z"/><circle cx="4" cy="6" r="1"/><circle cx="7" cy="4" r="1"/><circle cx="11" cy="5" r="1"/><circle cx="12" cy="9" r="1"/><circle cx="10" cy="12" r="1"/></svg>