<?xml version="1.0" encoding="UTF-8" standalone="no"?><svg xmlns:dc="http://purl.org/dc/elements/1.1/" xmlns:cc="http://creativecommons.org/ns#" xmlns:rdf="http://www.w3.org/1999/02/22-rdf-syntax-ns#" xmlns:svg="http://www.w3.org/2000/svg" xmlns="http://www.w3.org/2000/svg" xmlns:sodipodi="http://sodipodi.sourceforge.net/DTD/sodipodi-0.dtd" xmlns:inkscape="http://www.inkscape.org/namespaces/inkscape" width="4.2333331mm" height="3.5718749mm" viewBox="0 0 4.2333332 3.5718748" version="1.1" id="svg3719" inkscape:version="0.92.3 (2405546, 2018-03-11)" sodipodi:docname="EFD0.svg"><defs id="defs3713" /><sodipodi:namedview id="base" pagecolor="#ffffff" bordercolor="#666666" borderopacity="1.0" inkscape:pageopacity="0.0" inkscape:pageshadow="2" inkscape:zoom="15.400923" inkscape:cx="6.5276608" inkscape:cy="15.196578" inkscape:document-units="mm" inkscape:current-layer="layer1" showgrid="false" inkscape:window-width="1600" inkscape:window-height="847" inkscape:window-x="-8" inkscape:window-y="-8" inkscape:window-maximized="1" /><metadata id="metadata3716"><rdf:RDF><cc:Work rdf:about=""><dc:format>image/svg+xml</dc:format><dc:type rdf:resource="http://purl.org/dc/dcmitype/StillImage" /><dc:title></dc:title></cc:Work></rdf:RDF></metadata><g inkscape:label="Layer 1" inkscape:groupmode="layer" id="layer1" transform="translate(-4.1176195,-137.76722)"><g aria-label="î¿" style="font-style:normal;font-variant:normal;font-weight:normal;font-stretch:normal;font-size:4.23333311px;line-height:1.25;font-family:'Full MDL2 Assets';-inkscape-font-specification:'Full MDL2 Assets';letter-spacing:0px;word-spacing:0px;fill:#000000;fill-opacity:1;stroke:none;stroke-width:0.06614583" id="text3727"><path d="m 8.0863693,138.69326 q 0.018604,-0.002 0.053744,-0.002 0.03514,-0.002 0.074414,0 0.041341,0 0.076481,0.002 0.037207,0 0.059945,0 v 2.38125 q -0.022738,0 -0.064079,0.002 -0.039274,0 -0.082682,0 -0.043408,0 -0.082682,0 -0.039274,0 -0.057878,-0.004 L 6.486467,140.79132 q -0.020671,0.11782 -0.080615,0.21911 -0.057878,0.10128 -0.144694,0.17363 -0.086816,0.0724 -0.1963704,0.11369 -0.107487,0.0413 -0.2273763,0.0413 -0.1364258,0 -0.2583822,-0.0517 -0.1198893,-0.0517 -0.2108398,-0.14056 -0.088883,-0.0909 -0.1405599,-0.21084 -0.051676,-0.12195 -0.051676,-0.25838 0,-0.0579 0.012402,-0.11782 l -0.5457031,-0.0971 q -0.039274,-0.008 -0.072347,-0.0145 -0.033073,-0.006 -0.064079,-0.0124 -0.031006,-0.006 -0.064079,-0.0103 -0.033073,-0.006 -0.072347,-0.0124 -0.024805,-0.002 -0.057878,-0.002 -0.031006,-0.002 -0.066146,0 -0.03514,0 -0.07028,0.002 -0.033073,0 -0.057878,0 v -0.79375 q 0.1136882,0.15089 0.2645833,0.26458 v 0.26459 q 0.014469,0 0.022738,0.002 l 3.6814288,0.65733 v -1.84795 l -1.6598469,0.29559 q 0.022738,-0.0662 0.037207,-0.13436 0.016536,-0.0703 0.026872,-0.14263 z m -2.2489582,2.38125 q 0.072347,0 0.1384928,-0.0248 0.066146,-0.0248 0.1178223,-0.0682 0.051676,-0.0455 0.086816,-0.10542 0.03514,-0.0599 0.047542,-0.13229 l -0.7813476,-0.13849 q -0.0062,0.0372 -0.0062,0.0723 0,0.0827 0.031006,0.15503 0.031006,0.0724 0.084749,0.12609 0.053744,0.0537 0.1260905,0.0847 0.072347,0.031 0.1550293,0.031 z m -0.6614583,-1.19063 q -0.2191081,0 -0.4113444,-0.0827 -0.1922363,-0.0847 -0.3369303,-0.22738 -0.142627,-0.14469 -0.2273763,-0.33693 -0.082682,-0.19223 -0.082682,-0.41134 0,-0.21911 0.082682,-0.41134 0.084749,-0.19224 0.2273763,-0.33487 0.144694,-0.14469 0.3369303,-0.22737 0.1922363,-0.0847 0.4113444,-0.0847 0.2191081,0 0.4113444,0.0847 0.1922363,0.0827 0.3348632,0.22737 0.144694,0.14263 0.2273763,0.33487 0.084749,0.19223 0.084749,0.41134 0,0.21911 -0.084749,0.41134 -0.082682,0.19224 -0.2273763,0.33693 -0.1426269,0.14263 -0.3348632,0.22738 -0.1922363,0.0827 -0.4113444,0.0827 z m 0,-1.85208 q -0.1653646,0 -0.3100586,0.062 -0.1426269,0.062 -0.252181,0.17157 -0.1074869,0.10748 -0.1694987,0.25218 -0.062012,0.14469 -0.062012,0.30799 0,0.16536 0.062012,0.31006 0.062012,0.14263 0.1694987,0.25218 0.1095541,0.10749 0.252181,0.1695 0.144694,0.062 0.3100586,0.062 0.1632975,0 0.3079915,-0.062 0.144694,-0.062 0.252181,-0.1695 0.109554,-0.10955 0.1715657,-0.25218 0.062012,-0.1447 0.062012,-0.31006 0,-0.1633 -0.062012,-0.30799 -0.062012,-0.1447 -0.1715657,-0.25218 -0.107487,-0.10956 -0.252181,-0.17157 -0.144694,-0.062 -0.3079915,-0.062 z m 0.396875,1.05833 H 4.9113695 v -0.79375 h 0.2645833 v 0.52917 h 0.396875 z" style="stroke-width:0.06614583" id="path3944" /></g></g></svg>