<?xml version="1.0" encoding="utf-8"?>
<!-- Generator: Adobe Illustrator 22.1.0, SVG Export Plug-In . SVG Version: 6.00 Build 0)  -->
<svg version="1.1" id="Layer_1" xmlns="http://www.w3.org/2000/svg" xmlns:xlink="http://www.w3.org/1999/xlink" x="0px" y="0px"
	 width="16px" height="16px" viewBox="0 0 16 16" enable-background="new 0 0 16 16" xml:space="preserve">
<path d="M8,0c0.734,0,1.441,0.095,2.125,0.285c0.682,0.19,1.32,0.458,1.914,0.805c0.594,0.347,1.133,0.763,1.621,1.25
	c0.486,0.487,0.902,1.027,1.25,1.621c0.346,0.594,0.613,1.232,0.805,1.914C15.904,6.558,16,7.266,16,8s-0.096,1.443-0.285,2.125
	c-0.191,0.683-0.459,1.32-0.805,1.914c-0.348,0.594-0.764,1.135-1.25,1.621c-0.488,0.487-1.027,0.904-1.621,1.25
	c-0.594,0.347-1.232,0.614-1.914,0.805C9.441,15.905,8.735,16,8,16s-1.443-0.095-2.125-0.285c-0.683-0.19-1.32-0.458-1.914-0.805
	c-0.594-0.346-1.134-0.763-1.621-1.25c-0.487-0.486-0.904-1.027-1.25-1.621c-0.347-0.594-0.615-1.23-0.805-1.91
	C0.095,9.449,0,8.74,0,8c0-0.734,0.095-1.442,0.285-2.125c0.19-0.682,0.458-1.32,0.805-1.914C1.436,3.367,1.853,2.827,2.34,2.34
	c0.487-0.487,1.027-0.903,1.621-1.25c0.594-0.346,1.23-0.614,1.91-0.805C6.551,0.095,7.26,0,8,0z M8,15
	c0.641,0,1.257-0.083,1.855-0.25c0.596-0.166,1.152-0.402,1.672-0.707c0.518-0.305,0.99-0.67,1.418-1.098
	c0.426-0.427,0.793-0.899,1.098-1.418c0.305-0.518,0.539-1.074,0.707-1.668C14.916,9.266,15,8.646,15,8
	c0-0.641-0.084-1.259-0.25-1.855c-0.168-0.596-0.402-1.153-0.707-1.672c-0.305-0.518-0.672-0.991-1.098-1.418
	c-0.428-0.427-0.9-0.793-1.418-1.098c-0.52-0.305-1.076-0.54-1.672-0.707C9.258,1.083,8.641,1,8,1s-1.26,0.083-1.855,0.25
	C5.548,1.417,4.991,1.652,4.473,1.957C3.954,2.262,3.481,2.628,3.055,3.055c-0.427,0.427-0.793,0.9-1.098,1.418
	C1.652,4.991,1.417,5.548,1.25,6.145C1.083,6.741,1,7.359,1,8s0.083,1.26,0.25,1.855c0.167,0.597,0.402,1.154,0.707,1.672
	c0.305,0.519,0.67,0.991,1.098,1.418c0.427,0.428,0.899,0.793,1.418,1.098c0.518,0.305,1.074,0.541,1.668,0.707
	C6.735,14.917,7.354,15,8,15z M7,6c0,0.276-0.053,0.535-0.156,0.777C6.739,7.02,6.596,7.232,6.415,7.414
	C6.231,7.597,6.02,7.74,5.777,7.844C5.535,7.948,5.276,8,5,8C4.724,8,4.465,7.948,4.223,7.844C3.98,7.74,3.768,7.597,3.586,7.414
	C3.403,7.232,3.26,7.02,3.156,6.777C3.052,6.535,3,6.276,3,6c0-0.276,0.052-0.535,0.156-0.777C3.26,4.98,3.403,4.769,3.586,4.586
	c0.182-0.182,0.395-0.325,0.637-0.43C4.465,4.052,4.724,4,5,4c0.276,0,0.535,0.052,0.777,0.156c0.243,0.104,0.454,0.248,0.637,0.43
	c0.182,0.183,0.324,0.395,0.43,0.637C6.948,5.465,7,5.724,7,6z M5,7c0.141,0,0.271-0.026,0.391-0.078
	C5.51,6.87,5.616,6.798,5.707,6.707C5.798,6.616,5.87,6.511,5.922,6.391C5.973,6.271,6,6.141,6,6S5.973,5.729,5.922,5.609
	C5.87,5.49,5.798,5.384,5.707,5.293C5.616,5.202,5.51,5.13,5.391,5.078C5.271,5.026,5.141,5,5,5S4.729,5.026,4.609,5.078
	C4.489,5.13,4.384,5.202,4.293,5.293C4.202,5.384,4.13,5.49,4.078,5.609C4.026,5.729,4,5.859,4,6s0.026,0.271,0.078,0.391
	c0.052,0.12,0.124,0.226,0.215,0.316C4.384,6.798,4.489,6.87,4.609,6.922C4.729,6.974,4.859,7,5,7z M10.555,4l-4,8h-1.11l4-8H10.555
	z M11,8c0.275,0,0.535,0.052,0.777,0.156c0.242,0.104,0.453,0.248,0.637,0.43c0.182,0.183,0.324,0.395,0.43,0.637
	C12.947,9.465,13,9.725,13,10c0,0.276-0.053,0.535-0.156,0.777c-0.105,0.242-0.248,0.455-0.43,0.637
	c-0.184,0.183-0.395,0.326-0.637,0.43C11.535,11.948,11.275,12,11,12c-0.277,0-0.535-0.052-0.777-0.156
	c-0.242-0.104-0.455-0.247-0.637-0.43c-0.184-0.182-0.326-0.395-0.43-0.637C9.051,10.535,9,10.276,9,10
	c0-0.275,0.051-0.535,0.156-0.777C9.26,8.98,9.402,8.769,9.586,8.586c0.182-0.182,0.395-0.325,0.637-0.43
	C10.465,8.052,10.723,8,11,8z M11,11c0.141,0,0.27-0.025,0.391-0.078c0.119-0.052,0.225-0.123,0.316-0.215
	c0.09-0.091,0.162-0.196,0.215-0.316C11.973,10.271,12,10.141,12,10s-0.027-0.271-0.078-0.391c-0.053-0.119-0.125-0.225-0.215-0.316
	c-0.092-0.091-0.197-0.162-0.316-0.215C11.27,9.026,11.141,9,11,9s-0.271,0.026-0.391,0.078c-0.121,0.053-0.227,0.124-0.316,0.215
	c-0.092,0.092-0.164,0.197-0.215,0.316C10.025,9.729,10,9.859,10,10s0.025,0.271,0.078,0.391c0.051,0.12,0.123,0.226,0.215,0.316
	c0.09,0.092,0.195,0.163,0.316,0.215C10.729,10.975,10.859,11,11,11z"/>
</svg>
