<svg id="Layer_1" data-name="Layer 1" xmlns="http://www.w3.org/2000/svg" width="16" height="16" viewBox="0 0 16 16"><defs><style>.cls-1{fill:none;}</style></defs><title>Incident_E15E</title><rect class="cls-1" width="16" height="16"/><path d="M2.62,16A2.62,2.62,0,0,1,.77,11.53l6.3-6.3A4.3,4.3,0,0,1,7,4.5,4.5,4.5,0,0,1,11.5,0a4.44,4.44,0,0,1,2.21.6l.57.32L11.21,4l.79.79,3.08-3.08.32.57A4.44,4.44,0,0,1,16,4.5,4.5,4.5,0,0,1,11.5,9a4.3,4.3,0,0,1-.73-.06l-6.3,6.3A2.61,2.61,0,0,1,2.62,16ZM11.5,1A3.47,3.47,0,0,0,8.09,5.28l.06.27L1.47,12.23a1.62,1.62,0,0,0,2.29,2.29l6.68-6.68.27.06A3.47,3.47,0,0,0,15,4.5a3.33,3.33,0,0,0-.19-1.1L12,6.21,9.79,4,12.6,1.19A3.33,3.33,0,0,0,11.5,1Z"/></svg>