<svg id="Layer_1" data-name="Layer 1" xmlns="http://www.w3.org/2000/svg" width="16" height="16" viewBox="0 0 16 16"><defs><style>.cls-1{fill:none;}</style></defs><title>Opportunity_F05F</title><rect class="cls-1" width="16" height="16"/><path d="M14,0H2V16H13a1,1,0,0,0,1-1V7.25a1.29,1.29,0,0,1,.36-.9A2.29,2.29,0,0,0,15,4.75V1A1,1,0,0,0,14,0ZM13,15H3V1h9V4.75a2.29,2.29,0,0,0,.64,1.6,1.29,1.29,0,0,1,.36.9V15ZM14,4.75a1.29,1.29,0,0,1-.36.9,2.24,2.24,0,0,0-.14.18,2.24,2.24,0,0,0-.14-.18,1.29,1.29,0,0,1-.36-.9V1h1Z"/><rect x="8" y="5" width="1" height="4"/><rect x="8" y="10" width="1" height="1"/></svg>