<svg id="Layer_1" data-name="Layer 1" xmlns="http://www.w3.org/2000/svg" width="16" height="16" viewBox="0 0 16 16"><defs><style>.cls-1{fill:none;opacity:0.2;}</style></defs><title>Team_E902</title><rect class="cls-1" width="16" height="16"/><path d="M12,14H11a3,3,0,0,0-6,0H4a4,4,0,0,1,8,0Z"/><path d="M8,11a3,3,0,1,1,3-3A3,3,0,0,1,8,11ZM8,6a2,2,0,1,0,2,2A2,2,0,0,0,8,6Z"/><path d="M6,8H5A2,2,0,0,0,1,8H0A3,3,0,0,1,6,8Z"/><path d="M3,6A2,2,0,1,1,5,4,2,2,0,0,1,3,6ZM3,3A1,1,0,1,0,4,4,1,1,0,0,0,3,3Z"/><path d="M16,8H15a2,2,0,0,0-4,0H10a3,3,0,0,1,6,0Z"/><path d="M13,6a2,2,0,1,1,2-2A2,2,0,0,1,13,6Zm0-3a1,1,0,1,0,1,1A1,1,0,0,0,13,3Z"/></svg>