<svg id="Layer_1" data-name="Layer 1" xmlns="http://www.w3.org/2000/svg" width="16" height="16" viewBox="0 0 16 16"><defs><style>.cls-1{fill:none;}</style></defs><title>InvoiceDetail_EFE9</title><rect class="cls-1" width="16" height="16"/><path d="M8,5H5V4H8ZM7,6H5V7H7ZM4,4H3V5H4ZM4,6H3V7H4Zm3,9v1H1V0H9.71L14,4.29V5H9V1H2V15ZM10,4h2.29L10,1.71Z"/><path d="M11.5,6.19,7,8.44v5.12l4.5,2.25L16,13.56V8.44Zm2.88,2.56L11.5,10.19,8.62,8.75,11.5,7.31ZM8,9.56l3,1.5v3.38l-3-1.5Zm4,4.88V11.06l3-1.5v3.38Z"/></svg>