<svg id="Layer_1" data-name="Layer 1" xmlns="http://www.w3.org/2000/svg" width="16" height="16" viewBox="0 0 16 16"><defs><style>.cls-1{fill:none;}</style></defs><title>Competitor_EE57</title><rect class="cls-1" width="16" height="16"/><rect x="7.5" y="9" width="1" height="1"/><path d="M8.5,8h-1V7.63A1.84,1.84,0,0,1,8,6.34l.76-.76A.84.84,0,0,0,9,5,1,1,0,0,0,7,5H6a2,2,0,0,1,4,0,1.84,1.84,0,0,1-.51,1.28L8.73,7a.84.84,0,0,0-.23.58Z"/><path d="M11,9.68V9a5,5,0,0,0,2-4A5,5,0,0,0,3,5H3A5,5,0,0,0,5,9v.72A6.9,6.9,0,0,0,1,16H2a5.85,5.85,0,0,1,4-5.66V8.5H6V8.44a4,4,0,1,1,4,0v1.88A5.84,5.84,0,0,1,14,16h1A6.9,6.9,0,0,0,11,9.68Z"/></svg>