<svg xmlns:dc="http://purl.org/dc/elements/1.1/" xmlns:cc="http://creativecommons.org/ns#" xmlns:rdf="http://www.w3.org/1999/02/22-rdf-syntax-ns#" xmlns:svg="http://www.w3.org/2000/svg" xmlns="http://www.w3.org/2000/svg" xmlns:sodipodi="http://sodipodi.sourceforge.net/DTD/sodipodi-0.dtd" xmlns:inkscape="http://www.inkscape.org/namespaces/inkscape" width="4.2333331mm" height="3.233911mm" viewBox="0 0 4.2333332 3.2339111" version="1.1" id="svg3719" inkscape:version="0.92.3 (2405546, 2018-03-11)" sodipodi:docname="EFCE.svg"><defs><style>.cls-1{fill:none;}</style></defs><title>CampaignActivity_EFCE</title><g inkscape:label="Layer 1" inkscape:groupmode="layer" id="layer1" transform="translate(-4.1176195,-139.77374)"><g aria-label="" style="font-style:normal;font-variant:normal;font-weight:normal;font-stretch:normal;font-size:4.23333311px;line-height:1.25;font-family:'Full MDL2 Assets';-inkscape-font-specification:'Full MDL2 Assets';letter-spacing:0px;word-spacing:0px;fill:#000000;fill-opacity:1;stroke:none;stroke-width:0.06614583" id="text3727"><path d="m 8.0863693,139.77685 q 0.018604,-0.002 0.053744,-0.002 0.03514,-0.002 0.074414,0 0.041341,0 0.076481,0.002 0.037207,0 0.059945,0 v 1.74252 l -0.2253092,-0.2253 -0.039274,0.0393 v -1.28984 l -3.7041665,0.65939 v 0.52916 q 0.014469,0 0.022738,0.002 l 3.2060057,0.57258 -0.2273763,0.22737 -0.8971029,-0.15916 q -0.020671,0.11782 -0.080615,0.21911 -0.057878,0.10128 -0.144694,0.17363 -0.086816,0.0724 -0.1963704,0.11369 -0.107487,0.0413 -0.2273763,0.0413 -0.1364258,0 -0.2583822,-0.0517 -0.1198893,-0.0517 -0.2108398,-0.14056 -0.088883,-0.0909 -0.1405599,-0.21084 -0.051676,-0.12195 -0.051676,-0.25838 0,-0.0579 0.012402,-0.11782 l -0.5457031,-0.0972 q -0.039274,-0.008 -0.072347,-0.0145 -0.033073,-0.006 -0.064079,-0.0124 -0.031006,-0.006 -0.064079,-0.0103 -0.033073,-0.006 -0.072347,-0.0124 -0.024805,-0.002 -0.057878,-0.002 -0.031006,-0.002 -0.066146,0 -0.03514,0 -0.07028,0.002 -0.033073,0 -0.057878,0 v -1.05834 q 0.020671,0 0.055811,0.002 0.03514,0 0.072347,0.002 0.039274,0 0.072347,0 0.033073,0 0.051676,-0.004 z m -2.639632,1.91202 q -0.0062,0.0372 -0.0062,0.0724 0,0.0827 0.031006,0.15503 0.031006,0.0724 0.084749,0.12609 0.053744,0.0537 0.1260905,0.0848 0.072347,0.031 0.1550293,0.031 0.072347,0 0.1384928,-0.0248 0.066146,-0.0248 0.1178223,-0.0682 0.051676,-0.0455 0.086816,-0.10542 0.03514,-0.06 0.047542,-0.13229 z m 2.6789061,-0.0207 0.1860351,0.18604 -1.1513508,1.15342 -0.5560384,-0.55811 0.1860352,-0.18603 0.3700032,0.36793 z" style="stroke-width:0.06614583" id="path3944" /></g></g></svg>