<svg id="Layer_1" data-name="Layer 1" xmlns="http://www.w3.org/2000/svg" width="16" height="16" viewBox="0 0 16 16"><defs><style>.cls-1{fill:none;}</style></defs><title>ReferencePanelInvoices_16</title><rect class="cls-1" width="16" height="16"/><path d="M15.45,13A1.3,1.3,0,0,0,16,12c0-.56-.42-1-1.2-1.4A1.12,1.12,0,0,0,15,10c0-2.63-8.95-2.63-8.95,0,0,.59.42,1,1.13,1.38A1.24,1.24,0,0,0,7,12a1.3,1.3,0,0,0,.56,1,1.33,1.33,0,0,0-.51,1c0,1.31,2.21,2,4.45,2s4.5-.69,4.5-2A1.3,1.3,0,0,0,15.45,13ZM7,10c0-.29,1.23-1,3.5-1s3.5.71,3.5,1-1.23,1-3.5,1S7,10.29,7,10Zm3.5,2a8,8,0,0,0,3.42-.67c.81.26,1.08.56,1.08.67,0,.29-1.23,1-3.5,1S8,12.29,8,12c0,0,0-.15.21-.26A9.81,9.81,0,0,0,10.5,12Zm1,3C9.23,15,8,14.29,8,14a1,1,0,0,1,.57-.47A8.93,8.93,0,0,0,11.5,14a8.91,8.91,0,0,0,2.95-.46c.39.19.55.38.55.46C15,14.29,13.77,15,11.5,15Z"/><rect x="3" y="4" width="1" height="1"/><rect x="3" y="6" width="1" height="1"/><rect x="5" y="6" width="3" height="1"/><rect x="3" y="8" width="1" height="1"/><path d="M9.71,0H1V16H6.77A2.68,2.68,0,0,1,6,15H2V1H9V5h4V7h1V4.29ZM10,1.71,12.29,4H10Z"/><rect x="5" y="4" width="3" height="1"/></svg>