<svg width="60" height="64" viewBox="0 0 60 64" version="1.1" xmlns="http://www.w3.org/2000/svg" xmlns:xlink="http://www.w3.org/1999/xlink">
<g id="Canvas" fill="none">
<g id="&#239;&#129;&#128;">
<path d="M 24 40C 24 41.7083 23.6458 43.3438 22.9375 44.9062C 22.25 46.4479 21.2708 47.7917 20 48.9375L 20 63.25L 12 59.25L 4 63.25L 4 48.9375C 2.72917 47.7917 1.73958 46.4479 1.03125 44.9062C 0.34375 43.3438 0 41.7083 0 40C 0 38.3542 0.3125 36.8021 0.9375 35.3438C 1.5625 33.8854 2.41667 32.6146 3.5 31.5312C 4.60417 30.4271 5.875 29.5625 7.3125 28.9375C 8.77083 28.3125 10.3333 28 12 28C 13.6458 28 15.1979 28.3125 16.6562 28.9375C 18.1146 29.5625 19.3854 30.4271 20.4688 31.5312C 21.5729 32.6146 22.4375 33.8854 23.0625 35.3438C 23.6875 36.8021 24 38.3542 24 40ZM 16 51.3125C 14.6667 51.7708 13.3333 52 12 52C 10.6667 52 9.33333 51.7708 8 51.3125L 8 56.75L 12 54.75L 16 56.75L 16 51.3125ZM 12 48C 13.1042 48 14.1354 47.7917 15.0938 47.375C 16.0729 46.9583 16.9271 46.3854 17.6562 45.6562C 18.3854 44.9271 18.9583 44.0833 19.375 43.125C 19.7917 42.1458 20 41.1042 20 40C 20 38.8958 19.7917 37.8646 19.375 36.9062C 18.9583 35.9271 18.3854 35.0729 17.6562 34.3438C 16.9271 33.6146 16.0729 33.0417 15.0938 32.625C 14.1354 32.2083 13.1042 32 12 32C 10.8958 32 9.85417 32.2083 8.875 32.625C 7.91667 33.0417 7.07292 33.6146 6.34375 34.3438C 5.61458 35.0729 5.04167 35.9271 4.625 36.9062C 4.20833 37.8646 4 38.8958 4 40C 4 41.1042 4.20833 42.1458 4.625 43.125C 5.04167 44.0833 5.61458 44.9271 6.34375 45.6562C 7.07292 46.3854 7.91667 46.9583 8.875 47.375C 9.85417 47.7917 10.8958 48 12 48ZM 60 25.1562L 60 64L 24 64L 24 60L 56 60L 56 28L 40 28L 40 12L 16 12L 16 24.5312C 14.6458 24.1771 13.3125 24 12 24L 12 8L 42.8438 8L 48 13.1562L 48 4L 8 4L 8 24.5625C 6.60417 24.9375 5.27083 25.4896 4 26.2188L 4 0L 52 0L 52 17.1562L 60 25.1562ZM 53.1562 24L 44 14.8438L 44 24L 53.1562 24Z" fill="#333333"/>
</g>
</g>
</svg>

