<svg xmlns="http://www.w3.org/2000/svg" viewBox="0 0 175 30" fill="#FFF"><path d="M163.4 15.7v-2.8h-13.3v2.8h1v-1.8h11.2v1.8H163.4z"/><path d="M163.9 11.7v-0.8h-4.4V9.7h-1.1v1.1H155V9.7h-1v1.1h-4.4v0.8h4.4v1H155v-1h3.4v1h1.1v-1H163.9z"/><path d="M153.5 18.3h6.5v0.3h1.1v-3.6H152.4v3.6h1.1V18.3zM153.5 17.5v-1.5h6.5v1.5H153.5z"/><path d="M161.2 23.2v0.8h1.1v-4.4h-10.9v4.4h1.1v-0.8H161.2zM161.2 20.4v1.9h-8.6v-1.9H161.2z"/><path d="M148 11.7v-1.1h-8.1v1.1H148z"/><path d="M149 15.4v-1.1h-10.1v1.1H142c-0.6 1.3-1.3 2.4-1.9 3.4 -0.3 0.3-0.5 0.7-0.8 1l0.5 1c0.3 0 0.7-0.2 1-0.2 1.3-0.2 3.1-0.3 6-0.5 0.2 0.3 0.3 0.6 0.7 1.1l1-0.8c-0.8-1.3-1.8-2.8-2.9-4.1l-0.8 0.5c0.5 0.8 0.8 1.5 1.5 2.3 -1.9 0.2-3.6 0.2-5 0.3 0.8-1.1 1.6-2.6 2.4-4.1H149z"/><path d="M136.3 9.7l-0.8 0.8c0.7 0.8 1.3 1.8 2.1 2.8l1-0.8C137.8 11.5 137.1 10.7 136.3 9.7z"/><path d="M137.1 21.7c0.8 1.1 1.9 1.6 3.4 1.6l8.1 0.2c0.2-0.5 0.3-0.8 0.5-1.3l-8.3 0.2c-1.3 0-2.3-0.5-3.1-1.5v-6.2h-2.9v1.1h1.8v4.9c-1.3 1.1-1.9 1.6-1.9 1.6l0.7 1.3C136 22.9 136.5 22.2 137.1 21.7z"/><path d="M132.3 7.3c-0.5-0.3-0.8-0.5-1.5-0.5l0 0c-0.5 0-1 0.2-1.3 0.5C129.2 7.6 129 8.1 129 8.6c0 0.5 0.2 1.1 0.5 1.3 0.3 0.3 0.8 0.7 1.3 0.7l0 0c0.7 0 1-0.3 1.5-0.6 0.2-0.2 0.5-0.8 0.5-1.3C132.7 8.1 132.4 7.6 132.3 7.3zM130.8 7.1c0.5 0 0.8 0.2 1.1 0.3 0.3 0.3 0.5 0.7 0.5 1.1 0 0.5-0.2 0.8-0.5 1.1 -0.3 0.3-0.6 0.5-1.1 0.5l0 0c-0.3 0-0.8-0.2-1-0.5 -0.3-0.3-0.6-0.6-0.6-1.1 0-0.5 0.3-0.8 0.7-1.1C130 7.3 130.5 7.1 130.8 7.1 130.8 6.9 130.8 6.9 130.8 7.1z"/><path d="M130.9 8.9c0.3-0.2 0.5-0.3 0.5-0.6 0-0.2 0-0.3-0.2-0.5 -0.2-0.2-0.3-0.2-0.5-0.2h-0.6v2.1h0.3V8.9h0.2c0.2 0 0.2 0 0.2 0s0.2 0.2 0.3 0.2l0.3 0.7h0.2l-0.3-0.6c0-0.2-0.2-0.2-0.2-0.2S131.1 8.9 130.9 8.9zM131.3 8.2l-0.2 0.2c-0.2 0.2-0.3 0.2-0.3 0.2h-0.3V7.9h0.3c0-0.2 0.3 0 0.3 0C131.1 8.1 131.3 8.1 131.3 8.2z"/><path d="M122.7 7.4c0 0.2-0.2 0.5-0.5 1 -0.5 0.5-0.8 1-1.3 1.5 0.2 0.2 0.7 0.2 1 0.5h-4.1l0.7-0.5c0.2 0 0.7-0.2 1.3-0.3l-0.3-0.6c0 0 0-0.3-0.2-0.8 -0.3-0.5-0.5-0.8-0.6-1.3 -0.5 0.2-1.3 0.5-2.4 0.8 0.3 0.7 0.7 1.1 0.7 1.5 0.2 0.3 0.2 0.8 0.3 1.3l-2.8-0.2 -0.3 2h4.4l-0.3 1.3c-0.2 0.3-0.3 0.8-0.5 1.6l-4.6-0.2 -0.5 2.1h4.4l-0.3 0.6c-0.2 0.5-0.5 1.1-1.1 1.8 -0.5 0.6-1 1.1-1.8 1.6 -0.8 0.5-1.6 0.8-2.8 1l0.5 0.8c0.2 0.2 0.3 0.7 0.7 1.1 1.6-0.6 3.1-1.5 3.7-2.1 0.8-0.6 1.5-1.1 1.8-1.5 0.2-0.3 0.5-0.8 0.8-1.3l0.3 1.1c0.2 0.5 0.3 1 0.7 1.6 0.5 0.6 1.5 1.5 2.8 2.4l0.5-0.5c0-0.2 0.7-0.6 1.6-1.5 -0.5-0.2-1.1-0.5-1.8-0.8 -0.6-0.5-1.1-1.1-1.5-2.1 -0.3-1-0.5-1.6-0.5-1.8s0-0.3-0.2-0.6l4.6 0.2 0.5-2.1h-5.2c0.3-1 0.7-1.9 0.8-2.9l4.6 0.2 0.3-1.9h-2.6c0.8-1.1 1.6-1.9 2.1-2.6l-0.6-0.2c-0.5-0.2-0.8-0.3-1.6-0.8L122.7 7.4z"/><path d="M113.7 9.2l1.3 0.2 0.3-1.9 -9.6-0.2 -0.3 1.9h1.1l-2.3 10.1 -1.1 0.2v0.8c0 0.2 0 0.6 0 1.3l0.8-0.2c0.2 0 1.8-0.3 4.9-0.8l-1 3.4h2.6l0.8-3.9c0.5-0.2 1-0.3 1.5-0.3l0.2-0.5c0-0.3 0.2-0.6 0.3-0.8 0-0.3 0-0.5 0.2-0.8 -0.5 0.3-1 0.3-1.6 0.5L113.7 9.2zM111 11.3h-2.4l0.5-2.1h2.4L111 11.3zM110.5 13l-0.3 1.8h-2.4l0.5-1.8H110.5zM109.3 18.6c-0.8 0-1.6 0.2-2.6 0.3l0.6-2.4h2.3L109.3 18.6z"/><path d="M98.4 10.5l0.7-2.3L81.1 8.1l-0.6 2.4 5.4-0.2c-0.8 1.1-1.5 2.1-1.9 3.1 -0.6 0.8-1.5 2-2.4 3.6l-1.1 1.6h8.8l-1 2.1 -11.4-0.3 -0.6 2.4L96.5 23l0.7-2.4 -6 0.2 2.3-5c0.3-0.3 0.7-1 1-1.8l1-1.8H87.4l1.1-1.8L98.4 10.5zM84.6 16.5l1.5-2.3h5L90 16.5H84.6z"/><path d="M70.5 10l-1 3.4 -7-0.2 -2.3 8.6c0 0.3 0 0.6 0.2 0.8 0.2 0.2 0.7 0.3 1.3 0.5 0.7 0.2 2.3 0.2 4.6 0.2 0.8 0.2 1.6 0.2 2.1 0 0.6 0 1-0.2 1.3-0.2 0.3-0.3 0.7-0.5 1-0.8 0.2-0.3 0.5-0.6 0.8-1 0.2-0.3 0.5-0.8 0.7-1.1 -0.6-0.3-1.1-0.5-1.5-0.6 -0.3 0-0.5-0.2-0.8-0.5l-0.3 0.7c0 0.2-0.2 0.3-0.3 0.7 -0.3 0.3-0.5 0.5-0.6 0.7 -0.2 0-0.3 0.2-0.5 0.2 -0.3 0.2-0.6 0.2-1.1 0.2 -0.3 0-0.8 0-1.5 0 -0.6 0-1.1 0-1.5-0.2 -0.3 0-0.5 0-0.6-0.2 -0.2 0-0.2-0.2 0-0.3l1.5-5.5 7 0.2 1.9-7.5L63.5 7.8l-0.5 2.3H70.5z"/><path d="M60.3 9.4l-0.6 0.7c-0.3 0.3-1 0.8-2.1 1.8h-2.1c1.6-1.3 3.3-2.8 4.9-4.2 -0.8-0.2-1.6-0.5-2.4-1 -0.6 0.8-1.3 1.5-1.6 1.9 -0.5 0.3-1 0.8-1.6 1.5 -0.8 0.7-1.3 1-1.5 1.1 -0.3 0.2-0.6 0.3-0.8 0.5v0.7c0 0.2 0 0.3-0.2 0.7 0 0.3 0 0.5-0.2 0.8 1 0 2.1 0 3.3 0 -0.6 0.5-1.3 1-1.9 1.5 -0.6 0.3-1.3 0.8-1.9 1.1l0.2 0.7c0 0.2 0 0.5 0.2 1.3 3.4-0.5 6-0.8 8-0.8l0.3-0.6c0-0.2 0.3-0.6 0.8-1.5 -1.6 0.2-3.4 0.3-5.4 0.6l2.9-2.3c0.5-0.5 1.8-1.5 3.9-3.1l-0.6-0.2C61.4 10.4 60.9 10 60.3 9.4z"/><path d="M46.8 14.3l0.7-2.4h-4.1l1.3-4.2h-3.1l-1.1 4.2h-2.8l1.3-4.2h-3.1l-1 4.2h-2.4l1.3-4.4 -3.1-0.2 -1.1 4.5 -3.1-0.2 -0.6 2.3H28.9l-2.4 9.1 17.2 0.2 0.7-2.3 -14.3-0.2 1.8-6.8h2.4l-1.5 5.4 8.6 0.2 1.5-5.4L46.8 14.3zM37.2 13.9l2.6 0.2 -0.8 3.1h-2.6L37.2 13.9z"/><path d="M50.4 21.7c0 0 0.2 0.5 0.3 1.3l1.3-0.3c1-0.3 3.4-0.8 6.8-1.6l0.2-0.5c0-0.2 0.2-0.5 0.3-0.6 0-0.3 0.2-0.6 0.5-1 -3.2 0.8-6.5 1.5-9.7 1.8L50.4 21.7z"/><path d="M16.1 9.7h-1.3v2.6H9.4v11.4h1.1v-0.8h9.8v0.8h1.1V12.3h-5.4V9.7zM20.3 13.4v3.6h-4.2v-3.6H20.3zM10.5 17v-3.6h4.2v3.6H10.5zM16.1 21.7v-3.6h4.2v3.6H16.1zM14.8 21.7h-4.2v-3.6h4.2V21.7z"/></svg>