<svg width="16" height="16" viewBox="0 0 16 16" fill="none" xmlns="http://www.w3.org/2000/svg">
<rect width="16" height="16" fill="black" fill-opacity="0"/>
<path d="M9.63623 1H2V15H9.02686L7.63232 13.6001L10.0991 11.1333L11.4985 12.5249L13 11.0269V4.36426L9.63623 1Z" fill="white"/>
<path d="M9 5V1H2V15H9V16H1V0H9.71094L14 4.28906V10L13 11V5H9ZM10 4H12.2891L10 1.71094V4Z" fill="#3A3A3A"/>
<path d="M8 5H5V4H8V5ZM8 7H5V6H8V7ZM5 8H8V9H5V8ZM4 5H3V4H4V5ZM4 7H3V6H4V7ZM3 8H4V9H3V8Z" fill="#777777"/>
<path d="M15.8516 11.3516L11.5 15.7109L9.39844 13.6016L10.1016 12.8984L11.5 14.2891L15.1484 10.6484L15.8516 11.3516Z" fill="#25A954"/>
</svg>
