<svg width="593" height="689" viewBox="0 0 593 689" fill="none" xmlns="http://www.w3.org/2000/svg">
<path d="M592 433.92L546.462 379.057V199.147L318.769 313.149V677.956L296 689L0 541.154V147.846L296 0L592 147.846V433.92ZM45.5385 512.653L273.231 627.011V313.149L45.5385 199.147V512.653ZM73.6442 162.097L296 273.605L381.385 230.854L173.615 111.865L73.6442 162.097ZM222.712 87.2828L430.481 206.272L518.356 162.097L296 50.5884L222.712 87.2828Z" fill="#3A3A3A"/>
<path d="M501.8 520.8H593V566.2H501.8V657H456.2V566.2H365V520.8H456.2V430H501.8V520.8Z" fill="#3A3A3A"/>
</svg>
