<svg width="16" height="16" viewBox="0 0 16 16" fill="none" xmlns="http://www.w3.org/2000/svg">
<rect width="16" height="16" fill="black" fill-opacity="0"/>
<path d="M3 13H2V15H10V14H3V13Z" fill="#C8C6C4"/>
<path d="M4 3V13H10V12H12V5.5L9.5 3H4Z" fill="white"/>
<path d="M2 15V13H3V12H1V16H12V15H2Z" fill="#777777"/>
<path fill-rule="evenodd" clip-rule="evenodd" d="M3 2H9.71094L13 5.28906V10H12V6H9V3H4V13H10V14H3V2ZM10 3.71094V5H11.2891L10 3.71094Z" fill="#3A3A3A"/>
<path d="M7 4V5H5V4H7Z" fill="#777777"/>
<path d="M7 6V7H5V6H7Z" fill="#777777"/>
<path d="M5 8V9H7V8H5Z" fill="#777777"/>
<path d="M14 13H16V14H14V16H13V14H11V13H13V11H14V13Z" fill="#25A954"/>
</svg>
