<svg fill="none" xmlns="http://www.w3.org/2000/svg" viewBox="0 0 24 24"><path fill-rule="evenodd" clip-rule="evenodd" d="M18.738 10.285C18.114 7.266 15.337 5 12 5 9.35 5 7.05 6.435 5.904 8.535 3.145 8.815 1 11.046 1 13.75 1 16.646 3.466 19 6.5 19h11.917C20.947 19 23 17.04 23 14.625c0-2.31-1.88-4.182-4.262-4.34z" fill="#8E8E93"/><mask id="a" maskUnits="userSpaceOnUse" x="1" y="5" width="22" height="14"><path fill-rule="evenodd" clip-rule="evenodd" d="M18.738 10.285C18.114 7.266 15.337 5 12 5 9.35 5 7.05 6.435 5.904 8.535 3.145 8.815 1 11.046 1 13.75 1 16.646 3.466 19 6.5 19h11.917C20.947 19 23 17.04 23 14.625c0-2.31-1.88-4.182-4.262-4.34z" fill="#fff"/></mask></svg>