<svg width="16" height="16" viewBox="0 0 16 16" fill="none" xmlns="http://www.w3.org/2000/svg">
<rect width="16" height="16" fill="black" fill-opacity="0"/>
<path d="M8 0C8.73438 0 9.4401 0.0963542 10.1172 0.289062C10.7995 0.476562 11.4375 0.744792 12.0312 1.09375C12.625 1.44271 13.1641 1.86198 13.6484 2.35156C14.138 2.83594 14.5573 3.375 14.9062 3.96875C15.2552 4.5625 15.5234 5.20052 15.7109 5.88281C15.9036 6.5599 16 7.26562 16 8C16 8.73438 15.9036 9.44271 15.7109 10.125C15.5234 10.8021 15.2552 11.4375 14.9062 12.0312C14.5573 12.625 14.138 13.1667 13.6484 13.6562C13.1641 14.1406 12.625 14.5573 12.0312 14.9062C11.4375 15.2552 10.7995 15.526 10.1172 15.7188C9.4401 15.9062 8.73438 16 8 16C7.26562 16 6.55729 15.9062 5.875 15.7188C5.19792 15.526 4.5625 15.2552 3.96875 14.9062C3.375 14.5573 2.83333 14.1406 2.34375 13.6562C1.85938 13.1667 1.44271 12.625 1.09375 12.0312C0.744792 11.4375 0.473958 10.8021 0.28125 10.125C0.09375 9.44271 0 8.73438 0 8C0 7.26562 0.09375 6.5599 0.28125 5.88281C0.473958 5.20052 0.744792 4.5625 1.09375 3.96875C1.44271 3.375 1.85938 2.83594 2.34375 2.35156C2.83333 1.86198 3.375 1.44271 3.96875 1.09375C4.5625 0.744792 5.19792 0.476562 5.875 0.289062C6.55729 0.0963542 7.26562 0 8 0ZM8 15C8.85417 15 9.66927 14.8542 10.4453 14.5625C11.2266 14.2708 11.9401 13.8464 12.5859 13.2891L2.71094 3.41406C2.15365 4.0599 1.72917 4.77344 1.4375 5.55469C1.14583 6.33073 1 7.14583 1 8C1 8.64583 1.08333 9.26823 1.25 9.86719C1.41667 10.4609 1.65104 11.0182 1.95312 11.5391C2.26042 12.0547 2.625 12.526 3.04688 12.9531C3.47396 13.375 3.94531 13.7396 4.46094 14.0469C4.98177 14.349 5.53906 14.5833 6.13281 14.75C6.73177 14.9167 7.35417 15 8 15ZM13.2891 12.5859C13.8464 11.9401 14.2708 11.2292 14.5625 10.4531C14.8542 9.67188 15 8.85417 15 8C15 7.35417 14.9167 6.73438 14.75 6.14062C14.5833 5.54167 14.3464 4.98438 14.0391 4.46875C13.737 3.94792 13.3724 3.47656 12.9453 3.05469C12.5234 2.6276 12.0521 2.26302 11.5312 1.96094C11.0156 1.65365 10.4583 1.41667 9.85938 1.25C9.26562 1.08333 8.64583 1 8 1C7.14583 1 6.32812 1.14583 5.54688 1.4375C4.77083 1.72917 4.0599 2.15365 3.41406 2.71094L13.2891 12.5859Z" fill="#EC4E4F"/>
</svg>
