<svg width="16" height="16" viewBox="0 0 16 16" fill="none" xmlns="http://www.w3.org/2000/svg">
<rect width="16" height="16" fill="black" fill-opacity="0"/>
<path d="M15 14V5H1V14H15Z" fill="white"/>
<path d="M1 2V4H15V2H13V3H12V2H4V3H3V2H1Z" fill="#85BFEA"/>
<path d="M16 1V15H0V1H3V0H4V1H12V0H13V1H16ZM1 2V4H15V2H13V3H12V2H4V3H3V2H1ZM15 14V5H1V14H15Z" fill="#3A3A3A"/>
<path d="M7 6H6V7H7V6Z" fill="#777777"/>
<path d="M10 12H9V13H10V12Z" fill="#777777"/>
<path d="M13 6H12V7H13V6Z" fill="#777777"/>
<path d="M10 6H9V7H10V6Z" fill="#777777"/>
<path d="M7 8H6V9H7V8Z" fill="#777777"/>
<path d="M4 8H3V9H4V8Z" fill="#777777"/>
<path d="M13 8H12V9H13V8Z" fill="#777777"/>
<path d="M10 8H9V9H10V8Z" fill="#777777"/>
<path d="M7 10H6V11H7V10Z" fill="#777777"/>
<path d="M4 10H3V11H4V10Z" fill="#777777"/>
<path d="M13 10H12V11H13V10Z" fill="#777777"/>
<path d="M10 10H9V11H10V10Z" fill="#777777"/>
<path d="M7 12H6V13H7V12Z" fill="#777777"/>
<path d="M4 12H3V13H4V12Z" fill="#777777"/>
</svg>
