<svg width="17" height="17" viewBox="0 0 17 17" fill="none" xmlns="http://www.w3.org/2000/svg">
<rect width="16" height="16" fill="black" fill-opacity="0" transform="translate(1)"/>
<path d="M9.85156 14.9844C10.1172 14.9844 10.3385 14.9609 10.5156 14.9141C10.6927 14.8672 10.8516 14.7969 10.9922 14.7031C11.1328 14.6094 11.2682 14.4948 11.3984 14.3594C11.5339 14.2188 11.6927 14.0573 11.875 13.875C11.9531 13.7969 11.9922 13.7057 11.9922 13.6016C11.9922 13.5026 11.9531 13.4141 11.875 13.3359L10.6172 12.0703C10.5443 11.9974 10.4531 11.9609 10.3438 11.9609C10.2188 11.9609 10.1016 12.0208 9.99219 12.1406C9.88281 12.2604 9.75781 12.3932 9.61719 12.5391C9.47656 12.6849 9.3125 12.8177 9.125 12.9375C8.94271 13.0573 8.71615 13.1172 8.44531 13.1172C8.26302 13.1172 8.08594 13.0833 7.91406 13.0156C7.74219 12.9427 7.58854 12.8385 7.45312 12.7031L4.29688 9.54688C4.16146 9.41146 4.05729 9.25781 3.98438 9.08594C3.91667 8.91406 3.88281 8.73698 3.88281 8.55469C3.88281 8.28385 3.94271 8.05729 4.0625 7.875C4.18229 7.6875 4.3151 7.52344 4.46094 7.38281C4.60677 7.24219 4.73958 7.11719 4.85938 7.00781C4.97917 6.89844 5.03906 6.78125 5.03906 6.65625C5.03906 6.54688 5.0026 6.45573 4.92969 6.38281L3.66406 5.125C3.58594 5.04688 3.4974 5.00781 3.39844 5.00781C3.29427 5.00781 3.20312 5.04688 3.125 5.125C2.94271 5.30729 2.78125 5.46615 2.64062 5.60156C2.50521 5.73177 2.39062 5.86719 2.29688 6.00781C2.20312 6.14844 2.13281 6.30729 2.08594 6.48438C2.03906 6.66146 2.01562 6.88281 2.01562 7.14844C2.01562 7.69531 2.13281 8.26823 2.36719 8.86719C2.60677 9.46094 2.92448 10.0495 3.32031 10.6328C3.72135 11.2109 4.1849 11.763 4.71094 12.2891C5.23698 12.8151 5.78906 13.2786 6.36719 13.6797C6.95052 14.0755 7.53906 14.3932 8.13281 14.6328C8.73177 14.8672 9.30469 14.9844 9.85156 14.9844Z" fill="white"/>
<path d="M10.3438 10.9375C10.5312 10.9375 10.7083 10.974 10.875 11.0469C11.0469 11.1146 11.2005 11.2161 11.3359 11.3516L12.6016 12.6094C12.737 12.7396 12.8385 12.8932 12.9062 13.0703C12.974 13.2422 13.0078 13.4193 13.0078 13.6016C13.0078 13.7839 12.9714 13.9609 12.8984 14.1328C12.8307 14.3047 12.7318 14.4583 12.6016 14.5938C12.3724 14.8281 12.1641 15.0339 11.9766 15.2109C11.7891 15.3828 11.5964 15.5286 11.3984 15.6484C11.2005 15.7682 10.9792 15.8594 10.7344 15.9219C10.4948 15.9792 10.2031 16.0078 9.85938 16.0078C9.38021 16.0078 8.88542 15.9349 8.375 15.7891C7.86458 15.638 7.35677 15.4297 6.85156 15.1641C6.34635 14.8984 5.84896 14.5833 5.35938 14.2188C4.875 13.849 4.41667 13.4479 3.98438 13.0156C3.55208 12.5781 3.15104 12.1172 2.78125 11.6328C2.41667 11.1432 2.10156 10.6458 1.83594 10.1406C1.57031 9.63542 1.36198 9.1276 1.21094 8.61719C1.0651 8.10677 0.992188 7.61198 0.992188 7.13281C0.992188 6.79427 1.02083 6.50521 1.07812 6.26562C1.14062 6.02083 1.23177 5.79948 1.35156 5.60156C1.47135 5.39844 1.61979 5.20573 1.79688 5.02344C1.97396 4.83594 2.17708 4.6276 2.40625 4.39844C2.54167 4.26823 2.69531 4.16927 2.86719 4.10156C3.03906 4.02865 3.21615 3.99219 3.39844 3.99219C3.58073 3.99219 3.75781 4.02604 3.92969 4.09375C4.10677 4.16146 4.26042 4.26302 4.39062 4.39844L5.64844 5.66406C5.78385 5.79948 5.88542 5.95312 5.95312 6.125C6.02604 6.29167 6.0625 6.46875 6.0625 6.65625C6.0625 6.92188 6.0026 7.14844 5.88281 7.33594C5.76302 7.51823 5.63021 7.67969 5.48438 7.82031C5.33854 7.96094 5.20573 8.08854 5.08594 8.20312C4.96615 8.31771 4.90625 8.4349 4.90625 8.55469C4.90625 8.65885 4.94271 8.7474 5.01562 8.82031L8.17969 11.9844C8.2526 12.0573 8.34115 12.0938 8.44531 12.0938C8.5651 12.0938 8.68229 12.0339 8.79688 11.9141C8.91146 11.7943 9.03906 11.6615 9.17969 11.5156C9.32031 11.3698 9.48177 11.237 9.66406 11.1172C9.85156 10.9974 10.0781 10.9375 10.3438 10.9375ZM9.85156 14.9844C10.1172 14.9844 10.3385 14.9609 10.5156 14.9141C10.6927 14.8672 10.8516 14.7969 10.9922 14.7031C11.1328 14.6094 11.2682 14.4948 11.3984 14.3594C11.5339 14.2188 11.6927 14.0573 11.875 13.875C11.9531 13.7969 11.9922 13.7057 11.9922 13.6016C11.9922 13.5026 11.9531 13.4141 11.875 13.3359L10.6172 12.0703C10.5443 11.9974 10.4531 11.9609 10.3438 11.9609C10.2188 11.9609 10.1016 12.0208 9.99219 12.1406C9.88281 12.2604 9.75781 12.3932 9.61719 12.5391C9.47656 12.6849 9.3125 12.8177 9.125 12.9375C8.94271 13.0573 8.71615 13.1172 8.44531 13.1172C8.26302 13.1172 8.08594 13.0833 7.91406 13.0156C7.74219 12.9427 7.58854 12.8385 7.45312 12.7031L4.29688 9.54688C4.16146 9.41146 4.05729 9.25781 3.98438 9.08594C3.91667 8.91406 3.88281 8.73698 3.88281 8.55469C3.88281 8.28385 3.94271 8.05729 4.0625 7.875C4.18229 7.6875 4.3151 7.52344 4.46094 7.38281C4.60677 7.24219 4.73958 7.11719 4.85938 7.00781C4.97917 6.89844 5.03906 6.78125 5.03906 6.65625C5.03906 6.54688 5.0026 6.45573 4.92969 6.38281L3.66406 5.125C3.58594 5.04688 3.4974 5.00781 3.39844 5.00781C3.29427 5.00781 3.20312 5.04688 3.125 5.125C2.94271 5.30729 2.78125 5.46615 2.64062 5.60156C2.50521 5.73177 2.39062 5.86719 2.29688 6.00781C2.20312 6.14844 2.13281 6.30729 2.08594 6.48438C2.03906 6.66146 2.01562 6.88281 2.01562 7.14844C2.01562 7.69531 2.13281 8.26823 2.36719 8.86719C2.60677 9.46094 2.92448 10.0495 3.32031 10.6328C3.72135 11.2109 4.1849 11.763 4.71094 12.2891C5.23698 12.8151 5.78906 13.2786 6.36719 13.6797C6.95052 14.0755 7.53906 14.3932 8.13281 14.6328C8.73177 14.8672 9.30469 14.9844 9.85156 14.9844Z" fill="#3A3A3A"/>
<path d="M12.5 0C13.1198 0 13.7031 0.119792 14.25 0.359375C14.7969 0.59375 15.2734 0.914062 15.6797 1.32031C16.0859 1.72656 16.4062 2.20312 16.6406 2.75C16.8802 3.29688 17 3.88021 17 4.5C17 5.11979 16.8802 5.70312 16.6406 6.25C16.4062 6.79688 16.0859 7.27344 15.6797 7.67969C15.2734 8.08594 14.7969 8.40885 14.25 8.64844C13.7031 8.88281 13.1198 9 12.5 9C11.8802 9 11.2969 8.88281 10.75 8.64844C10.2031 8.40885 9.72656 8.08594 9.32031 7.67969C8.91406 7.27344 8.59115 6.79688 8.35156 6.25C8.11719 5.70312 8 5.11979 8 4.5C8 3.88021 8.11719 3.29688 8.35156 2.75C8.59115 2.20312 8.91406 1.72656 9.32031 1.32031C9.72656 0.914062 10.2031 0.59375 10.75 0.359375C11.2969 0.119792 11.8802 0 12.5 0ZM9 4.5C9 4.98438 9.09115 5.4401 9.27344 5.86719C9.45573 6.28906 9.70573 6.65885 10.0234 6.97656C10.3411 7.29427 10.7109 7.54427 11.1328 7.72656C11.5599 7.90885 12.0156 8 12.5 8C12.8802 8 13.2474 7.94271 13.6016 7.82812C13.9609 7.70833 14.2917 7.53385 14.5938 7.30469L9.69531 2.40625C9.46615 2.70833 9.29167 3.03906 9.17188 3.39844C9.05729 3.7526 9 4.11979 9 4.5ZM15.3047 6.59375C15.5339 6.29167 15.7057 5.96354 15.8203 5.60938C15.9401 5.25 16 4.88021 16 4.5C16 4.01562 15.9089 3.5625 15.7266 3.14062C15.5443 2.71354 15.2943 2.34115 14.9766 2.02344C14.6589 1.70573 14.2865 1.45573 13.8594 1.27344C13.4375 1.09115 12.9844 1 12.5 1C12.1198 1 11.75 1.0599 11.3906 1.17969C11.0365 1.29427 10.7083 1.46615 10.4062 1.69531L15.3047 6.59375Z" fill="#EC4E4F"/>
</svg>
