<svg width="16" height="16" viewBox="0 0 16 16" fill="none" xmlns="http://www.w3.org/2000/svg">
<rect width="16" height="16" fill="black" fill-opacity="0"/>
<path d="M10.3828 15C10.7005 15 10.9661 14.9714 11.1797 14.9141C11.3932 14.8516 11.5859 14.7656 11.7578 14.6562C11.9297 14.5417 12.0964 14.401 12.2578 14.2344C12.4245 14.0677 12.6172 13.875 12.8359 13.6562C12.9453 13.5469 13 13.4167 13 13.2656C13 13.1094 12.9453 12.9766 12.8359 12.8672L11.3438 11.375C11.2344 11.2656 11.1016 11.2109 10.9453 11.2109C10.8359 11.2109 10.7318 11.2448 10.6328 11.3125C10.5391 11.3802 10.4427 11.4661 10.3438 11.5703C10.25 11.6693 10.1484 11.7786 10.0391 11.8984C9.9349 12.013 9.81771 12.1224 9.6875 12.2266C9.55729 12.3255 9.41146 12.4089 9.25 12.4766C9.09375 12.5443 8.91406 12.5781 8.71094 12.5781C8.5026 12.5781 8.30208 12.5391 8.10938 12.4609C7.92188 12.3776 7.75521 12.263 7.60938 12.1172L3.88281 8.39062C3.73698 8.24479 3.6224 8.07812 3.53906 7.89062C3.46094 7.69792 3.42188 7.4974 3.42188 7.28906C3.42188 7.08594 3.45573 6.90625 3.52344 6.75C3.59115 6.58854 3.67448 6.44271 3.77344 6.3125C3.8776 6.18229 3.98698 6.0651 4.10156 5.96094C4.22135 5.85156 4.33073 5.7474 4.42969 5.64844C4.53385 5.54948 4.61979 5.45312 4.6875 5.35938C4.75521 5.26042 4.78906 5.15625 4.78906 5.04688C4.78906 4.89583 4.73438 4.76562 4.625 4.65625L3.13281 3.16406C3.02344 3.05469 2.89323 3 2.74219 3C2.58594 3 2.45312 3.05469 2.34375 3.16406C2.125 3.38281 1.93229 3.57552 1.76562 3.74219C1.59896 3.90365 1.45833 4.07031 1.34375 4.24219C1.23438 4.41406 1.14844 4.60677 1.08594 4.82031C1.02865 5.03385 1 5.29948 1 5.61719C1 6.10677 1.08073 6.61719 1.24219 7.14844C1.40365 7.67969 1.6276 8.21094 1.91406 8.74219C2.20052 9.27344 2.53906 9.79688 2.92969 10.3125C3.32552 10.8281 3.75521 11.3177 4.21875 11.7812C4.68229 12.2448 5.17188 12.6745 5.6875 13.0703C6.20312 13.4609 6.72656 13.7995 7.25781 14.0859C7.78906 14.3724 8.32031 14.5964 8.85156 14.7578C9.38281 14.9193 9.89323 15 10.3828 15Z" fill="white"/>
<path d="M10.9531 10.2109C11.1562 10.2109 11.3542 10.25 11.5469 10.3281C11.7396 10.4062 11.9089 10.5182 12.0547 10.6641L13.5469 12.1562C13.6927 12.3021 13.8047 12.4714 13.8828 12.6641C13.9609 12.8568 14 13.0547 14 13.2578C14 13.4609 13.9609 13.6589 13.8828 13.8516C13.8047 14.0443 13.6927 14.2135 13.5469 14.3594L12.7969 15.1094C12.4688 15.4323 12.0964 15.6615 11.6797 15.7969C11.263 15.9323 10.8307 16 10.3828 16C9.82552 16 9.2474 15.9141 8.64844 15.7422C8.05469 15.5651 7.46094 15.3203 6.86719 15.0078C6.27865 14.6953 5.69792 14.3255 5.125 13.8984C4.55729 13.4714 4.01823 13.0052 3.50781 12.5C3.0026 11.9896 2.53385 11.4505 2.10156 10.8828C1.67448 10.3099 1.30469 9.72917 0.992188 9.14062C0.679688 8.54688 0.434896 7.95312 0.257812 7.35938C0.0859375 6.76562 0 6.1875 0 5.625C0 5.22396 0.0338542 4.88281 0.101562 4.60156C0.174479 4.32031 0.278646 4.0651 0.414062 3.83594C0.554688 3.60677 0.726562 3.38542 0.929688 3.17188C1.13281 2.95833 1.36979 2.71875 1.64062 2.45312C1.78646 2.30729 1.95573 2.19531 2.14844 2.11719C2.34115 2.03906 2.53906 2 2.74219 2C2.94531 2 3.14323 2.03906 3.33594 2.11719C3.52865 2.19531 3.69792 2.30729 3.84375 2.45312L5.33594 3.94531C5.48177 4.09115 5.59375 4.26042 5.67188 4.45312C5.75 4.64583 5.78906 4.84375 5.78906 5.04688C5.78906 5.25 5.75521 5.43229 5.6875 5.59375C5.61979 5.75 5.53385 5.89583 5.42969 6.03125C5.33073 6.16146 5.22135 6.28125 5.10156 6.39062C4.98698 6.49479 4.8776 6.59635 4.77344 6.69531C4.67448 6.79427 4.59115 6.89323 4.52344 6.99219C4.45573 7.08594 4.42188 7.1849 4.42188 7.28906C4.42188 7.4401 4.47656 7.57031 4.58594 7.67969L8.32031 11.4141C8.42969 11.5234 8.5599 11.5781 8.71094 11.5781C8.82031 11.5781 8.92188 11.5443 9.01562 11.4766C9.11458 11.4089 9.21094 11.3255 9.30469 11.2266C9.40365 11.1224 9.50521 11.013 9.60938 10.8984C9.71875 10.7786 9.83854 10.6693 9.96875 10.5703C10.099 10.4661 10.2422 10.3802 10.3984 10.3125C10.5599 10.2448 10.7448 10.2109 10.9531 10.2109ZM10.3828 15C10.7005 15 10.9661 14.9714 11.1797 14.9141C11.3932 14.8516 11.5859 14.7656 11.7578 14.6562C11.9297 14.5417 12.0964 14.401 12.2578 14.2344C12.4245 14.0677 12.6172 13.875 12.8359 13.6562C12.9453 13.5469 13 13.4167 13 13.2656C13 13.1094 12.9453 12.9766 12.8359 12.8672L11.3438 11.375C11.2344 11.2656 11.1016 11.2109 10.9453 11.2109C10.8359 11.2109 10.7318 11.2448 10.6328 11.3125C10.5391 11.3802 10.4427 11.4661 10.3438 11.5703C10.25 11.6693 10.1484 11.7786 10.0391 11.8984C9.9349 12.013 9.81771 12.1224 9.6875 12.2266C9.55729 12.3255 9.41146 12.4089 9.25 12.4766C9.09375 12.5443 8.91406 12.5781 8.71094 12.5781C8.5026 12.5781 8.30208 12.5391 8.10938 12.4609C7.92188 12.3776 7.75521 12.263 7.60938 12.1172L3.88281 8.39062C3.73698 8.24479 3.6224 8.07812 3.53906 7.89062C3.46094 7.69792 3.42188 7.4974 3.42188 7.28906C3.42188 7.08594 3.45573 6.90625 3.52344 6.75C3.59115 6.58854 3.67448 6.44271 3.77344 6.3125C3.8776 6.18229 3.98698 6.0651 4.10156 5.96094C4.22135 5.85156 4.33073 5.7474 4.42969 5.64844C4.53385 5.54948 4.61979 5.45312 4.6875 5.35938C4.75521 5.26042 4.78906 5.15625 4.78906 5.04688C4.78906 4.89583 4.73438 4.76562 4.625 4.65625L3.13281 3.16406C3.02344 3.05469 2.89323 3 2.74219 3C2.58594 3 2.45312 3.05469 2.34375 3.16406C2.125 3.38281 1.93229 3.57552 1.76562 3.74219C1.59896 3.90365 1.45833 4.07031 1.34375 4.24219C1.23438 4.41406 1.14844 4.60677 1.08594 4.82031C1.02865 5.03385 1 5.29948 1 5.61719C1 6.10677 1.08073 6.61719 1.24219 7.14844C1.40365 7.67969 1.6276 8.21094 1.91406 8.74219C2.20052 9.27344 2.53906 9.79688 2.92969 10.3125C3.32552 10.8281 3.75521 11.3177 4.21875 11.7812C4.68229 12.2448 5.17188 12.6745 5.6875 13.0703C6.20312 13.4609 6.72656 13.7995 7.25781 14.0859C7.78906 14.3724 8.32031 14.5964 8.85156 14.7578C9.38281 14.9193 9.89323 15 10.3828 15Z" fill="#3A3A3A"/>
<path d="M10.5 7.71094L7.64844 4.85156L8.35156 4.14844L10.5 6.28906L15.1484 1.64844L15.8516 2.35156L10.5 7.71094Z" fill="#25A954"/>
</svg>
