<svg width="16" height="16" viewBox="0 0 16 16" fill="none" xmlns="http://www.w3.org/2000/svg">
<rect width="16" height="16" fill="black" fill-opacity="0"/>
<path d="M7 13.0103C7.77197 12.2407 8.25 11.1763 8.25 10C8.25 7.65283 6.34717 5.75 4 5.75C3.65576 5.75 3.3208 5.79102 3 5.86816V1H10.5L14 4.5V15H7V13.0103Z" fill="white"/>
<path d="M4 12C4.27604 12 4.53385 11.9479 4.77344 11.8438C5.01823 11.7396 5.23177 11.5964 5.41406 11.4141C5.59635 11.2318 5.73958 11.0208 5.84375 10.7812C5.94792 10.5365 6 10.276 6 10C6 9.72396 5.94792 9.46615 5.84375 9.22656C5.73958 8.98177 5.59635 8.76823 5.41406 8.58594C5.23177 8.40365 5.01823 8.26042 4.77344 8.15625C4.53385 8.05208 4.27604 8 4 8C3.72396 8 3.46354 8.05208 3.21875 8.15625C2.97917 8.26042 2.76823 8.40365 2.58594 8.58594C2.40365 8.76823 2.26042 8.98177 2.15625 9.22656C2.05208 9.46615 2 9.72396 2 10C2 10.276 2.05208 10.5365 2.15625 10.7812C2.26042 11.0208 2.40365 11.2318 2.58594 11.4141C2.76823 11.5964 2.97917 11.7396 3.21875 11.8438C3.46354 11.9479 3.72396 12 4 12ZM5 12.8281C4.68229 12.9427 4.36198 13 4.03906 13C3.67448 13 3.32812 12.9427 3 12.8281V14.1875L4 13.6875L5 14.1875V12.8281Z" fill="#85BFEA"/>
<path d="M7 10C7 10.4271 6.91146 10.8359 6.73438 11.2266C6.5625 11.612 6.31771 11.9479 6 12.2344V15.8125L4 14.8125L2 15.8125V12.2344C1.68229 11.9479 1.4349 11.612 1.25781 11.2266C1.08594 10.8359 1 10.4271 1 10C1 9.58854 1.07812 9.20052 1.23438 8.83594C1.39062 8.47135 1.60417 8.15365 1.875 7.88281C2.15104 7.60677 2.46875 7.39062 2.82812 7.23438C3.19271 7.07812 3.58333 7 4 7C4.41146 7 4.79948 7.08073 5.16406 7.24219C5.52865 7.39844 5.84635 7.61198 6.11719 7.88281C6.38802 8.15365 6.60156 8.47135 6.75781 8.83594C6.91927 9.20052 7 9.58854 7 10ZM4 12C4.27604 12 4.53385 11.9479 4.77344 11.8438C5.01823 11.7396 5.23177 11.5964 5.41406 11.4141C5.59635 11.2318 5.73958 11.0208 5.84375 10.7812C5.94792 10.5365 6 10.276 6 10C6 9.72396 5.94792 9.46615 5.84375 9.22656C5.73958 8.98177 5.59635 8.76823 5.41406 8.58594C5.23177 8.40365 5.01823 8.26042 4.77344 8.15625C4.53385 8.05208 4.27604 8 4 8C3.72396 8 3.46354 8.05208 3.21875 8.15625C2.97917 8.26042 2.76823 8.40365 2.58594 8.58594C2.40365 8.76823 2.26042 8.98177 2.15625 9.22656C2.05208 9.46615 2 9.72396 2 10C2 10.276 2.05208 10.5365 2.15625 10.7812C2.26042 11.0208 2.40365 11.2318 2.58594 11.4141C2.76823 11.5964 2.97917 11.7396 3.21875 11.8438C3.46354 11.9479 3.72396 12 4 12ZM5 12.8281C4.68229 12.9427 4.36198 13 4.03906 13C3.67448 13 3.32812 12.9427 3 12.8281V14.1875L4 13.6875L5 14.1875V12.8281Z" fill="#0D64AF"/>
<path d="M15 4.28906V16H7V15H14V5H10V1H3V5.875C2.82812 5.91667 2.65625 5.96875 2.48438 6.03125C2.31771 6.09375 2.15625 6.16667 2 6.25V0H10.7109L15 4.28906ZM13.2891 4L11 1.71094V4H13.2891Z" fill="#3A3A3A"/>
</svg>
