<svg width="16" height="16" fill="none" xmlns="http://www.w3.org/2000/svg"><path d="M2.5 5.266l5 4.995 5-4.995.484.484L7.5 11.239l-5.484-5.49.484-.483z"/><path d="M2.5 5.266l.353-.354-.354-.353-.353.354.354.353zm5 4.995l-.353.354.353.353.353-.353-.353-.354zm5-4.995l.354-.353-.353-.354-.354.353.354.354zm.484.484l.354.353.353-.354-.354-.353-.353.354zM7.5 11.239l-.354.353.354.354.354-.354-.354-.353zm-5.484-5.49l-.353-.353-.354.353.353.354.354-.353zm.13-.13l5 4.996.707-.708-5-4.995-.707.708zm5.707 4.996l5-4.995-.706-.708-5 4.995.706.708zm4.294-4.995l.483.483.707-.707-.483-.483-.707.707zm.483-.224l-5.484 5.49.708.706 5.484-5.49-.708-.706zm-4.776 5.49L2.37 5.395l-.708.707 5.484 5.49.708-.708zM2.37 6.102l.483-.483-.707-.707-.483.483.707.707z"/></svg>