<svg width="16" height="16" viewBox="0 0 16 16" fill="none" xmlns="http://www.w3.org/2000/svg">
<rect width="16" height="16" fill="black" fill-opacity="0"/>
<path d="M7.5 4C7.70833 4 7.90365 3.96094 8.08594 3.88281C8.26823 3.80469 8.42708 3.69792 8.5625 3.5625C8.69792 3.42708 8.80469 3.26823 8.88281 3.08594C8.96094 2.90365 9 2.70833 9 2.5C9 2.28646 8.95052 2.07292 8.85156 1.85938L7.71094 3H7V2.28906L8.14062 1.14844C7.92708 1.04948 7.71354 1 7.5 1C7.29167 1 7.09635 1.03906 6.91406 1.11719C6.73177 1.19531 6.57292 1.30208 6.4375 1.4375C6.30208 1.57292 6.19531 1.73177 6.11719 1.91406C6.03906 2.09635 6 2.29167 6 2.5C6 2.71354 6.04948 2.92708 6.14844 3.14062L1.14844 8.14844C1.04948 8.2474 1 8.36458 1 8.5C1 8.63542 1.04948 8.7526 1.14844 8.85156C1.2474 8.95052 1.36458 9 1.5 9C1.63542 9 1.7526 8.95052 1.85156 8.85156L6.85938 3.85156C7.07292 3.95052 7.28646 4 7.5 4Z" fill="#C8C6C4"/>
<path d="M7.5 0C7.84375 0 8.16667 0.0677083 8.46875 0.203125C8.77083 0.333333 9.03385 0.513021 9.25781 0.742188C9.48698 0.966146 9.66667 1.22917 9.79688 1.53125C9.93229 1.83333 10 2.15625 10 2.5C10 2.84375 9.93229 3.16927 9.79688 3.47656C9.66667 3.77865 9.48698 4.04427 9.25781 4.27344C9.03385 4.4974 8.77083 4.67448 8.46875 4.80469C8.16667 4.9349 7.84375 5 7.5 5C7.38021 5 7.26302 4.99219 7.14844 4.97656L2.5625 9.5625C2.42188 9.70312 2.25781 9.8125 2.07031 9.89062C1.88802 9.96354 1.69792 10 1.5 10C1.29167 10 1.09635 9.96094 0.914062 9.88281C0.731771 9.80469 0.572917 9.69792 0.4375 9.5625C0.302083 9.42708 0.195312 9.26823 0.117188 9.08594C0.0390625 8.90365 0 8.70833 0 8.5C0 8.30208 0.0364583 8.11198 0.109375 7.92969C0.1875 7.74219 0.296875 7.57812 0.4375 7.4375L5.02344 2.85156C5.00781 2.73698 5 2.61979 5 2.5C5 2.15625 5.0651 1.83333 5.19531 1.53125C5.32552 1.22917 5.5026 0.966146 5.72656 0.742188C5.95573 0.513021 6.22135 0.333333 6.52344 0.203125C6.83073 0.0677083 7.15625 0 7.5 0ZM7.5 4C7.70833 4 7.90365 3.96094 8.08594 3.88281C8.26823 3.80469 8.42708 3.69792 8.5625 3.5625C8.69792 3.42708 8.80469 3.26823 8.88281 3.08594C8.96094 2.90365 9 2.70833 9 2.5C9 2.28646 8.95052 2.07292 8.85156 1.85938L7.71094 3H7V2.28906L8.14062 1.14844C7.92708 1.04948 7.71354 1 7.5 1C7.29167 1 7.09635 1.03906 6.91406 1.11719C6.73177 1.19531 6.57292 1.30208 6.4375 1.4375C6.30208 1.57292 6.19531 1.73177 6.11719 1.91406C6.03906 2.09635 6 2.29167 6 2.5C6 2.71354 6.04948 2.92708 6.14844 3.14062L1.14844 8.14844C1.04948 8.2474 1 8.36458 1 8.5C1 8.63542 1.04948 8.7526 1.14844 8.85156C1.2474 8.95052 1.36458 9 1.5 9C1.63542 9 1.7526 8.95052 1.85156 8.85156L6.85938 3.85156C7.07292 3.95052 7.28646 4 7.5 4Z" fill="#777777"/>
<path d="M6 13H10V14H5V8.89062L6 7.89062V13Z" fill="#3A3A3A"/>
<path d="M16 13V14H14V16H13V14H11V13H13V11H14V13H16Z" fill="#25A954"/>
</svg>
