<svg width="16" height="16" viewBox="0 0 16 16" fill="none" xmlns="http://www.w3.org/2000/svg">
<rect width="16" height="16" fill="black" fill-opacity="0"/>
<path d="M7 2C7 1.44775 7.44775 1 8 1C8.55225 1 9 1.44775 9 2V3H13V15H3V3H7V2Z" fill="white"/>
<path d="M14 2V16H2V2H6C6 1.72396 6.05208 1.46615 6.15625 1.22656C6.26042 0.981771 6.40365 0.768229 6.58594 0.585938C6.76823 0.403646 6.97917 0.260417 7.21875 0.15625C7.46354 0.0520833 7.72396 0 8 0C8.27604 0 8.53385 0.0520833 8.77344 0.15625C9.01823 0.260417 9.23177 0.403646 9.41406 0.585938C9.59635 0.768229 9.73958 0.981771 9.84375 1.22656C9.94792 1.46615 10 1.72396 10 2H14ZM5 4H11V3H9V2C9 1.85938 8.97396 1.72917 8.92188 1.60938C8.86979 1.48958 8.79688 1.38542 8.70312 1.29688C8.61458 1.20312 8.51042 1.13021 8.39062 1.07812C8.27083 1.02604 8.14062 1 8 1C7.85938 1 7.72917 1.02604 7.60938 1.07812C7.48958 1.13021 7.38281 1.20312 7.28906 1.29688C7.20052 1.38542 7.13021 1.48958 7.07812 1.60938C7.02604 1.72917 7 1.85938 7 2V3H5V4ZM13 3H12V5H4V3H3V15H13V3Z" fill="#3A3A3A"/>
<path fill-rule="evenodd" clip-rule="evenodd" d="M11.8828 8.92969L10.9219 9.32812C10.9497 9.43896 10.9702 9.5542 10.9829 9.67432C10.9941 9.77979 11 9.88818 11 10C11 10.2397 10.9741 10.4634 10.9219 10.6719L11.8828 11.0703L11.5078 11.9922L10.5391 11.5938C10.2993 11.9844 9.98438 12.2993 9.59375 12.5391L9.99219 13.5078L9.07031 13.8828L8.67188 12.9219C8.46338 12.9741 8.23975 13 8 13C7.76025 13 7.53662 12.9741 7.32812 12.9219L6.92969 13.8828L6.00781 13.5078L6.40625 12.5391C6.16895 12.3936 5.95947 12.2197 5.77783 12.0186C5.66064 11.8887 5.55518 11.7471 5.46094 11.5938L4.49219 11.9922L4.11719 11.0703L5.07812 10.6719C5.02588 10.4634 5 10.2397 5 10C5 9.76025 5.02588 9.53662 5.07812 9.32812L4.11719 8.92969L4.49219 8.00781L5.46094 8.40625C5.70068 8.01562 6.01562 7.70068 6.40625 7.46094L6.00781 6.49219L6.92969 6.11719L7.32812 7.07812C7.53662 7.02588 7.76025 7 8 7C8.23975 7 8.46338 7.02588 8.67188 7.07812L9.07031 6.11719L9.99219 6.49219L9.59375 7.46094C9.98438 7.70068 10.2993 8.01562 10.5391 8.40625L11.5078 8.00781L11.8828 8.92969ZM8 12C9.10449 12 10 11.1045 10 10C10 8.89551 9.10449 8 8 8C6.89551 8 6 8.89551 6 10C6 11.1045 6.89551 12 8 12Z" fill="#777777"/>
</svg>
