<svg width="16" height="16" viewBox="0 0 16 16" fill="none" xmlns="http://www.w3.org/2000/svg">
<rect width="16" height="16" fill="black" fill-opacity="0"/>
<path d="M10 15H2V1H9.5L13 4.5V10H10V15Z" fill="white"/>
<path d="M2 15H10V16H1V0H9.71094L14 4.28906V10H13V5H9V1H2V15ZM10 4H12.2891L10 1.71094V4Z" fill="#3A3A3A"/>
<path d="M4 5H3V4H4V5ZM4 7H3V6H4V7ZM3 8H4V9H3V8ZM8 5H5V4H8V5ZM8 7H5V6H8V7ZM5 8H8V9H5V8Z" fill="#777777"/>
<path d="M14.2109 13.5L15.9766 15.2734L15.2734 15.9766L13.5 14.2109L11.7266 15.9844L11.0234 15.2734L12.7969 13.5L11.0234 11.7266L11.7266 11.0234L13.5 12.7969L15.2734 11.0234L15.9766 11.7344L14.2109 13.5Z" fill="#EC4E4F"/>
</svg>
