<svg width="16" height="16" viewBox="0 0 16 16" fill="none" xmlns="http://www.w3.org/2000/svg">
<rect width="16" height="16" fill="black" fill-opacity="0"/>
<path d="M15 4H1V12H7.35986L12.6289 6.73828C12.8794 6.48779 13.1768 6.29932 13.5122 6.18164L13.52 6.17871C13.8159 6.07764 14.123 6.02344 14.4375 6.02344C14.6274 6.02344 14.8154 6.04248 15 6.08252V4Z" fill="white"/>
<path d="M15 8.54688C15 8.70312 14.9453 8.83594 14.8359 8.94531L9.42969 14.3438L8.375 14.6094L8.64062 13.5547L14.0469 8.14844C14.099 8.09635 14.1589 8.0599 14.2266 8.03906C14.2943 8.01823 14.3646 8.00781 14.4375 8.00781C14.599 8.00781 14.7318 8.05729 14.8359 8.15625C14.9453 8.25 15 8.38021 15 8.54688Z" fill="#85BFEA"/>
<path fill-rule="evenodd" clip-rule="evenodd" d="M16 3V6.51562C15.8491 6.40625 15.6899 6.31787 15.5234 6.25C15.3569 6.17725 15.1821 6.11963 15 6.07812V5.0625L8 8.55469L1 5.0625V12H7.35938L6.35938 13H0V3H16ZM8 7.44531L14.8828 4H1.11719L8 7.44531Z" fill="#3A3A3A"/>
<path d="M13.3359 7.44531C13.4818 7.29948 13.651 7.19271 13.8438 7.125C14.0417 7.05729 14.2396 7.02344 14.4375 7.02344C14.6562 7.02344 14.8594 7.0625 15.0469 7.14062C15.2344 7.21354 15.3958 7.31771 15.5312 7.45312C15.6719 7.58854 15.7812 7.75 15.8594 7.9375C15.9427 8.125 15.9844 8.32812 15.9844 8.54688C15.9844 8.75 15.9453 8.94792 15.8672 9.14062C15.7891 9.33333 15.6771 9.5026 15.5312 9.64844L9.94531 15.25L7 15.9844L7.73438 13.0391L13.3359 7.44531ZM14.8359 8.94531C14.9453 8.83594 15 8.70312 15 8.54688C15 8.38021 14.9453 8.25 14.8359 8.15625C14.7318 8.05729 14.599 8.00781 14.4375 8.00781C14.3646 8.00781 14.2943 8.01823 14.2266 8.03906C14.1589 8.0599 14.099 8.09635 14.0469 8.14844L8.64062 13.5547L8.375 14.6094L9.42969 14.3438L14.8359 8.94531Z" fill="#0D64AF"/>
</svg>
