<svg width="16" height="16" viewBox="0 0 16 16" fill="none" xmlns="http://www.w3.org/2000/svg">
<rect width="16" height="16" fill="black" fill-opacity="0"/>
<path d="M13.0234 12.7969C12.7266 12.9323 12.3854 13 12 13H11.5C11.3646 13 11.2474 12.9505 11.1484 12.8516C11.0495 12.7526 11 12.6354 11 12.5V11.5C11 11.3542 11.0339 11.2474 11.1016 11.1797C11.1693 11.1068 11.2526 11.0573 11.3516 11.0312C11.4557 11.0052 11.5651 10.9948 11.6797 11H12C12.1406 11 12.2708 10.974 12.3906 10.9219C12.5104 10.8698 12.6146 10.7995 12.7031 10.7109C12.7969 10.6172 12.8698 10.5104 12.9219 10.3906C12.974 10.2708 13 10.1406 13 10V7C13 6.85938 12.974 6.72917 12.9219 6.60938C12.8698 6.48958 12.7969 6.38542 12.7031 6.29688C12.6146 6.20312 12.5104 6.13021 12.3906 6.07812C12.2708 6.02604 12.1406 6 12 6C11.9062 6 11.7995 6.0026 11.6797 6.00781C11.5651 6.00781 11.4557 5.99479 11.3516 5.96875C11.2526 5.94271 11.1693 5.89583 11.1016 5.82812C11.0339 5.75521 11 5.64583 11 5.5V4.5C11 4.36458 11.0495 4.2474 11.1484 4.14844C11.2474 4.04948 11.3646 4 11.5 4H12C12.3854 4 12.7266 4.06771 13.0234 4.20312C13.3255 4.33854 13.5859 4.52083 13.8047 4.75C14.0286 4.97917 14.2161 5.24479 14.3672 5.54688C14.5234 5.84896 14.6458 6.16667 14.7344 6.5C14.8281 6.83333 14.8958 7.17188 14.9375 7.51562C14.9792 7.85938 15 8.1875 15 8.5C15 8.8125 14.9792 9.14062 14.9375 9.48438C14.8958 9.82812 14.8281 10.1667 14.7344 10.5C14.6458 10.8333 14.5234 11.151 14.3672 11.4531C14.2161 11.7552 14.0286 12.0208 13.8047 12.25C13.5859 12.4792 13.3255 12.6615 13.0234 12.7969Z" fill="white"/>
<rect x="4" y="1" width="6" height="5" fill="white"/>
<rect x="4" y="11" width="6" height="4" fill="white"/>
<path d="M12 7V10H3V13H1V7H12Z" fill="#C8C6C4"/>
<path d="M2.5 8C2.63542 8 2.7526 8.04948 2.85156 8.14844C2.95052 8.2474 3 8.36458 3 8.5C3 8.63542 2.95052 8.7526 2.85156 8.85156C2.7526 8.95052 2.63542 9 2.5 9C2.36458 9 2.2474 8.95052 2.14844 8.85156C2.04948 8.7526 2 8.63542 2 8.5C2 8.36458 2.04948 8.2474 2.14844 8.14844C2.2474 8.04948 2.36458 8 2.5 8ZM12 3C12.5573 3 13.0911 3.1276 13.6016 3.38281C14.0703 3.61719 14.4583 3.92708 14.7656 4.3125C15.0729 4.69271 15.3177 5.11198 15.5 5.57031C15.6875 6.02865 15.8177 6.51042 15.8906 7.01562C15.9635 7.52083 16 8.01562 16 8.5C16 8.98438 15.9635 9.47917 15.8906 9.98438C15.8177 10.4896 15.6875 10.9714 15.5 11.4297C15.3177 11.888 15.0729 12.3099 14.7656 12.6953C14.4583 13.0755 14.0703 13.3828 13.6016 13.6172C13.0911 13.8724 12.5573 14 12 14H11V16H3V14H0V7C0 6.85938 0.0260417 6.72917 0.078125 6.60938C0.130208 6.48958 0.200521 6.38542 0.289062 6.29688C0.382812 6.20312 0.489583 6.13021 0.609375 6.07812C0.729167 6.02604 0.859375 6 1 6H3V0H11V3H12ZM4 6H10V1H4V6ZM10 11H4V15H10V11ZM12 10V7H1V13H3V10H12ZM12 13C12.3854 13 12.7266 12.9323 13.0234 12.7969C13.3255 12.6615 13.5859 12.4792 13.8047 12.25C14.0286 12.0208 14.2161 11.7552 14.3672 11.4531C14.5234 11.151 14.6458 10.8333 14.7344 10.5C14.8281 10.1667 14.8958 9.82812 14.9375 9.48438C14.9792 9.14062 15 8.8125 15 8.5C15 8.1875 14.9792 7.85938 14.9375 7.51562C14.8958 7.17188 14.8281 6.83333 14.7344 6.5C14.6458 6.16667 14.5234 5.84896 14.3672 5.54688C14.2161 5.24479 14.0286 4.97917 13.8047 4.75C13.5859 4.52083 13.3255 4.33854 13.0234 4.20312C12.7266 4.06771 12.3854 4 12 4H11.5C11.3646 4 11.2474 4.04948 11.1484 4.14844C11.0495 4.2474 11 4.36458 11 4.5V5.5C11 5.64583 11.0339 5.75521 11.1016 5.82812C11.1693 5.89583 11.2526 5.94271 11.3516 5.96875C11.4557 5.99479 11.5651 6.00781 11.6797 6.00781C11.7995 6.0026 11.9062 6 12 6C12.1406 6 12.2708 6.02604 12.3906 6.07812C12.5104 6.13021 12.6146 6.20312 12.7031 6.29688C12.7969 6.38542 12.8698 6.48958 12.9219 6.60938C12.974 6.72917 13 6.85938 13 7V10C13 10.1406 12.974 10.2708 12.9219 10.3906C12.8698 10.5104 12.7969 10.6172 12.7031 10.7109C12.6146 10.7995 12.5104 10.8698 12.3906 10.9219C12.2708 10.974 12.1406 11 12 11C11.9062 11 11.7995 11 11.6797 11C11.5651 10.9948 11.4557 11.0052 11.3516 11.0312C11.2526 11.0573 11.1693 11.1068 11.1016 11.1797C11.0339 11.2474 11 11.3542 11 11.5V12.5C11 12.6354 11.0495 12.7526 11.1484 12.8516C11.2474 12.9505 11.3646 13 11.5 13H12Z" fill="#3A3A3A"/>
</svg>
