<svg width="16" height="16" viewBox="0 0 16 16" fill="none" xmlns="http://www.w3.org/2000/svg">
<rect width="16" height="16" fill="black" fill-opacity="0"/>
<path d="M1 13C1 10.2386 3.23859 8 6 8C8.05029 8 9.81244 9.2341 10.584 11H8V13H1Z" fill="white"/>
<circle cx="6" cy="4" r="3" fill="white"/>
<path d="M13.1016 15.3516L15.9531 12.5L13.1016 9.64844L12.3984 10.3516L14.0469 12H9V13H14.0469L12.3984 14.6484L13.1016 15.3516Z" fill="#0D64AF"/>
<path fill-rule="evenodd" clip-rule="evenodd" d="M10.5547 10.9531C10.3516 10.5052 10.0911 10.1016 9.77344 9.74219C9.46094 9.37761 9.10675 9.06771 8.71094 8.8125C8.31512 8.55208 7.88544 8.35156 7.42188 8.21094C6.96454 8.07062 6.49164 8.00031 6.00323 8H5.99664C5.50824 8.00031 5.03546 8.07062 4.57812 8.21094C4.11456 8.35156 3.68488 8.55208 3.28906 8.8125C2.89325 9.06771 2.53906 9.37761 2.22656 9.74219C1.90887 10.1016 1.64844 10.5052 1.44531 10.9531L1.43872 10.9502C1.33624 11.1809 1.24994 11.4215 1.17969 11.6719C1.05988 12.099 1 12.5417 1 13H0C0 12.3906 0.0911255 11.7943 0.273438 11.2109C0.460938 10.6276 0.723938 10.0885 1.0625 9.59375C1.40625 9.09375 1.81512 8.65364 2.28906 8.27344C2.76825 7.88802 3.29688 7.59375 3.875 7.39062C3.58331 7.20312 3.32031 6.98698 3.08594 6.74219C2.96179 6.60956 2.84753 6.47005 2.74323 6.32366C2.6554 6.20243 2.5744 6.07645 2.5 5.94531C2.16669 5.36198 2 4.71354 2 4C2 3.44792 2.10419 2.92969 2.3125 2.44531C2.52081 1.95573 2.80469 1.53125 3.16406 1.17188C3.52863 0.807291 3.95312 0.520834 4.4375 0.3125C4.67102 0.213114 4.91168 0.137434 5.15948 0.0854607C5.43109 0.0284863 5.7113 0 6 0C6.276 0 6.54364 0.026041 6.80273 0.078125C7.06384 0.130207 7.31714 0.208082 7.5625 0.3125C8.04688 0.520834 8.47137 0.807291 8.83594 1.17188C9.19531 1.53125 9.47919 1.95573 9.6875 2.44531C9.89581 2.92969 10 3.44792 10 4C10 4.71354 9.83331 5.36198 9.5 5.94531C9.4256 6.07645 9.34442 6.20263 9.25659 6.32386C9.15228 6.47025 9.03821 6.60956 8.91406 6.74219C8.67969 6.98698 8.41669 7.20312 8.125 7.39062C8.70312 7.59375 9.23175 7.88802 9.71094 8.27344C10.1849 8.65364 10.5938 9.09375 10.9375 9.59375C11.2349 10.0283 11.4739 10.4971 11.6548 11H10.5831C10.5759 10.9833 10.5686 10.9668 10.5613 10.9502L10.5547 10.9531ZM3 4C3 4.41667 3.07812 4.80729 3.23438 5.17188C3.39062 5.53125 3.60675 5.84896 3.88281 6.125C4.15363 6.39583 4.47137 6.60938 4.83594 6.76562C5.19989 6.92161 5.58722 6.99973 5.99786 7H6.0033C6.41351 6.99958 6.80048 6.92146 7.16406 6.76562C7.52863 6.60938 7.84637 6.39583 8.11719 6.125C8.39325 5.84896 8.60938 5.53125 8.76562 5.17188C8.92188 4.80729 9 4.41667 9 4C9 3.58854 8.92188 3.20052 8.76562 2.83594C8.60938 2.47135 8.39325 2.15365 8.11719 1.88281C7.84637 1.60677 7.52863 1.39062 7.16406 1.23438C6.80011 1.07839 6.41278 1.00027 6.00214 1L5.99664 1C5.58643 1.00042 5.19952 1.07854 4.83594 1.23438C4.47137 1.39062 4.15363 1.60677 3.88281 1.88281C3.60675 2.15365 3.39062 2.47135 3.23438 2.83594C3.07812 3.20052 3 3.58854 3 4Z" fill="#3A3A3A"/>
</svg>
