<svg width="16" height="16" viewBox="0 0 16 16" fill="none" xmlns="http://www.w3.org/2000/svg">
<rect width="16" height="16" fill="black" fill-opacity="0"/>
<path d="M16 13.5L13.5 16L12.7969 15.2891L14.0859 14H13C12.5833 14 12.1927 13.9219 11.8281 13.7656C11.4688 13.6094 11.151 13.3958 10.875 13.125C10.6042 12.849 10.3906 12.5312 10.2344 12.1719C10.0781 11.8073 10 11.4167 10 11H11C11 11.276 11.0521 11.5365 11.1562 11.7812C11.2604 12.0208 11.4036 12.2318 11.5859 12.4141C11.7682 12.5964 11.9792 12.7396 12.2188 12.8438C12.4635 12.9479 12.724 13 13 13H14.0859L12.7969 11.7109L13.5 11L16 13.5Z" fill="#0D64AF"/>
<path d="M6.74219 11.2656L5.0625 8.07031L6.69531 4.92969L5.32031 5.00781L4.48438 6.86719C4.44271 6.95052 4.41146 7.03906 4.39062 7.13281C4.36979 7.22135 4.34635 7.3099 4.32031 7.39844H4.30469C4.28385 7.33594 4.26562 7.27083 4.25 7.20312C4.23438 7.13542 4.21615 7.06771 4.19531 7C4.1849 6.97917 4.17708 6.96094 4.17188 6.94531C4.16667 6.92969 4.15885 6.91146 4.14844 6.89062L3.42969 5.125L2.09375 5.19531L3.51562 8.09375L1.96875 10.9922L3.26562 11.0625L4.13281 9.16406C4.13802 9.14844 4.14583 9.1224 4.15625 9.08594C4.17188 9.04427 4.1849 9.0026 4.19531 8.96094C4.21094 8.91406 4.22396 8.8724 4.23438 8.83594C4.24479 8.79427 4.25 8.76562 4.25 8.75H4.26562C4.26562 8.76562 4.26823 8.79427 4.27344 8.83594C4.28385 8.8776 4.29427 8.92188 4.30469 8.96875C4.32031 9.01042 4.33333 9.04948 4.34375 9.08594C4.35417 9.1224 4.36458 9.14583 4.375 9.15625L5.28125 11.1797L6.74219 11.2656Z" fill="white"/>
<path d="M9.5 9H11V10H9.5V9Z" fill="white"/>
<path d="M11 8.5H9.5V7H11V8.5Z" fill="white"/>
<path d="M11 6.5H9.5V5H11V6.5Z" fill="white"/>
<path d="M14 9V10H11.5V9H14Z" fill="white"/>
<path d="M14 4.5H11.5V3H14V4.5Z" fill="white"/>
<path d="M14 6.5H11.5V5H14V6.5Z" fill="white"/>
<path d="M14 8.5H11.5V7H14V8.5Z" fill="white"/>
<path d="M9.5 3V4.5H11V3H9.5Z" fill="white"/>
<path d="M9 0.398438V15.6016L0 13.5234V2.47656L9 0.398438ZM6.74219 11.2656L5.0625 8.07031L6.69531 4.92969L5.32031 5.00781L4.48438 6.86719C4.44271 6.95052 4.41146 7.03906 4.39062 7.13281C4.36979 7.22135 4.34635 7.3099 4.32031 7.39844H4.30469C4.28385 7.33594 4.26562 7.27083 4.25 7.20312C4.23438 7.13542 4.21615 7.06771 4.19531 7C4.1849 6.97917 4.17708 6.96094 4.17188 6.94531C4.16667 6.92969 4.15885 6.91146 4.14844 6.89062L3.42969 5.125L2.09375 5.19531L3.51562 8.09375L1.96875 10.9922L3.26562 11.0625L4.13281 9.16406C4.13802 9.14844 4.14583 9.1224 4.15625 9.08594C4.17188 9.04427 4.1849 9.0026 4.19531 8.96094C4.21094 8.91406 4.22396 8.8724 4.23438 8.83594C4.24479 8.79427 4.25 8.76562 4.25 8.75H4.26562C4.26562 8.76562 4.26823 8.79427 4.27344 8.83594C4.28385 8.8776 4.29427 8.92188 4.30469 8.96875C4.32031 9.01042 4.33333 9.04948 4.34375 9.08594C4.35417 9.1224 4.36458 9.14583 4.375 9.15625L5.28125 11.1797L6.74219 11.2656ZM11 9H9.5V8.5H11V7H9.5V6.5H11V5H9.5V4.5H11V3H9.5V2H14.4688C14.5104 2 14.5625 2.02083 14.625 2.0625C14.6875 2.09896 14.7448 2.14583 14.7969 2.20312C14.8542 2.25521 14.901 2.3125 14.9375 2.375C14.9792 2.4375 15 2.48958 15 2.53125V11.0859L14 10.0859V9H11.5V10H11V9ZM11.5 4.5H14V3H11.5V4.5ZM11.5 6.5H14V5H11.5V6.5ZM11.5 8.5H14V7H11.5V8.5Z" fill="#118814"/>
</svg>
