<svg width="16" height="16" viewBox="0 0 16 16" fill="none" xmlns="http://www.w3.org/2000/svg">
<rect width="16" height="16" fill="black" fill-opacity="0"/>
<path d="M12.2891 4H10V1.71094L12.2891 4Z" fill="white"/>
<path d="M9 1H2V11.75H6.27307L6.6051 10.4165L12.0141 5H9V1Z" fill="white"/>
<path d="M13 11.9727L10.6011 14.3783L10.2887 14.4675C10.2391 14.4817 10.1301 14.5111 9.97833 14.5515L9.95941 14.5566L9.94031 14.5611C9.79834 14.5942 9.62238 14.6381 9.41046 14.6936L9.40021 14.6963L9.38995 14.6988C9.18134 14.7496 8.95654 14.8058 8.71545 14.8674L8.70331 14.8705L8.6911 14.8734C8.50317 14.9174 8.32709 14.9596 8.16278 15H13V11.9727Z" fill="white"/>
<path d="M13 11.9688L14 10.9688V16H1V0H9.71094L13.6094 3.89844C13.4271 3.95573 13.2682 4.01823 13.1328 4.08594C13.0026 4.14844 12.8802 4.22135 12.7656 4.30469C12.651 4.38281 12.5417 4.47396 12.4375 4.57812C12.3333 4.68229 12.2188 4.79688 12.0938 4.92188L12.0156 5H9V1H2V15H13V11.9688ZM10 4H12.2891L10 1.71094V4ZM14.4375 5C14.6562 5 14.8594 5.03906 15.0469 5.11719C15.2396 5.19531 15.4062 5.30469 15.5469 5.44531C15.6875 5.58594 15.7969 5.75 15.875 5.9375C15.9583 6.125 16 6.32812 16 6.54688C16 6.75 15.9609 6.94792 15.8828 7.14062C15.8047 7.33333 15.6927 7.5026 15.5469 7.64844L9.94531 13.2656C9.90885 13.276 9.8125 13.3021 9.65625 13.3438C9.5 13.3802 9.3125 13.4271 9.09375 13.4844C8.88021 13.5365 8.65104 13.5938 8.40625 13.6562C8.16146 13.7135 7.9349 13.7682 7.72656 13.8203C7.52344 13.8724 7.35156 13.9167 7.21094 13.9531C7.07552 13.9844 7.00521 14 7 14H3V13H7.25L7.73438 11.0547L13.3359 5.44531C13.4818 5.29948 13.651 5.1901 13.8438 5.11719C14.0365 5.03906 14.2344 5 14.4375 5ZM14.8359 6.94531C14.9453 6.83594 15 6.70312 15 6.54688C15 6.38542 14.9453 6.25521 14.8359 6.15625C14.7318 6.05208 14.599 6 14.4375 6C14.3646 6 14.2943 6.01302 14.2266 6.03906C14.1589 6.0599 14.099 6.09635 14.0469 6.14844L8.64062 11.5703L8.375 12.625L9.42969 12.3594L14.8359 6.94531Z" fill="#3A3A3A"/>
<path d="M3 13H7.5L7 14H3V13Z" fill="#3A3A3A"/>
<path d="M15 6.54688C15 6.70312 14.9453 6.83594 14.8359 6.94531L9.42969 12.3594L8.375 12.625L8.64062 11.5703L14.0469 6.14844C14.099 6.09635 14.1589 6.0599 14.2266 6.03906C14.2943 6.01302 14.3646 6 14.4375 6C14.599 6 14.7318 6.05208 14.8359 6.15625C14.9453 6.25521 15 6.38542 15 6.54688Z" fill="#85BFEA"/>
<path fill-rule="evenodd" clip-rule="evenodd" d="M14.4375 5C14.6562 5 14.8594 5.03906 15.0469 5.11719C15.2396 5.19531 15.4062 5.30469 15.5469 5.44531C15.6875 5.58594 15.7969 5.75 15.875 5.9375C15.9583 6.125 16 6.32812 16 6.54688C16 6.75 15.9609 6.94792 15.8828 7.14062C15.8047 7.33333 15.6927 7.50261 15.5469 7.64844L9.94531 13.2656C9.90887 13.276 9.8125 13.3021 9.65625 13.3438C9.5 13.3802 9.3125 13.4271 9.09375 13.4844C8.88019 13.5365 8.65106 13.5938 8.40625 13.6562C8.16144 13.7135 7.93488 13.7682 7.72656 13.8203C7.52344 13.8724 7.35156 13.9167 7.21094 13.9531C7.0755 13.9844 7.00519 14 7 14L7.73438 11.0547L13.3359 5.44531C13.4818 5.29948 13.6511 5.19011 13.8438 5.11719C14.0364 5.03906 14.2344 5 14.4375 5ZM14.8359 6.94531C14.9453 6.83594 15 6.70312 15 6.54688C15 6.38542 14.9453 6.2552 14.8359 6.15625C14.7318 6.05208 14.5989 6 14.4375 6C14.3646 6 14.2943 6.01302 14.2266 6.03906C14.1589 6.05989 14.0989 6.09636 14.0469 6.14844L8.64062 11.5703L8.375 12.625L9.42969 12.3594L14.8359 6.94531Z" fill="#0D64AF"/>
</svg>
