<svg width="16" height="16" viewBox="0 0 16 16" fill="none" xmlns="http://www.w3.org/2000/svg">
<rect width="16" height="16" fill="black" fill-opacity="0"/>
<path d="M5.03543 12H1V4.55469L7.9584 8.04165C6.28259 8.30198 5 9.75121 5 11.5C5 11.6698 5.01208 11.8367 5.03543 12Z" fill="white"/>
<path d="M8.07336 8.02574L15 4.55469V10.3368C14.5922 10.1431 14.141 10.0259 13.665 10.0038C13.1041 8.81929 11.8977 8 10.5 8H8.5C8.35556 8 8.2132 8.00875 8.07336 8.02574Z" fill="white"/>
<path d="M13.8828 4H2.11719L8 6.9375L13.8828 4Z" fill="white"/>
<path d="M16 3V11.0312C15.8542 10.8802 15.6979 10.7448 15.5312 10.625C15.3646 10.5 15.1875 10.3932 15 10.3047V4.55469L8 8.0625L1 4.55469V12H5.04688C5.07292 12.1719 5.11198 12.3438 5.16406 12.5156C5.21615 12.6823 5.27865 12.8438 5.35156 13H0V3H16ZM8 6.9375L13.8828 4H2.11719L8 6.9375Z" fill="#3A3A3A"/>
<path d="M8.5 10C8.29167 10 8.09635 10.0391 7.91406 10.1172C7.73177 10.1953 7.57292 10.3021 7.4375 10.4375C7.30208 10.5729 7.19531 10.7318 7.11719 10.9141C7.03906 11.0964 7 11.2917 7 11.5C7 11.6667 7.02604 11.8255 7.07812 11.9766C7.13021 12.1224 7.20052 12.2578 7.28906 12.3828C7.38281 12.5078 7.49479 12.6172 7.625 12.7109C7.75521 12.8047 7.89844 12.8776 8.05469 12.9297C8.03906 13.0234 8.02604 13.1198 8.01562 13.2188C8.00521 13.3125 8 13.4062 8 13.5C8 13.5729 8.00521 13.6484 8.01562 13.7266C8.02604 13.8047 8.03646 13.8802 8.04688 13.9531C7.75 13.901 7.47656 13.8021 7.22656 13.6562C6.97656 13.5052 6.76042 13.3203 6.57812 13.1016C6.39583 12.8828 6.2526 12.638 6.14844 12.3672C6.04948 12.0911 6 11.8021 6 11.5C6 11.1562 6.0651 10.8333 6.19531 10.5312C6.32552 10.2292 6.5026 9.96615 6.72656 9.74219C6.95573 9.51302 7.22135 9.33333 7.52344 9.20312C7.83073 9.06771 8.15625 9 8.5 9H10.5C10.8438 9 11.1667 9.06771 11.4688 9.20312C11.7708 9.33333 12.0339 9.51302 12.2578 9.74219C12.487 9.96615 12.6667 10.2292 12.7969 10.5312C12.9323 10.8333 13 11.1562 13 11.5C13 11.7969 12.9505 12.0807 12.8516 12.3516C12.7526 12.6224 12.6146 12.8672 12.4375 13.0859C12.2604 13.2995 12.0495 13.4818 11.8047 13.6328C11.5599 13.7839 11.2917 13.888 11 13.9453V12.9062C11.1458 12.8542 11.2812 12.7812 11.4062 12.6875C11.5312 12.5938 11.6354 12.487 11.7188 12.3672C11.8073 12.2422 11.875 12.1068 11.9219 11.9609C11.974 11.8099 12 11.6562 12 11.5C12 11.2917 11.9609 11.0964 11.8828 10.9141C11.8047 10.7318 11.6979 10.5729 11.5625 10.4375C11.4271 10.3021 11.2682 10.1953 11.0859 10.1172C10.9036 10.0391 10.7083 10 10.5 10H8.5ZM13.9531 11.0078C14.25 11.0651 14.5234 11.1693 14.7734 11.3203C15.0234 11.4714 15.2396 11.6562 15.4219 11.875C15.6042 12.0938 15.7448 12.3411 15.8438 12.6172C15.9479 12.888 16 13.1745 16 13.4766C16 13.8203 15.9349 14.1458 15.8047 14.4531C15.6745 14.7552 15.4948 15.0234 15.2656 15.2578C15.0417 15.487 14.776 15.6693 14.4688 15.8047C14.1667 15.9349 13.8438 16 13.5 16H11.5C11.1562 16 10.8307 15.9349 10.5234 15.8047C10.2214 15.6693 9.95573 15.487 9.72656 15.2578C9.5026 15.0234 9.32552 14.7552 9.19531 14.4531C9.0651 14.1458 9 13.8203 9 13.4766C9 13.1797 9.04948 12.8958 9.14844 12.625C9.2474 12.3542 9.38542 12.1094 9.5625 11.8906C9.73958 11.6667 9.95052 11.4792 10.1953 11.3281C10.4401 11.1719 10.7083 11.0651 11 11.0078V12.0469C10.849 12.099 10.7109 12.1745 10.5859 12.2734C10.4661 12.3672 10.362 12.4792 10.2734 12.6094C10.1901 12.7344 10.1224 12.8724 10.0703 13.0234C10.0234 13.1693 10 13.3203 10 13.4766C10 13.6797 10.0391 13.875 10.1172 14.0625C10.1953 14.2448 10.3021 14.4062 10.4375 14.5469C10.5729 14.6875 10.7318 14.7995 10.9141 14.8828C11.0964 14.9609 11.2917 15 11.5 15H13.5C13.7083 15 13.9036 14.9609 14.0859 14.8828C14.2682 14.7995 14.4271 14.6875 14.5625 14.5469C14.6979 14.4062 14.8047 14.2448 14.8828 14.0625C14.9609 13.875 15 13.6797 15 13.4766C15 13.3151 14.974 13.1589 14.9219 13.0078C14.8698 12.8516 14.7969 12.7109 14.7031 12.5859C14.6146 12.4557 14.5052 12.3438 14.375 12.25C14.2448 12.151 14.1016 12.0781 13.9453 12.0312C13.9609 11.9375 13.974 11.8438 13.9844 11.75C13.9948 11.651 14 11.5547 14 11.4609C14 11.388 13.9948 11.3125 13.9844 11.2344C13.974 11.1562 13.9635 11.0807 13.9531 11.0078Z" fill="#777777"/>
</svg>
