<svg width="16" height="16" viewBox="0 0 16 16" fill="none" xmlns="http://www.w3.org/2000/svg">
<rect width="16" height="16" fill="black" fill-opacity="0"/>
<path d="M8.64844 12.2578C8.79948 12.0026 8.90104 11.7266 8.95312 11.4297L7.97656 11.25C7.94531 11.4323 7.88542 11.599 7.79688 11.75C7.70833 11.901 7.59896 12.0339 7.46875 12.1484C7.33854 12.2578 7.1901 12.3438 7.02344 12.4062C6.85677 12.4688 6.68229 12.5 6.5 12.5C6.29167 12.5 6.09635 12.4609 5.91406 12.3828C5.73177 12.3047 5.57292 12.1979 5.4375 12.0625C5.30208 11.9271 5.19531 11.7682 5.11719 11.5859C5.03906 11.4036 5 11.2083 5 11C5 10.9115 5.00781 10.8203 5.02344 10.7266L4.04688 10.5547C4.01562 10.7057 4 10.8542 4 11C4 11.3438 4.0651 11.6693 4.19531 11.9766C4.32552 12.2786 4.5026 12.5443 4.72656 12.7734C4.95573 12.9974 5.22135 13.1745 5.52344 13.3047C5.83073 13.4349 6.15625 13.5 6.5 13.5C6.80208 13.5 7.08854 13.4479 7.35938 13.3438C7.63542 13.2396 7.88281 13.0964 8.10156 12.9141C8.32031 12.7318 8.5026 12.513 8.64844 12.2578Z" fill="#3A3A3A"/>
<path d="M15 4.50781L1 7V9C1.03646 9 1.0651 9.0026 1.08594 9.00781L15 11.4922V4.50781Z" fill="white"/>
<path fill-rule="evenodd" clip-rule="evenodd" d="M0 6C0.0727539 6 0.171875 6.00244 0.296875 6.00781C0.427246 6.01318 0.552246 6.01562 0.671875 6.01562H0.828125C0.880371 6.01025 0.921875 6.00537 0.953125 6L15 3.5C15.0312 3.49463 15.0728 3.49219 15.125 3.49219C15.1772 3.48682 15.2344 3.48438 15.2969 3.48438C15.4219 3.48438 15.5522 3.48682 15.6875 3.49219C15.8228 3.49756 15.9272 3.5 16 3.5V12.5C15.9512 12.5 15.8892 12.501 15.814 12.5034L15.6953 12.5078H15.0781C15.0103 12.5078 14.9556 12.5024 14.9141 12.4922L8.95312 11.4297L7.97656 11.25L5.02344 10.7266L4.04688 10.5547L0.953125 10C0.911621 9.99463 0.864746 9.99219 0.8125 9.99219C0.765625 9.98682 0.713379 9.98438 0.65625 9.98438C0.541504 9.98438 0.424316 9.98682 0.304688 9.99219C0.189941 9.99756 0.0883789 10 0 10V6ZM1 7L15 4.50781V11.4922L1.08594 9.00781C1.06494 9.00244 1.03662 9 1 9V7Z" fill="#3A3A3A"/>
</svg>
