<svg width="26" height="25" viewBox="0 0 26 25" fill="none" xmlns="http://www.w3.org/2000/svg">
<rect x="0.5" width="25" height="25" rx="12.5" fill="#E1E1E1"/>
<path fill-rule="evenodd" clip-rule="evenodd" d="M13 0C6.09644 0 0.5 5.59644 0.5 12.5C0.5 15.8152 1.81696 18.9946 4.16117 21.3388C6.50537 23.683 9.68479 25 13 25C16.3152 25 19.4946 23.683 21.8388 21.3388C24.183 18.9946 25.5 15.8152 25.5 12.5C25.5 5.5875 19.875 0 13 0ZM4.86827 20.6317C2.7116 18.4751 1.5 15.55 1.5 12.5C1.5 6.14873 6.64873 1 13 1C19.3361 1 24.5 6.15318 24.5 12.5C24.5 15.55 23.2884 18.4751 21.1317 20.6317C18.9751 22.7884 16.05 24 13 24C9.95001 24 7.02494 22.7884 4.86827 20.6317ZM10 9.89945C10.0433 9.04754 10.3356 8.35133 10.8768 7.8108C11.418 7.27026 12.1746 7 13.1464 7C14.046 7 14.7809 7.25656 15.351 7.7697C15.9211 8.28283 16.2061 8.92798 16.2061 9.70515C16.2061 10.7962 15.7034 11.6556 14.6979 12.2833C14.2457 12.5623 13.9366 12.8263 13.7706 13.0754C13.6046 13.3245 13.5216 13.6483 13.5216 14.0468V14.5326H12.2587V13.8451C12.2539 13.3569 12.3682 12.9334 12.6015 12.5747C12.8349 12.216 13.2017 11.8822 13.702 11.5734C14.1254 11.3043 14.4249 11.0353 14.6005 10.7663C14.7761 10.4973 14.8639 10.166 14.8639 9.77241C14.8639 9.30411 14.7015 8.91927 14.3768 8.61786C14.052 8.31646 13.6251 8.16576 13.0959 8.16576C12.5522 8.16576 12.1156 8.32019 11.7861 8.62907C11.4565 8.93795 11.2725 9.3614 11.234 9.89945H10ZM12.266 17.7086C12.4536 17.9029 12.6942 18 12.9877 18C13.2811 18 13.5205 17.9029 13.7057 17.7086C13.8909 17.5143 13.9835 17.2652 13.9835 16.9613C13.9835 16.6524 13.8909 16.4008 13.7057 16.2065C13.5205 16.0123 13.2811 15.9151 12.9877 15.9151C12.6942 15.9151 12.4536 16.0135 12.266 16.2103C12.0784 16.4071 11.9845 16.6574 11.9845 16.9613C11.9845 17.2652 12.0784 17.5143 12.266 17.7086Z" fill="#8E8E93"/>
<mask id="mask0" mask-type="alpha" maskUnits="userSpaceOnUse" x="0" y="0" width="26" height="25">
<path fill-rule="evenodd" clip-rule="evenodd" d="M13 0C6.09644 0 0.5 5.59644 0.5 12.5C0.5 15.8152 1.81696 18.9946 4.16117 21.3388C6.50537 23.683 9.68479 25 13 25C16.3152 25 19.4946 23.683 21.8388 21.3388C24.183 18.9946 25.5 15.8152 25.5 12.5C25.5 5.5875 19.875 0 13 0ZM4.86827 20.6317C2.7116 18.4751 1.5 15.55 1.5 12.5C1.5 6.14873 6.64873 1 13 1C19.3361 1 24.5 6.15318 24.5 12.5C24.5 15.55 23.2884 18.4751 21.1317 20.6317C18.9751 22.7884 16.05 24 13 24C9.95001 24 7.02494 22.7884 4.86827 20.6317ZM10 9.89945C10.0433 9.04754 10.3356 8.35133 10.8768 7.8108C11.418 7.27026 12.1746 7 13.1464 7C14.046 7 14.7809 7.25656 15.351 7.7697C15.9211 8.28283 16.2061 8.92798 16.2061 9.70515C16.2061 10.7962 15.7034 11.6556 14.6979 12.2833C14.2457 12.5623 13.9366 12.8263 13.7706 13.0754C13.6046 13.3245 13.5216 13.6483 13.5216 14.0468V14.5326H12.2587V13.8451C12.2539 13.3569 12.3682 12.9334 12.6015 12.5747C12.8349 12.216 13.2017 11.8822 13.702 11.5734C14.1254 11.3043 14.4249 11.0353 14.6005 10.7663C14.7761 10.4973 14.8639 10.166 14.8639 9.77241C14.8639 9.30411 14.7015 8.91927 14.3768 8.61786C14.052 8.31646 13.6251 8.16576 13.0959 8.16576C12.5522 8.16576 12.1156 8.32019 11.7861 8.62907C11.4565 8.93795 11.2725 9.3614 11.234 9.89945H10ZM12.266 17.7086C12.4536 17.9029 12.6942 18 12.9877 18C13.2811 18 13.5205 17.9029 13.7057 17.7086C13.8909 17.5143 13.9835 17.2652 13.9835 16.9613C13.9835 16.6524 13.8909 16.4008 13.7057 16.2065C13.5205 16.0123 13.2811 15.9151 12.9877 15.9151C12.6942 15.9151 12.4536 16.0135 12.266 16.2103C12.0784 16.4071 11.9845 16.6574 11.9845 16.9613C11.9845 17.2652 12.0784 17.5143 12.266 17.7086Z" fill="white"/>
</mask>
<g mask="url(#mask0)">
</g>
</svg>
