<svg width="26" height="25" viewBox="0 0 26 25" fill="none" xmlns="http://www.w3.org/2000/svg">
<path fill-rule="evenodd" clip-rule="evenodd" d="M22.5602 10.2632H22.8419C23.7578 10.2632 24.5 11.0052 24.5 11.9207V13.0787C24.5 13.9191 23.9466 14.7368 22.8419 14.7368H22.5584C22.5255 14.7368 22.4938 14.7627 22.4828 14.8083C22.2458 15.7887 21.8598 16.7208 21.3405 17.5734C21.3155 17.6146 21.3197 17.6565 21.3433 17.6801L21.5412 17.8774C22.1887 18.5249 22.1887 19.5748 21.5411 20.2225L20.7223 21.0406C20.0748 21.6881 19.0249 21.6881 18.3774 21.0406L18.1807 20.8438C18.1566 20.8198 18.1151 20.8156 18.0744 20.8403C17.2218 21.3595 16.2904 21.7451 15.3101 21.982C15.2634 21.9934 15.2368 22.026 15.2368 22.0596V22.3419C15.2368 23.2575 14.4945 24 13.5787 24H12.4213C11.424 24 10.7912 23.5097 10.7632 22.3419V22.0584C10.7632 22.0251 10.7376 21.9939 10.6915 21.9827C9.71008 21.745 8.77879 21.3595 7.92594 20.8405C7.88488 20.8156 7.84338 20.8198 7.81933 20.8438L7.62255 21.0406C6.97507 21.6881 5.92515 21.6881 5.2778 21.0407L4.45878 20.2223C3.8113 19.5748 3.8113 18.5249 4.45933 17.8769L4.65561 17.6812C4.68025 17.6565 4.68451 17.6146 4.65968 17.5738C4.14074 16.7217 3.75507 15.7904 3.51711 14.8085C3.50612 14.7628 3.47417 14.7368 3.43978 14.7368H3.15806C2.24225 14.7368 1.5 13.9943 1.5 13.0787V11.9207C1.5 10.9849 1.92365 10.4477 2.61976 10.3052C2.79104 10.2702 2.92091 10.2632 3.15806 10.2632H3.441C3.4745 10.2632 3.50606 10.2374 3.51722 10.1911C3.75403 9.21126 4.13986 8.27981 4.65947 7.42594C4.68445 7.38485 4.68021 7.34337 4.65556 7.31872L4.45878 7.12194C3.8113 6.47446 3.8113 5.42515 4.45878 4.77767L5.27767 3.95878C5.92515 3.3113 6.97507 3.3113 7.62255 3.95878L7.81989 4.15612C7.84355 4.17985 7.88459 4.184 7.9256 4.15907C8.77819 3.63985 9.70961 3.25429 10.6899 3.01737C10.7369 3.00594 10.7632 2.97369 10.7632 2.93978V2.65744C10.7632 1.74194 11.5054 1 12.4213 1H13.5787C14.4688 1 15.2103 1.47147 15.2368 2.65744V2.941C15.2368 2.97441 15.2627 3.0061 15.3082 3.0172C16.2893 3.25417 17.2208 3.6396 18.0741 4.15886C18.1154 4.184 18.1565 4.17985 18.1807 4.15556L18.3774 3.95878C19.0249 3.3113 20.0748 3.3113 20.7223 3.95878L21.5412 4.77767C22.1887 5.42515 22.1887 6.47446 21.5412 7.12194L21.3444 7.31872C21.3198 7.34337 21.3156 7.38485 21.3403 7.4256C21.8593 8.27773 22.2449 9.20902 22.4829 10.1909C22.4939 10.2367 22.5263 10.2631 22.5602 10.2632ZM7 12.5C7 15.8137 9.68629 18.5 13 18.5C16.3137 18.5 19 15.8137 19 12.5C19 9.18629 16.3137 6.5 13 6.5C9.68629 6.5 7 9.18629 7 12.5Z" fill="#E1E1E1"/>
<path fill-rule="evenodd" clip-rule="evenodd" d="M22.5602 10.2632H22.8419C23.7578 10.2632 24.5 11.0052 24.5 11.9207V13.0787C24.5 13.9191 23.9466 14.7368 22.8419 14.7368H22.5584C22.5255 14.7368 22.4938 14.7627 22.4828 14.8083C22.2458 15.7887 21.8598 16.7208 21.3405 17.5734C21.3155 17.6146 21.3197 17.6565 21.3433 17.6801L21.5412 17.8774C22.1887 18.5249 22.1887 19.5748 21.5411 20.2225L20.7223 21.0406C20.0748 21.6881 19.0249 21.6881 18.3774 21.0406L18.1807 20.8438C18.1566 20.8198 18.1151 20.8156 18.0744 20.8403C17.2218 21.3595 16.2904 21.7451 15.3101 21.982C15.2634 21.9934 15.2368 22.026 15.2368 22.0596V22.3419C15.2368 23.2575 14.4945 24 13.5787 24H12.4213C11.424 24 10.7912 23.5097 10.7632 22.3419V22.0584C10.7632 22.0251 10.7376 21.9939 10.6915 21.9827C9.71008 21.745 8.77879 21.3595 7.92594 20.8405C7.88488 20.8156 7.84338 20.8198 7.81933 20.8438L7.62255 21.0406C6.97507 21.6881 5.92515 21.6881 5.2778 21.0407L4.45878 20.2223C3.8113 19.5748 3.8113 18.5249 4.45933 17.8769L4.65561 17.6812C4.68025 17.6565 4.68451 17.6146 4.65968 17.5738C4.14074 16.7217 3.75507 15.7904 3.51711 14.8085C3.50612 14.7628 3.47417 14.7368 3.43978 14.7368H3.15806C2.24225 14.7368 1.5 13.9943 1.5 13.0787V11.9207C1.5 10.9849 1.92365 10.4477 2.61976 10.3052C2.79104 10.2702 2.92091 10.2632 3.15806 10.2632H3.441C3.4745 10.2632 3.50606 10.2374 3.51722 10.1911C3.75403 9.21126 4.13986 8.27981 4.65947 7.42594C4.68445 7.38485 4.68021 7.34337 4.65556 7.31872L4.45878 7.12194C3.8113 6.47446 3.8113 5.42515 4.45878 4.77767L5.27767 3.95878C5.92515 3.3113 6.97507 3.3113 7.62255 3.95878L7.81989 4.15612C7.84355 4.17985 7.88459 4.184 7.9256 4.15907C8.77819 3.63985 9.70961 3.25429 10.6899 3.01737C10.7369 3.00594 10.7632 2.97369 10.7632 2.93978V2.65744C10.7632 1.74194 11.5054 1 12.4213 1H13.5787C14.4688 1 15.2103 1.47147 15.2368 2.65744V2.941C15.2368 2.97441 15.2627 3.0061 15.3082 3.0172C16.2893 3.25417 17.2208 3.6396 18.0741 4.15886C18.1154 4.184 18.1565 4.17985 18.1807 4.15556L18.3774 3.95878C19.0249 3.3113 20.0748 3.3113 20.7223 3.95878L21.5412 4.77767C22.1887 5.42515 22.1887 6.47446 21.5412 7.12194L21.3444 7.31872C21.3198 7.34337 21.3156 7.38485 21.3403 7.4256C21.8593 8.27773 22.2449 9.20902 22.4829 10.1909C22.4939 10.2367 22.5263 10.2631 22.5602 10.2632ZM22.8419 13.7368C23.2929 13.7368 23.5 13.4307 23.5 13.0787V11.9207C23.5 11.5575 23.2056 11.2632 22.8419 11.2632L22.5591 11.2632C22.0559 11.2621 21.6281 10.9129 21.5108 10.4257C21.2974 9.54501 20.9515 8.70972 20.486 7.94539C20.2253 7.51646 20.2814 6.96756 20.6373 6.61161L20.8341 6.41484C21.0911 6.15788 21.0911 5.74174 20.8341 5.48478L20.0152 4.66589C19.7583 4.40893 19.3415 4.40893 19.0846 4.66589L18.8883 4.8621C18.5329 5.21867 17.9837 5.27418 17.5544 5.01324C16.7891 4.54754 15.9538 4.20189 15.0725 3.98901C14.5855 3.87037 14.2368 3.44366 14.2368 2.941L14.2369 2.66867C14.2252 2.1488 13.9912 2 13.5787 2H12.4213C12.0576 2 11.7632 2.29431 11.7632 2.65744V2.93978C11.7632 3.44314 11.4138 3.87053 10.9254 3.98923C10.0453 4.20195 9.21004 4.5477 8.44539 5.01336C8.01633 5.27418 7.46709 5.21867 7.11222 4.86266L6.91545 4.66589C6.65849 4.40893 6.24174 4.40893 5.98478 4.66589L5.16589 5.48478C4.90893 5.74174 4.90893 6.15788 5.16589 6.41484L5.36266 6.61161C5.71861 6.96756 5.77472 7.51646 5.51385 7.94559C5.04773 8.71157 4.7017 9.54694 4.48933 10.4256C4.37182 10.9137 3.94422 11.2632 3.441 11.2632H3.15806C2.98629 11.2632 2.90506 11.2676 2.82024 11.2849C2.59649 11.3307 2.5 11.4531 2.5 11.9207V13.0787C2.5 13.4421 2.79462 13.7368 3.15806 13.7368H3.43978C3.9434 13.7368 4.37177 14.0861 4.48916 14.5737C4.70259 15.4544 5.0485 16.2897 5.51397 17.054C5.77451 17.4826 5.71876 18.0312 5.36273 18.3883L5.16589 18.5846C4.90893 18.8415 4.90893 19.2583 5.16575 19.5151L5.98478 20.3335C6.24174 20.5905 6.65849 20.5905 6.91545 20.3335L7.11222 20.1367C7.46773 19.7812 8.01666 19.7254 8.44559 19.9861C9.21056 20.4517 10.0459 20.7975 10.9264 21.0107C11.414 21.1284 11.7632 21.5554 11.7632 22.0584L11.7631 22.3299C11.7765 22.8861 11.9234 23 12.4213 23H13.5787C13.9422 23 14.2368 22.7053 14.2368 22.3419V22.0596C14.2368 21.5567 14.5864 21.1288 15.0746 21.0102C15.9547 20.7974 16.79 20.4517 17.5546 19.986C17.9833 19.7254 18.5323 19.7812 18.8878 20.1367L19.0846 20.3335C19.3415 20.5905 19.7583 20.5905 20.0154 20.3334L20.8341 19.5152C21.0911 19.2583 21.0911 18.8415 20.8347 18.5851L20.6362 18.3872C20.2812 18.0312 20.2255 17.4826 20.4862 17.0537C20.952 16.2889 21.2982 15.453 21.5107 14.5736C21.6283 14.0861 22.0559 13.7368 22.5584 13.7368H22.8419ZM13 18.5C9.68629 18.5 7 15.8137 7 12.5C7 9.18629 9.68629 6.5 13 6.5C16.3137 6.5 19 9.18629 19 12.5C19 15.8137 16.3137 18.5 13 18.5ZM18 12.5C18 15.2614 15.7614 17.5 13 17.5C10.2386 17.5 8 15.2614 8 12.5C8 9.73858 10.2386 7.5 13 7.5C15.7614 7.5 18 9.73858 18 12.5Z" fill="#8E8E93"/>
</svg>
