<svg width="24" height="15" viewBox="0 0 24 15" fill="none" xmlns="http://www.w3.org/2000/svg">
<path d="M18.6583 6.06205L18.7131 6.5H19.1544C19.6868 6.5 20.181 6.60347 20.6422 6.80806C21.1137 7.01721 21.5217 7.29915 21.8679 7.65511C22.2146 8.01154 22.4911 8.43211 22.6967 8.92307C22.8977 9.40327 23 9.92805 23 10.5C23 11.0642 22.8992 11.5824 22.7015 12.0611C22.5002 12.5485 22.2249 12.9722 21.8761 13.3349C21.5269 13.6979 21.1212 13.9835 20.6555 14.1931C20.2002 14.398 19.7113 14.5 19.1875 14.5H6.25C5.52423 14.5 4.84762 14.3578 4.21213 14.0751C3.56987 13.7895 3.01542 13.3981 2.53999 12.902C2.06508 12.4065 1.68883 11.824 1.41092 11.1483C1.13684 10.4819 1 9.76696 1 9C1 8.23412 1.1379 7.52035 1.41108 6.85128C1.68914 6.17684 2.06545 5.59313 2.53999 5.09795C3.01464 4.60267 3.57042 4.21231 4.21266 3.92461C4.848 3.64213 5.52443 3.5 6.25 3.5C6.55979 3.5 6.87493 3.53108 7.1973 3.59535L7.53807 3.66329L7.72056 3.36759C7.99892 2.91653 8.32033 2.51326 8.6848 2.15515C9.04935 1.79697 9.442 1.49803 9.86856 1.25488L9.86971 1.25422C10.2948 1.01039 10.749 0.822967 11.2304 0.694625C11.7119 0.566248 12.2077 0.5 12.7188 0.5C13.4867 0.5 14.2065 0.641078 14.8811 0.919651C15.5638 1.20156 16.1659 1.58872 16.6882 2.08125L16.6887 2.08168C17.2134 2.57531 17.6489 3.16195 17.9933 3.84705L17.9938 3.84811C18.3373 4.52755 18.5587 5.26532 18.6583 6.06205Z" fill="#E1E1E1" stroke="#8E8E93"/>
</svg>
