<svg width="2048px" height="2048px" viewBox="0 0 2048 2048" xmlns="http://www.w3.org/2000/svg" xmlns:xlink="http://www.w3.org/1999/xlink"><path transform="translate(0,2048) scale(1,-1)" d= "M192 2048Q232 2048 267 2033Q302 2018 328 1992Q354 1966 369 1931Q384 1896 384 1856Q384 1816 369 1781Q354 1746 328 1720Q302 1694 267 1679Q232 1664 192 1664Q152 1664 117 1679Q82 1694 56 1720Q30 1746 15 1781Q0 1816 0 1856Q0 1896 15 1931Q30 1966 56 1992Q82 2018 117 2033Q152 2048 192 2048ZM960 2048Q1000 2048 1035 2033Q1070 2018 1096 1992Q1122 1966 1137 1931Q1152 1896 1152 1856Q1152 1816 1137 1781Q1122 1746 1096 1720Q1070 1694 1035 1679Q1000 1664 960 1664Q920 1664 885 1679Q850 1694 824 1720Q798 1746 783 1781Q768 1816 768 1856Q768 1896 783 1931Q798 1966 824 1992Q850 2018 885 2033Q920 2048 960 2048ZM1728 1664Q1688 1664 1653 1679Q1618 1694 1592 1720Q1566 1746 1551 1781Q1536 1816 1536 1856Q1536 1896 1551 1931Q1566 1966 1592 1992Q1618 2018 1653 2033Q1688 2048 1728 2048Q1768 2048 1803 2033Q1838 2018 1864 1992Q1890 1966 1905 1931Q1920 1896 1920 1856Q1920 1816 1905 1781Q1890 1746 1864 1720Q1838 1694 1803 1679Q1768 1664 1728 1664ZM192 1280Q232 1280 267 1265Q302 1250 328 1224Q354 1198 369 1163Q384 1128 384 1088Q384 1048 369 1013Q354 978 328 952Q302 926 267 911Q232 896 192 896Q152 896 117 911Q82 926 56 952Q30 978 15 1013Q0 1048 0 1088Q0 1128 15 1163Q30 1198 56 1224Q82 1250 117 1265Q152 1280 192 1280ZM960 1280Q1000 1280 1035 1265Q1070 1250 1096 1224Q1122 1198 1137 1163Q1152 1128 1152 1088Q1152 1048 1137 1013Q1122 978 1096 952Q1070 926 1035 911Q1000 896 960 896Q920 896 885 911Q850 926 824 952Q798 978 783 1013Q768 1048 768 1088Q768 1128 783 1163Q798 1198 824 1224Q850 1250 885 1265Q920 1280 960 1280ZM1728 1280Q1768 1280 1803 1265Q1838 1250 1864 1224Q1890 1198 1905 1163Q1920 1128 1920 1088Q1920 1048 1905 1013Q1890 978 1864 952Q1838 926 1803 911Q1768 896 1728 896Q1688 896 1653 911Q1618 926 1592 952Q1566 978 1551 1013Q1536 1048 1536 1088Q1536 1128 1551 1163Q1566 1198 1592 1224Q1618 1250 1653 1265Q1688 1280 1728 1280ZM192 512Q232 512 267 497Q302 482 328 456Q354 430 369 395Q384 360 384 320Q384 280 369 245Q354 210 328 184Q302 158 267 143Q232 128 192 128Q152 128 117 143Q82 158 56 184Q30 210 15 245Q0 280 0 320Q0 360 15 395Q30 430 56 456Q82 482 117 497Q152 512 192 512ZM960 512Q1000 512 1035 497Q1070 482 1096 456Q1122 430 1137 395Q1152 360 1152 320Q1152 280 1137 245Q1122 210 1096 184Q1070 158 1035 143Q1000 128 960 128Q920 128 885 143Q850 158 824 184Q798 210 783 245Q768 280 768 320Q768 360 783 395Q798 430 824 456Q850 482 885 497Q920 512 960 512ZM1728 512Q1768 512 1803 497Q1838 482 1864 456Q1890 430 1905 395Q1920 360 1920 320Q1920 280 1905 245Q1890 210 1864 184Q1838 158 1803 143Q1768 128 1728 128Q1688 128 1653 143Q1618 158 1592 184Q1566 210 1551 245Q1536 280 1536 320Q1536 360 1551 395Q1566 430 1592 456Q1618 482 1653 497Q1688 512 1728 512Z"></path></svg>