<svg width="16" height="16" viewBox="0 0 16 16" fill="none" xmlns="http://www.w3.org/2000/svg">
<rect width="16" height="16" fill="black" fill-opacity="0"/>
<circle cx="8" cy="8" r="6" fill="white"/>
<path d="M8.03906 1C8.67969 1 9.29427 1.08333 9.88281 1.25C10.4766 1.41667 11.0312 1.65104 11.5469 1.95312C12.0625 2.25521 12.5312 2.61979 12.9531 3.04688C13.3802 3.46875 13.7448 3.9375 14.0469 4.45312C14.349 4.96875 14.5833 5.52344 14.75 6.11719C14.9167 6.70573 15 7.32031 15 7.96094C15 8.60156 14.9167 9.21875 14.75 9.8125C14.5833 10.401 14.349 10.9531 14.0469 11.4688C13.7448 11.9844 13.3802 12.4557 12.9531 12.8828C12.5312 13.3047 12.0625 13.6667 11.5469 13.9688C11.0312 14.2708 10.4766 14.5052 9.88281 14.6719C9.29427 14.8385 8.67969 14.9219 8.03906 14.9219C7.39844 14.9219 6.78125 14.8385 6.1875 14.6719C5.59896 14.5052 5.04688 14.2708 4.53125 13.9688C4.01562 13.6667 3.54427 13.3047 3.11719 12.8828C2.69531 12.4557 2.33333 11.9844 2.03125 11.4688C1.72917 10.9531 1.49479 10.401 1.32812 9.8125C1.16146 9.21875 1.07812 8.60156 1.07812 7.96094C1.07812 7.32031 1.16146 6.70573 1.32812 6.11719C1.49479 5.52344 1.72917 4.96875 2.03125 4.45312C2.33333 3.9375 2.69531 3.46875 3.11719 3.04688C3.54427 2.61979 4.01562 2.25521 4.53125 1.95312C5.04688 1.65104 5.59896 1.41667 6.1875 1.25C6.78125 1.08333 7.39844 1 8.03906 1ZM8.03906 13.9219C8.58594 13.9219 9.11198 13.8516 9.61719 13.7109C10.1276 13.5651 10.6042 13.3646 11.0469 13.1094C11.4896 12.849 11.8906 12.5391 12.25 12.1797C12.6146 11.8151 12.9245 11.4115 13.1797 10.9688C13.4401 10.526 13.6406 10.0521 13.7812 9.54688C13.9271 9.03646 14 8.50781 14 7.96094C14 7.41406 13.9271 6.88802 13.7812 6.38281C13.6406 5.8724 13.4401 5.39844 13.1797 4.96094C12.9245 4.51823 12.6146 4.11458 12.25 3.75C11.8854 3.38542 11.4818 3.07552 11.0391 2.82031C10.6016 2.5599 10.1276 2.35938 9.61719 2.21875C9.11198 2.07292 8.58594 2 8.03906 2C7.49219 2 6.96354 2.07292 6.45312 2.21875C5.94792 2.35938 5.47396 2.5599 5.03125 2.82031C4.58854 3.07552 4.1849 3.38542 3.82031 3.75C3.46094 4.10938 3.15104 4.51042 2.89062 4.95312C2.63542 5.39583 2.4349 5.8724 2.28906 6.38281C2.14844 6.88802 2.07812 7.41406 2.07812 7.96094C2.07812 8.50781 2.14844 9.03646 2.28906 9.54688C2.4349 10.0521 2.63542 10.526 2.89062 10.9688C3.15104 11.4115 3.46094 11.8151 3.82031 12.1797C4.1849 12.5391 4.58854 12.849 5.03125 13.1094C5.47396 13.3646 5.94792 13.5651 6.45312 13.7109C6.96354 13.8516 7.49219 13.9219 8.03906 13.9219Z" fill="#3A3A3A"/>
<path d="M6.71094 8L9.60156 5.10156L8.89844 4.39844L5.28906 8L8.89844 11.6016L9.60156 10.8984L6.71094 8Z" fill="#0D64AF"/>
</svg>
