<svg width="16" height="16" viewBox="0 0 16 16" fill="none" xmlns="http://www.w3.org/2000/svg">
<rect width="16" height="16" fill="black" fill-opacity="0"/>
<path d="M1 9H6V8H1L0 8.5L1 9Z" fill="#3A3A3A"/>
<path d="M16 5V12H15.5C15.0938 12 14.7214 11.9141 14.3828 11.7422C14.0443 11.5651 13.7526 11.3177 13.5078 11H9.64844C9.5026 11.3073 9.32031 11.5859 9.10156 11.8359C8.88281 12.0807 8.63542 12.2891 8.35938 12.4609C8.08854 12.6328 7.79427 12.7656 7.47656 12.8594C7.16406 12.9531 6.83854 13 6.5 13H6V4H6.5C6.83854 4 7.16406 4.04688 7.47656 4.14062C7.79427 4.23438 8.08854 4.36719 8.35938 4.53906C8.63542 4.71094 8.88281 4.92188 9.10156 5.17188C9.32031 5.41667 9.5026 5.69271 9.64844 6H13.5078C13.7526 5.68229 14.0443 5.4375 14.3828 5.26562C14.7214 5.08854 15.0938 5 15.5 5H16Z" fill="#F7DA93"/>
<path fill-rule="evenodd" clip-rule="evenodd" d="M13.5078 11C13.7526 11.3177 14.0443 11.5651 14.3828 11.7422C14.5774 11.841 14.7831 11.9113 15 11.9534C15.1605 11.9845 15.3272 12 15.5 12H16V5H15.5C15.3272 5 15.1605 5.01602 15 5.04805C14.7831 5.09134 14.5774 5.16386 14.3828 5.26562C14.0443 5.4375 13.7526 5.68229 13.5078 6H9.64844C9.5026 5.69271 9.32031 5.41667 9.10156 5.17188C8.88281 4.92188 8.63542 4.71094 8.35938 4.53906C8.08854 4.36719 7.79427 4.23438 7.47656 4.14062C7.32094 4.09394 7.16208 4.05888 7 4.03544C6.83661 4.01181 6.66995 4 6.5 4H6V13H6.5C6.66995 13 6.83661 12.9882 7 12.9646C7.16208 12.9411 7.32094 12.9061 7.47656 12.8594C7.79427 12.7656 8.08854 12.6328 8.35938 12.4609C8.63542 12.2891 8.88281 12.0807 9.10156 11.8359C9.32031 11.5859 9.5026 11.3073 9.64844 11H13.5078ZM8.35242 11.1735C8.5076 10.9954 8.63848 10.7957 8.74501 10.5713L9.01612 10H13.9997L14.3 10.3897C14.4595 10.5967 14.6391 10.7467 14.8408 10.8532C14.8918 10.8788 14.9447 10.9013 15 10.9206V6.0836C14.9468 6.10314 14.8956 6.12592 14.8463 6.15172L14.8355 6.15736C14.6371 6.2581 14.4592 6.40369 14.3 6.61034L13.9997 7H9.01612L8.74501 6.42874C8.63866 6.20464 8.50871 6.0092 8.35591 5.83821L8.34894 5.83042C8.19366 5.65295 8.02141 5.50663 7.83082 5.38796L7.82353 5.38342C7.63376 5.26299 7.42499 5.16804 7.19355 5.09974L7.18921 5.09846C7.12722 5.07986 7.06418 5.06382 7 5.0504V11.9496C7.06418 11.9362 7.12722 11.9201 7.18921 11.9015L7.19354 11.9003C7.42499 11.832 7.63378 11.737 7.82355 11.6166L7.8308 11.612C8.02394 11.4917 8.19727 11.3464 8.35242 11.1735Z" fill="#EB863E"/>
</svg>
