<svg width="16" height="17" viewBox="0 0 16 17" fill="none" xmlns="http://www.w3.org/2000/svg">
<rect width="16" height="16" fill="black" fill-opacity="0" transform="translate(0 1)"/>
<path d="M8 2H3V15H12V6H8V2Z" fill="white"/>
<path d="M9 5H11.2891L9 2.71094V5Z" fill="white"/>
<path d="M8.71094 1L13 5.28906V6H8V1H8.71094ZM9 5H11.2891L9 2.71094V5ZM12 8V7H13V8H12ZM12 10V9H13V10H12ZM12 12V11H13V12H12ZM12 14V13H13V14H12ZM12 16V15H13V16H12ZM10 16V15H11V16H10ZM8 16V15H9V16H8ZM6 16V15H7V16H6ZM4 16V15H5V16H4ZM2 16V15H3V16H2ZM2 8V7H3V8H2ZM2 6V5H3V6H2ZM2 4V3H3V4H2ZM2 2V1H3V2H2ZM4 2V1H5V2H4ZM6 2V1H7V2H6ZM2 10V9H3V10H2ZM2 12V11H3V12H2ZM2 14V13H3V14H2Z" fill="#3A3A3A"/>
</svg>
