<svg width="16" height="16" viewBox="0 0 16 16" fill="none" xmlns="http://www.w3.org/2000/svg">
<rect width="16" height="16" fill="black" fill-opacity="0"/>
<path d="M15 7H1V13H4V10H12V13H15V7ZM2.5 8C2.63542 8 2.7526 8.04948 2.85156 8.14844C2.95052 8.2474 3 8.36458 3 8.5C3 8.63542 2.95052 8.7526 2.85156 8.85156C2.7526 8.95052 2.63542 9 2.5 9C2.36458 9 2.2474 8.95052 2.14844 8.85156C2.04948 8.7526 2 8.63542 2 8.5C2 8.36458 2.04948 8.2474 2.14844 8.14844C2.2474 8.04948 2.36458 8 2.5 8Z" fill="#C8C6C4"/>
<rect x="5" y="1" width="6" height="5" fill="white"/>
<rect x="5" y="11" width="6" height="4" fill="white"/>
<path d="M15 6C15.1354 6 15.263 6.02604 15.3828 6.07812C15.5078 6.13021 15.6146 6.20312 15.7031 6.29688C15.7969 6.38542 15.8698 6.49219 15.9219 6.61719C15.974 6.73698 16 6.86458 16 7V14H12V16H4V14H0V7C0 6.86458 0.0260417 6.73698 0.078125 6.61719C0.130208 6.49219 0.200521 6.38542 0.289062 6.29688C0.382812 6.20312 0.489583 6.13021 0.609375 6.07812C0.734375 6.02604 0.864583 6 1 6H4V0H12V6H15ZM5 6H11V1H5V6ZM11 11H5V15H11V11ZM15 7H1V13H4V10H12V13H15V7ZM2.5 8C2.63542 8 2.7526 8.04948 2.85156 8.14844C2.95052 8.2474 3 8.36458 3 8.5C3 8.63542 2.95052 8.7526 2.85156 8.85156C2.7526 8.95052 2.63542 9 2.5 9C2.36458 9 2.2474 8.95052 2.14844 8.85156C2.04948 8.7526 2 8.63542 2 8.5C2 8.36458 2.04948 8.2474 2.14844 8.14844C2.2474 8.04948 2.36458 8 2.5 8Z" fill="#3A3A3A"/>
</svg>
