<svg width="16" height="16" viewBox="0 0 16 16" fill="none" xmlns="http://www.w3.org/2000/svg">
<rect width="16" height="16" fill="black" fill-opacity="0"/>
<path d="M12.5 10C12.224 10 11.9635 9.94792 11.7188 9.84375C11.4792 9.73958 11.2682 9.59635 11.0859 9.41406C10.9036 9.23177 10.7604 9.02083 10.6562 8.78125C10.5521 8.53646 10.5 8.27604 10.5 8C10.5 7.72396 10.5521 7.46615 10.6562 7.22656C10.7604 6.98177 10.9036 6.76823 11.0859 6.58594C11.2682 6.40365 11.4792 6.26042 11.7188 6.15625C11.9635 6.05208 12.224 6 12.5 6H13V4H10V2.5C10 2.35938 9.97396 2.22917 9.92188 2.10938C9.86979 1.98958 9.79688 1.88542 9.70312 1.79688C9.61458 1.70312 9.51042 1.63021 9.39062 1.57812C9.27083 1.52604 9.14062 1.5 9 1.5C8.85938 1.5 8.72917 1.52604 8.60938 1.57812C8.48958 1.63021 8.38281 1.70312 8.28906 1.79688C8.20052 1.88542 8.13021 1.98958 8.07812 2.10938C8.02604 2.22917 8 2.35938 8 2.5V4H5V7H3.5C3.35938 7 3.22917 7.02604 3.10938 7.07812C2.98958 7.13021 2.88281 7.20312 2.78906 7.29688C2.70052 7.38542 2.63021 7.48958 2.57812 7.60938C2.52604 7.72917 2.5 7.85938 2.5 8C2.5 8.14062 2.52604 8.27083 2.57812 8.39062C2.63021 8.51042 2.70052 8.61719 2.78906 8.71094C2.88281 8.79948 2.98958 8.86979 3.10938 8.92188C3.22917 8.97396 3.35938 9 3.5 9H5V12H8V13.5C8 13.6406 8.02604 13.7708 8.07812 13.8906C8.13021 14.0104 8.20052 14.1172 8.28906 14.2109C8.38281 14.2995 8.48958 14.3698 8.60938 14.4219C8.72917 14.474 8.85938 14.5 9 14.5C9.14062 14.5 9.27083 14.474 9.39062 14.4219C9.51042 14.3698 9.61458 14.2995 9.70312 14.2109C9.79688 14.1172 9.86979 14.0104 9.92188 13.8906C9.97396 13.7708 10 13.6406 10 13.5V12H13V10H12.5Z" fill="white"/>
<path d="M12.5 7C12.3594 7 12.2292 7.02604 12.1094 7.07812C11.9896 7.13021 11.8828 7.20312 11.7891 7.29688C11.7005 7.38542 11.6302 7.48958 11.5781 7.60938C11.526 7.72917 11.5 7.85938 11.5 8C11.5 8.14062 11.526 8.27083 11.5781 8.39062C11.6302 8.51042 11.7005 8.61719 11.7891 8.71094C11.8828 8.79948 11.9896 8.86979 12.1094 8.92188C12.2292 8.97396 12.3594 9 12.5 9H14V13H11V13.5C11 13.776 10.9479 14.0365 10.8438 14.2812C10.7396 14.5208 10.5964 14.7318 10.4141 14.9141C10.2318 15.0964 10.0182 15.2396 9.77344 15.3438C9.53385 15.4479 9.27604 15.5 9 15.5C8.72396 15.5 8.46354 15.4479 8.21875 15.3438C7.97917 15.2396 7.76823 15.0964 7.58594 14.9141C7.40365 14.7318 7.26042 14.5208 7.15625 14.2812C7.05208 14.0365 7 13.776 7 13.5V13H4V10H3.5C3.22396 10 2.96354 9.94792 2.71875 9.84375C2.47917 9.73958 2.26823 9.59635 2.08594 9.41406C1.90365 9.23177 1.76042 9.02083 1.65625 8.78125C1.55208 8.53646 1.5 8.27604 1.5 8C1.5 7.72396 1.55208 7.46615 1.65625 7.22656C1.76042 6.98177 1.90365 6.76823 2.08594 6.58594C2.26823 6.40365 2.47917 6.26042 2.71875 6.15625C2.96354 6.05208 3.22396 6 3.5 6H4V3H7V2.5C7 2.22396 7.05208 1.96615 7.15625 1.72656C7.26042 1.48177 7.40365 1.26823 7.58594 1.08594C7.76823 0.903646 7.97917 0.760417 8.21875 0.65625C8.46354 0.552083 8.72396 0.5 9 0.5C9.27604 0.5 9.53385 0.552083 9.77344 0.65625C10.0182 0.760417 10.2318 0.903646 10.4141 1.08594C10.5964 1.26823 10.7396 1.48177 10.8438 1.72656C10.9479 1.96615 11 2.22396 11 2.5V3H14V7H12.5ZM12.5 10C12.224 10 11.9635 9.94792 11.7188 9.84375C11.4792 9.73958 11.2682 9.59635 11.0859 9.41406C10.9036 9.23177 10.7604 9.02083 10.6562 8.78125C10.5521 8.53646 10.5 8.27604 10.5 8C10.5 7.72396 10.5521 7.46615 10.6562 7.22656C10.7604 6.98177 10.9036 6.76823 11.0859 6.58594C11.2682 6.40365 11.4792 6.26042 11.7188 6.15625C11.9635 6.05208 12.224 6 12.5 6H13V4H10V2.5C10 2.35938 9.97396 2.22917 9.92188 2.10938C9.86979 1.98958 9.79688 1.88542 9.70312 1.79688C9.61458 1.70312 9.51042 1.63021 9.39062 1.57812C9.27083 1.52604 9.14062 1.5 9 1.5C8.85938 1.5 8.72917 1.52604 8.60938 1.57812C8.48958 1.63021 8.38281 1.70312 8.28906 1.79688C8.20052 1.88542 8.13021 1.98958 8.07812 2.10938C8.02604 2.22917 8 2.35938 8 2.5V4H5V7H3.5C3.35938 7 3.22917 7.02604 3.10938 7.07812C2.98958 7.13021 2.88281 7.20312 2.78906 7.29688C2.70052 7.38542 2.63021 7.48958 2.57812 7.60938C2.52604 7.72917 2.5 7.85938 2.5 8C2.5 8.14062 2.52604 8.27083 2.57812 8.39062C2.63021 8.51042 2.70052 8.61719 2.78906 8.71094C2.88281 8.79948 2.98958 8.86979 3.10938 8.92188C3.22917 8.97396 3.35938 9 3.5 9H5V12H8V13.5C8 13.6406 8.02604 13.7708 8.07812 13.8906C8.13021 14.0104 8.20052 14.1172 8.28906 14.2109C8.38281 14.2995 8.48958 14.3698 8.60938 14.4219C8.72917 14.474 8.85938 14.5 9 14.5C9.14062 14.5 9.27083 14.474 9.39062 14.4219C9.51042 14.3698 9.61458 14.2995 9.70312 14.2109C9.79688 14.1172 9.86979 14.0104 9.92188 13.8906C9.97396 13.7708 10 13.6406 10 13.5V12H13V10H12.5Z" fill="#3A3A3A"/>
</svg>
