<svg width="16" height="16" viewBox="0 0 16 16" fill="none" xmlns="http://www.w3.org/2000/svg">
<rect width="16" height="16" fill="black" fill-opacity="0"/>
<path d="M11.0503 3H4V15H7.14893C6.94971 14.9238 6.75732 14.8301 6.57227 14.7183C6.46875 14.6558 6.36865 14.5889 6.27197 14.5176C6.02734 14.3374 5.80566 14.1294 5.60986 13.894L5.60449 13.8872L5.59863 13.8804C5.33691 13.5566 5.13135 13.1973 4.98193 12.8081L4.97656 12.7949L4.97168 12.7812C4.82373 12.3682 4.75 11.939 4.75 11.5C4.75 10.9941 4.84668 10.502 5.04736 10.0366C5.07227 9.97949 5.09814 9.92285 5.12549 9.86719C5.19141 9.73145 5.26465 9.60059 5.3457 9.47461C5.48828 9.25293 5.65381 9.04688 5.84277 8.8584C6.18408 8.5166 6.58105 8.24902 7.02393 8.05713C7.49268 7.85156 7.98877 7.75 8.5 7.75H10.5C10.8115 7.75 11.1172 7.7876 11.4146 7.86426C11.604 7.91309 11.79 7.97754 11.9717 8.05859C12.4116 8.24951 12.8052 8.5166 13.1416 8.8584C13.4072 9.11963 13.6274 9.41504 13.8018 9.74023L14 9.7793V5.94971L11.0503 3Z" fill="white"/>
<path d="M2 13V1H12V3.2998L10.7002 2H3V13H2Z" fill="#F7DA93"/>
<path d="M1 14H3V13H2V1H12V3.28906L13 4.28906V0H1V14Z" fill="#EB863E"/>
<path fill-rule="evenodd" clip-rule="evenodd" d="M8.07031 15C8.14844 15.1821 8.24219 15.3569 8.35156 15.5234C8.46631 15.6899 8.59131 15.8491 8.72656 16H3V2H10.7109L15 6.28906V10.0781C14.8335 10 14.6694 9.93994 14.5078 9.89844C14.3462 9.85693 14.1772 9.81787 14 9.78125V7H10V3H4V15H8.07031ZM11 3.71094L13.2891 6H11V3.71094Z" fill="#3A3A3A"/>
<path d="M5 6H9V7H5V6ZM9 5H5V4H9V5Z" fill="#777777"/>
<path d="M13.9688 11.0469C14.2604 11.1042 14.5312 11.2083 14.7812 11.3594C15.0312 11.5052 15.2448 11.6875 15.4219 11.9062C15.6042 12.125 15.7448 12.3724 15.8438 12.6484C15.9479 12.9193 16 13.2031 16 13.5C16 13.8438 15.9323 14.1693 15.7969 14.4766C15.6667 14.7786 15.487 15.0443 15.2578 15.2734C15.0339 15.4974 14.7708 15.6745 14.4688 15.8047C14.1667 15.9349 13.8438 16 13.5 16H11.5C11.1562 16 10.8307 15.9349 10.5234 15.8047C10.2214 15.6745 9.95573 15.4974 9.72656 15.2734C9.5026 15.0443 9.32552 14.7786 9.19531 14.4766C9.0651 14.1693 9 13.8438 9 13.5C9 13.2031 9.04948 12.9193 9.14844 12.6484C9.2474 12.3776 9.38542 12.1354 9.5625 11.9219C9.73958 11.7031 9.95052 11.5182 10.1953 11.3672C10.4401 11.2161 10.7083 11.1094 11 11.0469V12.0859C10.849 12.138 10.7109 12.2109 10.5859 12.3047C10.4661 12.3984 10.362 12.5078 10.2734 12.6328C10.1849 12.7578 10.1172 12.8958 10.0703 13.0469C10.0234 13.1927 10 13.3438 10 13.5C10 13.7083 10.0391 13.9036 10.1172 14.0859C10.1953 14.2682 10.3021 14.4271 10.4375 14.5625C10.5729 14.6979 10.7318 14.8047 10.9141 14.8828C11.0964 14.9609 11.2917 15 11.5 15H13.5C13.7083 15 13.9036 14.9609 14.0859 14.8828C14.2682 14.8047 14.4271 14.6979 14.5625 14.5625C14.6979 14.4271 14.8047 14.2682 14.8828 14.0859C14.9609 13.9036 15 13.7083 15 13.5C15 13.3385 14.974 13.1823 14.9219 13.0312C14.875 12.8802 14.8047 12.7422 14.7109 12.6172C14.6172 12.4922 14.5052 12.3828 14.375 12.2891C14.25 12.1953 14.1094 12.1224 13.9531 12.0703C13.9844 11.8828 14 11.6927 14 11.5C14 11.4271 13.9974 11.3516 13.9922 11.2734C13.987 11.1953 13.9792 11.1198 13.9688 11.0469ZM11 12.9141C11.224 12.8672 11.401 12.8073 11.5312 12.7344C11.6615 12.6562 11.7604 12.5599 11.8281 12.4453C11.901 12.3307 11.9479 12.1953 11.9688 12.0391C11.9896 11.8828 12 11.7031 12 11.5C12 11.2917 11.9609 11.0964 11.8828 10.9141C11.8047 10.7318 11.6979 10.5729 11.5625 10.4375C11.4271 10.3021 11.2682 10.1953 11.0859 10.1172C10.9036 10.0391 10.7083 10 10.5 10H8.5C8.29167 10 8.09635 10.0391 7.91406 10.1172C7.73177 10.1953 7.57292 10.3021 7.4375 10.4375C7.30208 10.5729 7.19531 10.7318 7.11719 10.9141C7.03906 11.0964 7 11.2917 7 11.5C7 11.6667 7.02344 11.8255 7.07031 11.9766C7.1224 12.1224 7.19531 12.2578 7.28906 12.3828C7.38281 12.5078 7.49219 12.6172 7.61719 12.7109C7.7474 12.8047 7.89062 12.8776 8.04688 12.9297C8.01562 13.1172 8 13.3073 8 13.5C8 13.5729 8.0026 13.6484 8.00781 13.7266C8.01302 13.8047 8.02083 13.8802 8.03125 13.9531C7.73958 13.901 7.46875 13.7995 7.21875 13.6484C6.96875 13.4974 6.7526 13.3125 6.57031 13.0938C6.39323 12.875 6.2526 12.6302 6.14844 12.3594C6.04948 12.0833 6 11.7969 6 11.5C6 11.1562 6.0651 10.8333 6.19531 10.5312C6.32552 10.2292 6.5026 9.96615 6.72656 9.74219C6.95573 9.51302 7.22135 9.33333 7.52344 9.20312C7.83073 9.06771 8.15625 9 8.5 9H10.5C10.8438 9 11.1667 9.06771 11.4688 9.20312C11.7708 9.33333 12.0339 9.51302 12.2578 9.74219C12.487 9.96615 12.6667 10.2292 12.7969 10.5312C12.9323 10.8333 13 11.1562 13 11.5C13 11.7812 12.9453 12.0573 12.8359 12.3281C12.7318 12.5938 12.5885 12.8359 12.4062 13.0547C12.224 13.2734 12.0104 13.4635 11.7656 13.625C11.526 13.7812 11.2708 13.8906 11 13.9531V12.9141Z" fill="#777777"/>
</svg>
