<svg width="16" height="17" viewBox="0 0 16 17" fill="none" xmlns="http://www.w3.org/2000/svg">
<rect width="16" height="16" fill="black" fill-opacity="0"/>
<path d="M8 1C7.44775 1 7 1.44775 7 2V3H3V15H9V9.5H13V3H9V2C9 1.78857 8.93457 1.59277 8.82275 1.43164C8.64209 1.1709 8.34082 1 8 1Z" fill="white"/>
<path d="M10.3125 7.25C10.3125 7.08854 10.2578 6.95833 10.1484 6.85938C10.0391 6.75521 9.90625 6.70312 9.75 6.70312C9.67708 6.70312 9.60417 6.71615 9.53125 6.74219C9.46354 6.76302 9.40365 6.79948 9.35156 6.85156L5.46094 10.7812L5.25 11.7656L6.25781 11.5781L10.1484 7.64844C10.2578 7.53906 10.3125 7.40625 10.3125 7.25Z" fill="#85BFEA"/>
<path d="M8.64844 6.14844C8.79427 6.0026 8.96354 5.89323 9.15625 5.82031C9.34896 5.74219 9.54688 5.70312 9.75 5.70312C9.96354 5.70312 10.1641 5.74479 10.3516 5.82812C10.5443 5.90625 10.7109 6.01562 10.8516 6.15625C10.9922 6.29167 11.1042 6.45312 11.1875 6.64062C11.2708 6.82812 11.3125 7.03125 11.3125 7.25C11.3125 7.45833 11.2708 7.65625 11.1875 7.84375C11.1094 8.03125 10.9974 8.20052 10.8516 8.35156L6.74219 12.5L3.95312 13.0312L4.53906 10.2891L8.64844 6.14844ZM10.3125 7.25C10.3125 7.08854 10.2578 6.95833 10.1484 6.85938C10.0391 6.75521 9.90625 6.70312 9.75 6.70312C9.67708 6.70312 9.60417 6.71615 9.53125 6.74219C9.46354 6.76302 9.40365 6.79948 9.35156 6.85156L5.46094 10.7812L5.25 11.7656L6.25781 11.5781L10.1484 7.64844C10.2578 7.53906 10.3125 7.40625 10.3125 7.25Z" fill="#0D64AF"/>
<path d="M3 15H9V16H2V2H6C6 1.72396 6.05208 1.46615 6.15625 1.22656C6.26042 0.981771 6.40365 0.768229 6.58594 0.585938C6.76823 0.403646 6.97917 0.260417 7.21875 0.15625C7.46354 0.0520833 7.72396 0 8 0C8.27604 0 8.53385 0.0520833 8.77344 0.15625C9.01823 0.260417 9.23177 0.403646 9.41406 0.585938C9.59635 0.768229 9.73958 0.981771 9.84375 1.22656C9.94792 1.46615 10 1.72396 10 2H14V9H13V3H12V5H4V3H3V15ZM5 3V4H11V3H9V2C9 1.85938 8.97396 1.72917 8.92188 1.60938C8.86979 1.48958 8.79688 1.38542 8.70312 1.29688C8.61458 1.20312 8.51042 1.13021 8.39062 1.07812C8.27083 1.02604 8.14062 1 8 1C7.85938 1 7.72917 1.02604 7.60938 1.07812C7.48958 1.13021 7.38281 1.20312 7.28906 1.29688C7.20052 1.38542 7.13021 1.48958 7.07812 1.60938C7.02604 1.72917 7 1.85938 7 2V3H5Z" fill="#3A3A3A"/>
<path d="M13.5 10.5C13.8438 10.5 14.1667 10.5651 14.4688 10.6953C14.776 10.8255 15.0417 11.0052 15.2656 11.2344C15.4948 11.4583 15.6745 11.724 15.8047 12.0312C15.9349 12.3333 16 12.6562 16 13C16 13.3385 15.9375 13.6589 15.8125 13.9609C15.6875 14.2578 15.5052 14.526 15.2656 14.7656L13.8516 16.1797L13.1484 15.4766L14.5625 14.0625C14.7031 13.9219 14.8099 13.7604 14.8828 13.5781C14.9609 13.3906 15 13.1979 15 13C15 12.7917 14.9609 12.5964 14.8828 12.4141C14.8047 12.2318 14.6979 12.0729 14.5625 11.9375C14.4271 11.8021 14.2682 11.6953 14.0859 11.6172C13.9036 11.5391 13.7083 11.5 13.5 11.5C13.3021 11.5 13.1094 11.5391 12.9219 11.6172C12.7396 11.6901 12.5781 11.7969 12.4375 11.9375L11.3828 13H13.5V14H10V10.5H11V11.9609C11.1979 11.763 11.3828 11.5755 11.5547 11.3984C11.7318 11.2214 11.9141 11.0677 12.1016 10.9375C12.2891 10.8021 12.4948 10.6953 12.7188 10.6172C12.9427 10.5391 13.2031 10.5 13.5 10.5Z" fill="#0D64AF"/>
</svg>
