<svg width="16" height="16" viewBox="0 0 16 16" fill="none" xmlns="http://www.w3.org/2000/svg">
<rect width="16" height="16" fill="black" fill-opacity="0"/>
<path d="M14.1875 4.75781C13.8594 4.1276 13.4427 3.5625 12.9375 3.0625C12.4375 2.55729 11.8724 2.14062 11.2422 1.8125L11.625 0.890625C12.375 1.27604 13.0469 1.76562 13.6406 2.35938C14.2396 2.95312 14.7318 3.625 15.1172 4.375L14.1875 4.75781ZM1 8C1 8.35417 1.02604 8.70573 1.07812 9.05469C1.13021 9.40365 1.21094 9.7474 1.32031 10.0859L0.398438 10.4688C0.132812 9.67188 0 8.84896 0 8C0 7.15104 0.132812 6.32812 0.398438 5.53125L1.32812 5.91406C1.22396 6.2526 1.14323 6.59635 1.08594 6.94531C1.02865 7.29427 1 7.64583 1 8ZM5 4V1.6875C4.3125 2.01562 3.69792 2.44271 3.15625 2.96875C2.61458 3.48958 2.16667 4.08594 1.8125 4.75781L0.882812 4.375C1.2474 3.66146 1.70833 3.01823 2.26562 2.44531C2.82292 1.8724 3.45312 1.39062 4.15625 1H2V0H6V4H5ZM1.80469 11.2422C2.13281 11.8724 2.54948 12.4401 3.05469 12.9453C3.5599 13.4505 4.1276 13.8672 4.75781 14.1953L4.375 15.125C3.625 14.7344 2.95052 14.2422 2.35156 13.6484C1.75781 13.0495 1.26562 12.375 0.875 11.625L1.80469 11.2422ZM15 8C15 7.64583 14.9714 7.29427 14.9141 6.94531C14.8568 6.59635 14.776 6.2526 14.6719 5.91406L15.6016 5.53125C15.8672 6.32812 16 7.15104 16 8H15ZM5.91406 14.6797C6.2526 14.7891 6.59635 14.8698 6.94531 14.9219C7.29427 14.974 7.64583 15 8 15V16C7.14583 16 6.32031 15.8672 5.52344 15.6016L5.91406 14.6797Z" fill="#3A3A3A"/>
<path d="M7 10.2344L10 8.5L7 6.76562V10.2344Z" fill="#85BFEA"/>
<path d="M6 5.03906L12 8.5L6 11.9609V5.03906ZM7 10.2344L10 8.5L7 6.76562V10.2344Z" fill="#0D64AF"/>
<path d="M15.1484 10.6484L15.8516 11.3516L11.5 15.7109L9.39844 13.6016L10.1016 12.8984L11.5 14.2891L15.1484 10.6484Z" fill="#25A954"/>
</svg>
