<svg width="16" height="16" viewBox="0 0 16 16" fill="none" xmlns="http://www.w3.org/2000/svg">
<rect width="16" height="16" fill="black" fill-opacity="0"/>
<path d="M7 15V13H3V15H4V14H5V15H7Z" fill="#C8C6C4"/>
<path d="M3 7V10H7V7H3Z" fill="white"/>
<path d="M9 7H8V11H2V7H1V14.2891L1.71094 15H2V12H8V15H9V7Z" fill="#85BFEA"/>
<path d="M9 6C9.14062 6 9.27083 6.02604 9.39062 6.07812C9.51042 6.13021 9.61458 6.20312 9.70312 6.29688C9.79688 6.38542 9.86979 6.48958 9.92188 6.60938C9.97396 6.72917 10 6.85938 10 7V16H1.28906L0 14.7109V7C0 6.85938 0.0260417 6.72917 0.078125 6.60938C0.130208 6.48958 0.200521 6.38542 0.289062 6.29688C0.382812 6.20312 0.489583 6.13021 0.609375 6.07812C0.729167 6.02604 0.859375 6 1 6H9ZM3 7V10H7V7H3ZM7 15V13H3V15H4V14H5V15H7ZM9 7H8V11H2V7H1V14.2891L1.71094 15H2V12H8V15H9V7ZM4 5H3V0H7V1H4V5ZM15 0V8H11V7H14V1H13V0H15Z" fill="#3A3A3A"/>
<path d="M10.5391 2L9.27344 0.726562L9.97656 0.0234375L12.4609 2.5L9.97656 4.97656L9.27344 4.27344L10.5391 3H6V5H5V2H10.5391ZM11.0469 2.5L11 2.46094V2.53906L11.0469 2.5Z" fill="#0D64AF"/>
</svg>
