<svg width="16" height="16" viewBox="0 0 16 16" fill="none" xmlns="http://www.w3.org/2000/svg">
<rect width="16" height="16" fill="black" fill-opacity="0"/>
<path d="M5 3V4H11V3H9V2C9 1.85938 8.97397 1.72917 8.92188 1.60938C8.86978 1.48958 8.79688 1.38542 8.70312 1.29688C8.61459 1.20312 8.51041 1.13021 8.39062 1.07812C8.27084 1.02604 8.14062 1 8 1C7.85938 1 7.72916 1.02604 7.60938 1.07812C7.48959 1.13021 7.38281 1.20312 7.28906 1.29688C7.20053 1.38542 7.13022 1.48958 7.07812 1.60938C7.02603 1.72917 7 1.85938 7 2V3H5Z" fill="white"/>
<path d="M7 5H12V3H13V6.03545C11.3498 6.27149 10.0709 7.65864 10.0029 9.35742C9.93222 9.27723 9.85844 9.19989 9.78169 9.1256C9.92247 8.77803 10 8.39806 10 8C10 6.34315 8.65686 5 7 5Z" fill="white"/>
<path d="M4.21831 9.1256C4.07753 8.77803 4 8.39806 4 8C4 6.34315 5.34314 5 7 5H4V3H3V12C3 10.8718 3.46704 9.85279 4.21831 9.1256Z" fill="white"/>
<path d="M3 13V15H6.05C6.01721 14.8384 6 14.6712 6 14.5C6 13.9372 6.18597 13.4178 6.49982 13H3Z" fill="white"/>
<path d="M14.0859 10.8828C13.9036 10.9609 13.7083 11 13.5 11C13.2865 11 13.0729 10.9505 12.8594 10.8516L8.85156 14.8516C8.7526 14.9505 8.63542 15 8.5 15C8.36458 15 8.2474 14.9505 8.14844 14.8516C8.04948 14.7526 8 14.6354 8 14.5C8 14.3646 8.04948 14.2474 8.14844 14.1484L12.1484 10.1406C12.0495 9.92708 12 9.71354 12 9.5C12 9.29167 12.0391 9.09635 12.1172 8.91406C12.1953 8.73177 12.3021 8.57292 12.4375 8.4375C12.5729 8.30208 12.7318 8.19531 12.9141 8.11719C13.0964 8.03906 13.2917 8 13.5 8C13.7135 8 13.9271 8.04948 14.1406 8.14844L13 9.28906V10H13.7109L14.8516 8.85938C14.9505 9.07292 15 9.28646 15 9.5C15 9.70833 14.9609 9.90365 14.8828 10.0859C14.8047 10.2682 14.6979 10.4271 14.5625 10.5625C14.4271 10.6979 14.2682 10.8047 14.0859 10.8828Z" fill="#C8C6C4"/>
<path d="M6.04688 15C6.08854 15.1823 6.14583 15.3568 6.21875 15.5234C6.29167 15.6901 6.38542 15.849 6.5 16H2V2H6C6 1.72396 6.05208 1.46615 6.15625 1.22656C6.26042 0.981771 6.40365 0.768229 6.58594 0.585938C6.76823 0.403646 6.97917 0.260417 7.21875 0.15625C7.46354 0.0520833 7.72396 0 8 0C8.27604 0 8.53385 0.0520833 8.77344 0.15625C9.01823 0.260417 9.23177 0.403646 9.41406 0.585938C9.59635 0.768229 9.73958 0.981771 9.84375 1.22656C9.94792 1.46615 10 1.72396 10 2H14V6.03906C13.9167 6.02865 13.8333 6.02083 13.75 6.01562C13.6667 6.00521 13.5833 6 13.5 6C13.4167 6 13.3333 6.00521 13.25 6.01562C13.1667 6.02083 13.0833 6.02865 13 6.03906V3H12V5H4V3H3V15H6.04688ZM5 4H11V3H9V2C9 1.85938 8.97396 1.72917 8.92188 1.60938C8.86979 1.48958 8.79688 1.38542 8.70312 1.29688C8.61458 1.20312 8.51042 1.13021 8.39062 1.07812C8.27083 1.02604 8.14062 1 8 1C7.85938 1 7.72917 1.02604 7.60938 1.07812C7.48958 1.13021 7.38281 1.20312 7.28906 1.29688C7.20052 1.38542 7.13021 1.48958 7.07812 1.60938C7.02604 1.72917 7 1.85938 7 2V3H5V4Z" fill="#3A3A3A"/>
<path fill-rule="evenodd" clip-rule="evenodd" d="M5.54736 9.375C4.62451 9.88672 4 10.8701 4 12H5C5 10.8955 5.89551 10 7 10C8.10449 10 9 10.8955 9 12H10C10 10.8701 9.37549 9.88672 8.45264 9.375C8.79199 9.0166 9 8.53223 9 8C9 6.89551 8.10449 6 7 6C5.89551 6 5 6.89551 5 8C5 8.53223 5.20801 9.0166 5.54736 9.375ZM7.83936 8.54297C7.77881 8.63672 7.70312 8.71973 7.61621 8.78809C7.44629 8.9209 7.23242 9 7 9C6.44775 9 6 8.55273 6 8C6 7.63184 6.19922 7.31055 6.49561 7.13672C6.64355 7.0498 6.81592 7 7 7C7.29053 7 7.55225 7.12402 7.73486 7.32227C7.89941 7.5 8 7.73828 8 8C8 8.20117 7.94092 8.38672 7.83936 8.54297Z" fill="#0D64AF"/>
<circle cx="7" cy="8" r="1" fill="#85BFEA"/>
<path d="M9 12C9 10.8955 8.10449 10 7 10C5.89551 10 5 10.8955 5 12H9Z" fill="#85BFEA"/>
<path fill-rule="evenodd" clip-rule="evenodd" d="M13.5 7C13.8438 7 14.1665 7.06738 14.4688 7.20312C14.771 7.33301 15.0337 7.5127 15.2578 7.74219C15.4868 7.96582 15.6665 8.22949 15.7969 8.53125C15.9321 8.83301 16 9.15625 16 9.5C16 9.84375 15.9321 10.1689 15.7969 10.4766C15.7222 10.6494 15.6313 10.8105 15.5239 10.96C15.4443 11.0713 15.3555 11.1758 15.2578 11.2734C15.0337 11.4971 14.771 11.6748 14.4688 11.8047C14.1665 11.9346 13.8438 12 13.5 12C13.4272 12 13.3555 11.9971 13.2847 11.9912C13.2388 11.9873 13.1934 11.9824 13.1484 11.9766L9.5625 15.5625C9.42188 15.7031 9.25781 15.8125 9.07031 15.8906C8.88818 15.9639 8.69775 16 8.5 16C8.2915 16 8.09619 15.9609 7.91406 15.8828C7.73193 15.8047 7.57275 15.6982 7.4375 15.5625C7.30225 15.4268 7.19531 15.2686 7.11719 15.0859C7.03906 14.9033 7 14.708 7 14.5C7 14.3018 7.03662 14.1123 7.10938 13.9297C7.1875 13.7422 7.29688 13.5781 7.4375 13.4375L11.0234 9.85156C11.0078 9.7373 11 9.62012 11 9.5C11 9.15625 11.0649 8.83301 11.1953 8.53125C11.3257 8.22949 11.5024 7.96582 11.7266 7.74219C11.8789 7.58984 12.0469 7.45898 12.2314 7.35059C12.3247 7.2959 12.4219 7.24707 12.5234 7.20312C12.8306 7.06738 13.1562 7 13.5 7ZM13.9097 10.9453C13.9697 10.9277 14.0283 10.9072 14.0859 10.8828C14.2681 10.8047 14.4272 10.6982 14.5625 10.5625C14.6538 10.4707 14.7319 10.3691 14.7974 10.2568C14.8291 10.2021 14.8574 10.1455 14.8828 10.0859C14.9609 9.90332 15 9.70801 15 9.5C15 9.28613 14.9507 9.07324 14.8516 8.85938L13.7109 10H13V9.28906L14.1406 8.14844C13.9272 8.0498 13.7134 8 13.5 8C13.2915 8 13.0962 8.03906 12.9141 8.11719C12.7319 8.19531 12.5728 8.30176 12.4375 8.4375C12.3574 8.51758 12.2871 8.60645 12.2271 8.70312C12.1855 8.76953 12.1489 8.83984 12.1172 8.91406C12.0391 9.09668 12 9.29199 12 9.5C12 9.71387 12.0493 9.92676 12.1484 10.1406L8.14844 14.1484C8.04932 14.2471 8 14.3643 8 14.5C8 14.6357 8.04932 14.7529 8.14844 14.8516C8.24756 14.9502 8.36475 15 8.5 15C8.63525 15 8.75244 14.9502 8.85156 14.8516L12.8594 10.8516C12.9648 10.9004 13.0708 10.9375 13.1763 10.9619C13.2842 10.9873 13.3921 11 13.5 11C13.6426 11 13.7793 10.9824 13.9097 10.9453Z" fill="#777777"/>
</svg>
