<svg width="16" height="16" viewBox="0 0 16 16" fill="none" xmlns="http://www.w3.org/2000/svg">
<rect width="16" height="16" fill="black" fill-opacity="0"/>
<path d="M11.0156 7.20312C11.0104 7.51562 11.0104 7.83073 11.0156 8.14844C11.026 8.46094 11.0365 8.77344 11.0469 9.08594C11.0521 9.21615 11.0312 9.34635 10.9844 9.47656C10.9375 9.60677 10.8594 9.71094 10.75 9.78906C10.6771 9.84115 10.5729 9.88281 10.4375 9.91406C10.3073 9.9401 10.1667 9.96094 10.0156 9.97656C9.86458 9.98698 9.71615 9.99479 9.57031 10C9.42969 10 9.31771 10 9.23438 10C9.20312 10 9.15365 10 9.08594 10C9.01823 9.99479 8.97135 9.97917 8.94531 9.95312C8.92969 9.9375 8.91146 9.89583 8.89062 9.82812C8.86979 9.76042 8.85417 9.71354 8.84375 9.6875C8.80729 9.55208 8.76302 9.42708 8.71094 9.3125C8.66406 9.19271 8.60417 9.07292 8.53125 8.95312C8.70833 8.97396 8.88542 8.98958 9.0625 9C9.23958 9.00521 9.41667 9.00781 9.59375 9.00781C9.71875 9.00781 9.8125 8.98958 9.875 8.95312C9.94271 8.91146 9.97656 8.82292 9.97656 8.6875V7.20312H7.48438C7.27604 7.20312 7.06771 7.20573 6.85938 7.21094C6.65104 7.21615 6.44271 7.22135 6.23438 7.22656C6.19271 7.22656 6.16146 7.21875 6.14062 7.20312C6.13021 7.17188 6.125 7.14323 6.125 7.11719V6.36719C6.125 6.35156 6.125 6.33333 6.125 6.3125C6.13021 6.28646 6.13802 6.26823 6.14844 6.25781C6.17969 6.2474 6.20833 6.24219 6.23438 6.24219C6.44271 6.2474 6.65104 6.2526 6.85938 6.25781C7.06771 6.26302 7.27604 6.26562 7.48438 6.26562H9.97656C9.96615 6.13021 9.95833 5.99479 9.95312 5.85938C9.95312 5.71875 9.9401 5.58073 9.91406 5.44531C10.0286 5.45573 10.1406 5.46615 10.25 5.47656C10.3594 5.48698 10.4714 5.4974 10.5859 5.50781C10.7682 5.3776 10.9427 5.23958 11.1094 5.09375C11.276 4.94792 11.4427 4.79948 11.6094 4.64844H9.20312C8.98438 4.64844 8.76562 4.65104 8.54688 4.65625C8.33333 4.66146 8.11719 4.66667 7.89844 4.67188C7.85677 4.67188 7.82552 4.66406 7.80469 4.64844C7.79427 4.61719 7.78906 4.58854 7.78906 4.5625V3.82031C7.78906 3.79948 7.79427 3.76823 7.80469 3.72656C7.84635 3.71615 7.8776 3.71094 7.89844 3.71094C8.11719 3.71615 8.33333 3.72135 8.54688 3.72656C8.76562 3.73177 8.98438 3.73438 9.20312 3.73438H12.1172C12.2005 3.73438 12.2786 3.72396 12.3516 3.70312C12.4245 3.67708 12.4896 3.66406 12.5469 3.66406C12.5885 3.66406 12.6484 3.69531 12.7266 3.75781C12.8047 3.82031 12.8828 3.89323 12.9609 3.97656C13.0391 4.0599 13.1068 4.14583 13.1641 4.23438C13.2266 4.31771 13.2578 4.38021 13.2578 4.42188C13.2578 4.47396 13.2396 4.51562 13.2031 4.54688C13.1719 4.57292 13.1354 4.59635 13.0938 4.61719C13.0208 4.65365 12.9505 4.70052 12.8828 4.75781C12.8151 4.8151 12.75 4.86979 12.6875 4.92188C12.4167 5.14583 12.1432 5.36458 11.8672 5.57812C11.5964 5.78646 11.3125 5.98698 11.0156 6.17969V6.26562H13.5234C13.7318 6.26562 13.9375 6.26302 14.1406 6.25781C14.3438 6.2526 14.5495 6.2474 14.7578 6.24219C14.7943 6.24219 14.8281 6.25 14.8594 6.26562C14.8698 6.30729 14.875 6.34115 14.875 6.36719V7.11719C14.875 7.13802 14.8698 7.16927 14.8594 7.21094C14.8177 7.22135 14.7839 7.22656 14.7578 7.22656C14.5495 7.22135 14.3438 7.21615 14.1406 7.21094C13.9375 7.20573 13.7318 7.20312 13.5234 7.20312H11.0156ZM6.29688 4.25C6.30208 3.89062 6.30469 3.53385 6.30469 3.17969C6.3099 2.82552 6.30729 2.46875 6.29688 2.10938C6.29688 2.08333 6.30208 2.05469 6.3125 2.02344C6.35417 2.01302 6.38802 2.00781 6.41406 2.00781C6.63281 2.01302 6.84896 2.01823 7.0625 2.02344C7.28125 2.02865 7.5 2.03125 7.71875 2.03125H9.86719C9.86719 1.86458 9.86458 1.69271 9.85938 1.51562C9.85938 1.33854 9.83854 1.16667 9.79688 1C10.1562 1 10.513 1.01562 10.8672 1.04688C10.8984 1.05208 10.9297 1.0599 10.9609 1.07031C10.9974 1.08073 11.0156 1.10677 11.0156 1.14844C11.0156 1.17969 11.0078 1.21094 10.9922 1.24219C10.9766 1.27344 10.9635 1.30469 10.9531 1.33594C10.9427 1.36198 10.9323 1.40365 10.9219 1.46094C10.9167 1.51302 10.9115 1.57031 10.9062 1.63281C10.9062 1.6901 10.9062 1.7474 10.9062 1.80469C10.9062 1.85677 10.9062 1.89844 10.9062 1.92969V2.03125H13.2188C13.4375 2.03125 13.6536 2.02865 13.8672 2.02344C14.0859 2.01823 14.3047 2.01302 14.5234 2.00781C14.5599 2.00781 14.5938 2.01562 14.625 2.03125C14.6406 2.05729 14.6484 2.08333 14.6484 2.10938C14.6432 2.19792 14.638 2.29167 14.6328 2.39062C14.6276 2.48438 14.625 2.57552 14.625 2.66406V3.11719C14.625 3.30469 14.6276 3.49479 14.6328 3.6875C14.638 3.875 14.6432 4.0625 14.6484 4.25C14.6484 4.26562 14.6458 4.28385 14.6406 4.30469C14.6406 4.32552 14.6354 4.34115 14.625 4.35156C14.5833 4.36198 14.5495 4.36719 14.5234 4.36719C14.4974 4.36719 14.4375 4.36979 14.3438 4.375C14.25 4.375 14.151 4.375 14.0469 4.375C13.9427 4.375 13.8464 4.375 13.7578 4.375C13.6745 4.36979 13.625 4.35938 13.6094 4.34375C13.599 4.28646 13.5911 4.19531 13.5859 4.07031C13.5859 3.9401 13.5859 3.80469 13.5859 3.66406C13.5911 3.51823 13.5938 3.38021 13.5938 3.25C13.599 3.11458 13.6016 3.01042 13.6016 2.9375H7.33594C7.33594 2.96354 7.33594 3.01562 7.33594 3.09375C7.34115 3.17188 7.34375 3.26302 7.34375 3.36719C7.34375 3.46615 7.34375 3.57292 7.34375 3.6875C7.34375 3.80208 7.34375 3.90885 7.34375 4.00781C7.34375 4.10156 7.34115 4.18229 7.33594 4.25C7.33073 4.3125 7.32292 4.34896 7.3125 4.35938C7.27083 4.36979 7.23698 4.375 7.21094 4.375H6.41406C6.35677 4.375 6.32292 4.36719 6.3125 4.35156C6.30208 4.33594 6.29688 4.30208 6.29688 4.25Z" fill="#3A3A3A"/>
<path d="M5.08594 7L7.75 15H6.66406L6 13H3L2.33594 15H1.25L3.91406 7H5.08594ZM5.66406 12L4.5 8.5L3.33594 12H5.66406Z" fill="#3A3A3A"/>
<path d="M16 13V14H14V16H13V14H11V13H13V11H14V13H16Z" fill="#25A954"/>
</svg>
