<svg width="16" height="16" viewBox="0 0 16 16" fill="none" xmlns="http://www.w3.org/2000/svg">
<rect width="16" height="16" fill="black" fill-opacity="0"/>
<path d="M8 0C8.73438 0 9.44271 0.0963542 10.125 0.289062C10.8073 0.476562 11.4453 0.744792 12.0391 1.09375C12.6328 1.4375 13.1719 1.85417 13.6562 2.34375C14.1458 2.82812 14.5625 3.36719 14.9062 3.96094C15.2552 4.55469 15.5234 5.19271 15.7109 5.875C15.9036 6.55729 16 7.26562 16 8C16 8.73438 15.9036 9.44271 15.7109 10.125C15.5234 10.8073 15.2552 11.4453 14.9062 12.0391C14.5625 12.6328 14.1458 13.1745 13.6562 13.6641C13.1719 14.1484 12.6328 14.5651 12.0391 14.9141C11.4453 15.2578 10.8073 15.526 10.125 15.7188C9.44271 15.9062 8.73438 16 8 16C7.10417 16 6.24219 15.8568 5.41406 15.5703C4.59115 15.2839 3.83854 14.8828 3.15625 14.3672C2.47917 13.8464 1.89062 13.2266 1.39062 12.5078C0.895833 11.7891 0.53125 10.9974 0.296875 10.1328L1.25781 9.86719C1.46615 10.6224 1.78646 11.3151 2.21875 11.9453C2.65625 12.5703 3.17188 13.1094 3.76562 13.5625C4.35938 14.0156 5.01823 14.3698 5.74219 14.625C6.46615 14.875 7.21875 15 8 15C8.64062 15 9.25781 14.9167 9.85156 14.75C10.4505 14.5833 11.0078 14.349 11.5234 14.0469C12.0443 13.7396 12.5182 13.3724 12.9453 12.9453C13.3724 12.5182 13.737 12.0469 14.0391 11.5312C14.3464 11.0104 14.5833 10.4531 14.75 9.85938C14.9167 9.26562 15 8.64583 15 8C15 7.35938 14.9167 6.74219 14.75 6.14844C14.5833 5.54948 14.3464 4.99219 14.0391 4.47656C13.737 3.95573 13.3724 3.48177 12.9453 3.05469C12.5182 2.6276 12.0443 2.26302 11.5234 1.96094C11.0078 1.65365 10.4505 1.41667 9.85156 1.25C9.25781 1.08333 8.64062 1 8 1C7.32812 1 6.67448 1.09375 6.03906 1.28125C5.40365 1.46875 4.8099 1.73698 4.25781 2.08594C3.71094 2.4349 3.21615 2.85677 2.77344 3.35156C2.33073 3.84115 1.96615 4.39062 1.67969 5H4V6H0V2H1V4.14062C1.34896 3.5 1.77344 2.92448 2.27344 2.41406C2.77344 1.90365 3.32552 1.47135 3.92969 1.11719C4.53906 0.757812 5.1875 0.481771 5.875 0.289062C6.5625 0.0963542 7.27083 0 8 0Z" fill="#3A3A3A"/>
</svg>
