<svg width="16" height="16" viewBox="0 0 16 16" fill="none" xmlns="http://www.w3.org/2000/svg">
<rect width="16" height="16" fill="black" fill-opacity="0"/>
<path d="M8 2C8.74479 2 9.48438 2.09375 10.2188 2.28125C10.9531 2.46354 11.6458 2.73438 12.2969 3.09375C12.9479 3.45312 13.5365 3.89844 14.0625 4.42969C14.5938 4.95573 15.026 5.5625 15.3594 6.25C15.5677 6.68229 15.7266 7.13021 15.8359 7.59375C15.9453 8.05208 16 8.52083 16 9H15C15 8.38542 14.9062 7.8099 14.7188 7.27344C14.5312 6.73698 14.2708 6.2474 13.9375 5.80469C13.6094 5.36198 13.2214 4.96615 12.7734 4.61719C12.3255 4.26823 11.8411 3.97396 11.3203 3.73438C10.8047 3.49479 10.263 3.3125 9.69531 3.1875C9.1276 3.0625 8.5625 3 8 3C7.4375 3 6.8724 3.0625 6.30469 3.1875C5.73698 3.3125 5.19271 3.49479 4.67188 3.73438C4.15625 3.97396 3.67448 4.26823 3.22656 4.61719C2.77865 4.96615 2.38802 5.36198 2.05469 5.80469C1.72656 6.2474 1.46875 6.73698 1.28125 7.27344C1.09375 7.8099 1 8.38542 1 9H0C0 8.52083 0.0546875 8.05208 0.164062 7.59375C0.273438 7.13021 0.432292 6.68229 0.640625 6.25C0.973958 5.5625 1.40365 4.95573 1.92969 4.42969C2.46094 3.89844 3.05208 3.45312 3.70312 3.09375C4.35417 2.73438 5.04688 2.46354 5.78125 2.28125C6.51562 2.09375 7.25521 2 8 2Z" fill="#3A3A3A"/>
<path d="M8 6C8.41146 6 8.79948 6.07812 9.16406 6.23438C9.52865 6.39062 9.84635 6.60677 10.1172 6.88281C10.3932 7.15365 10.6094 7.47135 10.7656 7.83594C10.9219 8.20052 11 8.58854 11 9C11 9.41667 10.9219 9.80729 10.7656 10.1719C10.6094 10.5312 10.3932 10.849 10.1172 11.125C9.84635 11.3958 9.52865 11.6094 9.16406 11.7656C8.79948 11.9219 8.41146 12 8 12C7.58333 12 7.19271 11.9219 6.82812 11.7656C6.46875 11.6094 6.15104 11.3958 5.875 11.125C5.60417 10.849 5.39062 10.5312 5.23438 10.1719C5.07812 9.80729 5 9.41667 5 9C5 8.58854 5.07812 8.20052 5.23438 7.83594C5.39062 7.47135 5.60417 7.15365 5.875 6.88281C6.15104 6.60677 6.46875 6.39062 6.82812 6.23438C7.19271 6.07812 7.58333 6 8 6ZM8 11C8.27604 11 8.53385 10.9479 8.77344 10.8438C9.01823 10.7396 9.23177 10.5964 9.41406 10.4141C9.59635 10.2318 9.73958 10.0208 9.84375 9.78125C9.94792 9.53646 10 9.27604 10 9C10 8.72396 9.94792 8.46615 9.84375 8.22656C9.73958 7.98177 9.59635 7.76823 9.41406 7.58594C9.23177 7.40365 9.01823 7.26042 8.77344 7.15625C8.53385 7.05208 8.27604 7 8 7C7.72396 7 7.46354 7.05208 7.21875 7.15625C6.97917 7.26042 6.76823 7.40365 6.58594 7.58594C6.40365 7.76823 6.26042 7.98177 6.15625 8.22656C6.05208 8.46615 6 8.72396 6 9C6 9.27604 6.05208 9.53646 6.15625 9.78125C6.26042 10.0208 6.40365 10.2318 6.58594 10.4141C6.76823 10.5964 6.97917 10.7396 7.21875 10.8438C7.46354 10.9479 7.72396 11 8 11Z" fill="#0D64AF"/>
<circle cx="8" cy="9" r="2" fill="white"/>
</svg>
