<svg width="16" height="16" viewBox="0 0 16 16" fill="none" xmlns="http://www.w3.org/2000/svg">
<rect width="16" height="16" fill="black" fill-opacity="0"/>
<path d="M6.8125 4.95312L8.16406 4.86719L6.85156 11.1172L5.51562 11.0312L4.82031 7.48438L4.14062 10.9453L2.89062 10.8594L1.85156 5.27344L3.03906 5.20312L3.57031 8.64844L4.27344 5.11719L5.50781 5.03906L6.20312 8.73438L6.8125 4.95312Z" fill="white"/>
<path d="M10 2H15V14H10V11H13V10H10V9H13V8H10V7H13V6H10V5H13V4H10V2Z" fill="white"/>
<path d="M15 1C15.1406 1 15.2708 1.02604 15.3906 1.07812C15.5104 1.13021 15.6146 1.20312 15.7031 1.29688C15.7969 1.38542 15.8698 1.48958 15.9219 1.60938C15.974 1.72917 16 1.85938 16 2V14C16 14.1406 15.974 14.2708 15.9219 14.3906C15.8698 14.5104 15.7969 14.6172 15.7031 14.7109C15.6146 14.7995 15.5104 14.8698 15.3906 14.9219C15.2708 14.974 15.1406 15 15 15H10V16L0 14.25V1.75L10 0V1H15ZM8.16406 4.86719L6.8125 4.95312L6.20312 8.73438L5.50781 5.03906L4.27344 5.11719L3.57031 8.64844L3.03906 5.20312L1.85156 5.27344L2.89062 10.8594L4.14062 10.9453L4.82031 7.48438L5.51562 11.0312L6.85156 11.1172L8.16406 4.86719ZM15 2H10V4H13V5H10V6H13V7H10V8H13V9H10V10H13V11H10V14H15V2Z" fill="#285395"/>
</svg>
