<?xml version="1.0" encoding="utf-8"?>
<!-- Generator: Adobe Illustrator 22.0.1, SVG Export Plug-In . SVG Version: 6.00 Build 0)  -->
<svg version="1.1" id="Layer_1" xmlns="http://www.w3.org/2000/svg" xmlns:xlink="http://www.w3.org/1999/xlink" x="0px" y="0px"
	 width="32px" height="32px" viewBox="0 0 16 16" enable-background="new 0 0 32 32" xml:space="preserve">
<path d="M6.5,5.203L0,11.711v-1.422l6.5-6.492L9,6.289L12.289,3H10V2h4v4h-1V3.711l-4,4L6.5,5.203z M0,13.477l1-1V14H0V13.477z
	 M2,11.477l1-1V14H2V11.477z M4,9.477l1-1V14H4V9.477z M7,14H6V7.477l0.5-0.5l0.5,0.5V14z M13,7c0.411,0,0.8,0.078,1.164,0.234
	s0.683,0.371,0.953,0.645s0.484,0.593,0.641,0.957c0.156,0.365,0.234,0.753,0.234,1.164c0,0.417-0.078,0.807-0.234,1.168
	c-0.156,0.362-0.37,0.68-0.641,0.953s-0.589,0.488-0.953,0.645S13.411,13,13,13c-0.312,0-0.617-0.047-0.914-0.141
	s-0.57-0.231-0.82-0.414l-3.414,3.406C7.752,15.951,7.635,16,7.5,16c-0.136,0-0.253-0.049-0.352-0.148C7.049,15.753,7,15.636,7,15.5
	c0-0.135,0.049-0.252,0.148-0.352l3.406-3.414c-0.183-0.25-0.32-0.523-0.414-0.82S10,10.312,10,10c0-0.411,0.078-0.799,0.234-1.164
	c0.156-0.364,0.371-0.684,0.645-0.957s0.591-0.488,0.953-0.645S12.583,7,13,7z M8,12.523V8.477l1,0.883v2.164L8,12.523z M13,12
	c0.276,0,0.535-0.052,0.777-0.156c0.242-0.104,0.454-0.247,0.637-0.43c0.183-0.182,0.325-0.395,0.43-0.637S15,10.276,15,10
	c0-0.275-0.052-0.535-0.156-0.777s-0.247-0.454-0.43-0.637c-0.183-0.182-0.395-0.325-0.637-0.43C13.535,8.052,13.276,8,13,8
	s-0.535,0.052-0.777,0.156c-0.242,0.104-0.454,0.248-0.637,0.43c-0.183,0.183-0.325,0.395-0.43,0.637S11,9.725,11,10
	c0,0.276,0.052,0.535,0.156,0.777s0.247,0.455,0.43,0.637c0.183,0.183,0.395,0.326,0.637,0.43C12.465,11.948,12.724,12,13,12z"/>
</svg>
