<svg id="Layer_87" data-name="Layer 87" xmlns="http://www.w3.org/2000/svg" viewBox="0 0 32 32"><defs><style>.cls-1{fill:#666;}</style></defs><title>Artboard 1</title><path class="cls-1" d="M25.7,8.71q.14.61.22,1.23A10,10,0,0,1,26,11.18a10.12,10.12,0,0,1-.85,4.2,12,12,0,0,1-2.46,3.52,9.7,9.7,0,0,0-2,2.87,8.27,8.27,0,0,0-.7,3.41v4a2.94,2.94,0,0,1-.23,1.17,3,3,0,0,1-1.59,1.59,3,3,0,0,1-1.17.23H13a2.94,2.94,0,0,1-1.17-.23,3,3,0,0,1-1.59-1.59A2.94,2.94,0,0,1,10,29.18v-4a8.28,8.28,0,0,0-.7-3.41,9.73,9.73,0,0,0-2-2.87,12,12,0,0,1-2.46-3.52A10.12,10.12,0,0,1,4,11.18,10.89,10.89,0,0,1,5.5,5.63a11.23,11.23,0,0,1,4-4A11,11,0,0,1,19.13,1a10.74,10.74,0,0,1,3.52,2.31L21.23,4.71a9,9,0,0,0-2.87-1.87A8.82,8.82,0,0,0,15,2.18a8.71,8.71,0,0,0-3.5.71A9.05,9.05,0,0,0,6.71,7.68,8.7,8.7,0,0,0,6,11.18a8.26,8.26,0,0,0,.7,3.41,9.69,9.69,0,0,0,2,2.87,11.68,11.68,0,0,1,2.21,3.06,10.43,10.43,0,0,1,1,3.66h6.2a10.76,10.76,0,0,1,1-3.66,11.34,11.34,0,0,1,2.22-3.06,9.73,9.73,0,0,0,2-2.87,8.28,8.28,0,0,0,.7-3.41,2.55,2.55,0,0,0,0-.34c0-.11,0-.23-.05-.34ZM15,13.78,25.3,3.48,26.7,4.88,15,16.59l-5.2-5.2L11.2,10Zm2,16.41a1,1,0,0,0,1-1v-3H12v3a1,1,0,0,0,1,1Z"/></svg>